<svg width="20" height="20" viewBox="0 0 20 20" fill="none" xmlns="http://www.w3.org/2000/svg">
<path d="M0.25 10C0.25 11.9284 0.821827 13.8134 1.89317 15.4168C2.96451 17.0202 4.48726 18.2699 6.26884 19.0078C8.05042 19.7458 10.0108 19.9389 11.9021 19.5627C13.7934 19.1864 15.5307 18.2578 16.8943 16.8943C18.2579 15.5307 19.1865 13.7934 19.5627 11.9021C19.9389 10.0108 19.7458 8.05041 19.0078 6.26883C18.2699 4.48725 17.0202 2.96451 15.4168 1.89317C13.8134 0.821823 11.9284 0.249996 10 0.249996C7.41498 0.252725 4.93661 1.28083 3.10872 3.10872C1.28083 4.93661 0.252729 7.41497 0.25 10ZM18.25 10C18.25 11.6317 17.7661 13.2267 16.8596 14.5834C15.9531 15.9402 14.6646 16.9976 13.1571 17.622C11.6496 18.2464 9.99085 18.4098 8.3905 18.0915C6.79016 17.7731 5.32015 16.9874 4.16637 15.8336C3.01259 14.6798 2.22685 13.2098 1.90852 11.6095C1.59019 10.0091 1.75357 8.35035 2.37799 6.84286C3.00242 5.33537 4.05984 4.04689 5.41654 3.14037C6.77325 2.23385 8.3683 1.75 10 1.75C12.1873 1.75248 14.2843 2.62247 15.8309 4.1691C17.3775 5.71574 18.2475 7.81272 18.25 10ZM7.96937 5.71937C8.03903 5.64964 8.12175 5.59432 8.21279 5.55658C8.30384 5.51883 8.40144 5.49941 8.5 5.49941C8.59856 5.49941 8.69616 5.51883 8.7872 5.55658C8.87825 5.59432 8.96097 5.64964 9.03062 5.71937L12.7806 9.46937C12.8504 9.53902 12.9057 9.62174 12.9434 9.71279C12.9812 9.80384 13.0006 9.90143 13.0006 10C13.0006 10.0986 12.9812 10.1962 12.9434 10.2872C12.9057 10.3782 12.8504 10.461 12.7806 10.5306L9.03063 14.2806C8.88989 14.4214 8.69902 14.5004 8.5 14.5004C8.30098 14.5004 8.1101 14.4214 7.96937 14.2806C7.82864 14.1399 7.74958 13.949 7.74958 13.75C7.74958 13.551 7.82864 13.3601 7.96937 13.2194L11.1897 10L7.96937 6.78062C7.89964 6.71097 7.84432 6.62825 7.80658 6.5372C7.76884 6.44615 7.74941 6.34856 7.74941 6.25C7.74941 6.15143 7.76884 6.05384 7.80658 5.96279C7.84432 5.87174 7.89964 5.78902 7.96937 5.71937Z" fill="#016DDD"/>
</svg>
