<svg width="16" height="11" viewBox="0 0 16 11" fill="none" xmlns="http://www.w3.org/2000/svg">
<path d="M15.3469 1.65948L6.34692 10.6595C6.26854 10.7381 6.17539 10.8006 6.07283 10.8431C5.97027 10.8857 5.86032 10.9076 5.74927 10.9076C5.63822 10.9076 5.52826 10.8857 5.4257 10.8431C5.32314 10.8006 5.23 10.7381 5.15161 10.6595L1.21411 6.72198C1.13562 6.6435 1.07337 6.55032 1.03089 6.44777C0.988415 6.34523 0.966553 6.23532 0.966553 6.12433C0.966553 6.01333 0.988415 5.90342 1.03089 5.80088C1.07337 5.69833 1.13562 5.60515 1.21411 5.52667C1.2926 5.44818 1.38577 5.38593 1.48832 5.34345C1.59086 5.30097 1.70077 5.27911 1.81177 5.27911C1.92276 5.27911 2.03267 5.30097 2.13522 5.34345C2.23776 5.38593 2.33094 5.44818 2.40942 5.52667L5.74997 8.86722L14.153 0.465575C14.3115 0.307066 14.5265 0.218018 14.7507 0.218018C14.9748 0.218018 15.1898 0.307066 15.3483 0.465575C15.5068 0.624083 15.5959 0.839067 15.5959 1.06323C15.5959 1.2874 15.5068 1.50238 15.3483 1.66089L15.3469 1.65948Z" fill="black"/>
</svg>
