<svg width="32" height="32" viewBox="0 0 32 32" fill="none" xmlns="http://www.w3.org/2000/svg">
<path d="M28.516 13.0275H19.083L13.36 19.7195H2.079L5.12 16.1365H1.495C0.672 16.1365 0 16.8235 0 17.6675V20.9075C0 21.7505 0.672 22.4385 1.495 22.4385H18.74C19.563 22.4385 20.688 21.9275 21.24 21.2985L23.849 18.3345L28.473 13.0745L28.516 13.0275ZM30.505 9.56348H13.306C12.483 9.56348 11.359 10.0745 10.806 10.6985L3.489 18.9795H12.885L18.708 12.2875H29.937L26.921 15.8705H30.505C31.328 15.8705 32 15.1785 32 14.3345V11.0995C32 10.2555 31.328 9.56348 30.505 9.56348ZM28.011 13.5935L27.511 14.1615L27.38 14.3175L28.011 13.5935Z" fill="black"/>
</svg>
