<svg width="27" height="24" viewBox="0 0 27 24" fill="none" xmlns="http://www.w3.org/2000/svg">
<path d="M5.88797 7.75688C5.433 7.75678 4.98822 7.89162 4.60989 8.14433C4.23156 8.39703 3.93667 8.75627 3.76252 9.17658C3.58837 9.5969 3.54278 10.0594 3.63152 10.5057C3.72025 10.9519 3.93933 11.3618 4.26104 11.6835C4.58275 12.0052 4.99265 12.2243 5.43888 12.313C5.88511 12.4018 6.34763 12.3562 6.76795 12.182C7.18827 12.0079 7.5475 11.713 7.80021 11.3346C8.05291 10.9563 8.18775 10.5115 8.18766 10.0566C8.18741 9.44672 7.94504 8.86193 7.51382 8.43071C7.0826 7.99949 6.49781 7.75712 5.88797 7.75688ZM4.03828 19.9613H7.73859V13.3744H4.03828V19.9613ZM11.138 10.0425C11.138 9.105 10.6692 8.98641 10.2595 8.98641H9.60094V11.1328H10.2595C10.7166 11.1328 11.138 11.0011 11.138 10.0425ZM20.5922 12.1987V7.91859H21.6586V11.1328H23.2378C22.8047 5.30063 18.2161 4.04016 14.047 4.04016H9.60188V7.92188H10.2581C11.4581 7.92188 12.2034 8.73516 12.2034 10.0434C12.2034 11.3939 11.4759 12.1997 10.2581 12.1997H9.60188V19.9631H14.047C20.8256 19.9631 23.1848 16.815 23.2683 12.1987H20.5922ZM15.4477 12.1987H12.8109V7.92188H15.3623V8.98734H13.875V9.48328H15.2812V10.5469H13.875V11.1328H15.4458L15.4477 12.1987ZM18.9473 12.1987L18.7055 11.3705H17.3114L17.0686 12.1987H15.9595L17.25 7.91813H18.7664L20.0569 12.1997L18.9473 12.1987ZM14.0461 1.5H1.5V22.5H14.0461C21.6328 22.5 25.8117 18.7627 25.8117 11.9756C25.8103 8.0625 24.2812 1.5 14.0461 1.5ZM14.0461 21.5119H2.48766V2.48766H14.0461C20.707 2.48766 24.8227 5.51625 24.8227 11.9756C24.8227 18.2611 21.0258 21.5119 14.0461 21.5119ZM17.977 9.09703L17.625 10.3069H18.3937L18.0413 9.09703H17.977Z" fill="#EC4343"/>
</svg>
