<svg width="25" height="25" viewBox="0 0 25 25" fill="none" xmlns="http://www.w3.org/2000/svg">
<path d="M22.0555 10.5415H21.25V10.5H12.25V14.5H17.9015C17.077 16.8285 14.8615 18.5 12.25 18.5C8.9365 18.5 6.25 15.8135 6.25 12.5C6.25 9.1865 8.9365 6.5 12.25 6.5C13.7795 6.5 15.171 7.077 16.2305 8.0195L19.059 5.191C17.273 3.5265 14.884 2.5 12.25 2.5C6.7275 2.5 2.25 6.9775 2.25 12.5C2.25 18.0225 6.7275 22.5 12.25 22.5C17.7725 22.5 22.25 18.0225 22.25 12.5C22.25 11.8295 22.181 11.175 22.0555 10.5415Z" fill="#FFC107"/>
<path d="M3.40308 7.8455L6.68858 10.255C7.57758 8.054 9.73058 6.5 12.2501 6.5C13.7796 6.5 15.1711 7.077 16.2306 8.0195L19.0591 5.191C17.2731 3.5265 14.8841 2.5 12.2501 2.5C8.40908 2.5 5.07808 4.6685 3.40308 7.8455Z" fill="#FF3D00"/>
<path d="M12.2499 22.5C14.8329 22.5 17.1799 21.5115 18.9544 19.904L15.8594 17.285C14.8219 18.0745 13.5537 18.5014 12.2499 18.5C9.64891 18.5 7.44041 16.8415 6.60841 14.527L3.34741 17.0395C5.00241 20.278 8.36341 22.5 12.2499 22.5Z" fill="#4CAF50"/>
<path d="M22.0555 10.5415H21.25V10.5H12.25V14.5H17.9015C17.5071 15.6082 16.7967 16.5766 15.858 17.2855L15.8595 17.2845L18.9545 19.9035C18.7355 20.1025 22.25 17.5 22.25 12.5C22.25 11.8295 22.181 11.175 22.0555 10.5415Z" fill="#1976D2"/>
</svg>
