<svg width="31" height="24" viewBox="0 0 31 24" fill="none" xmlns="http://www.w3.org/2000/svg">
<g clip-path="url(#clip0_432_3929)">
<path d="M5.73441 23.8805V22.2921C5.73441 21.683 5.36367 21.286 4.72822 21.286C4.41055 21.286 4.06635 21.3919 3.82804 21.7361C3.64279 21.4448 3.37807 21.286 2.98092 21.286C2.71608 21.286 2.45147 21.3654 2.23957 21.6566V21.339H1.68359V23.8805H2.23957V22.4773C2.23957 22.0274 2.47789 21.8155 2.84862 21.8155C3.21911 21.8155 3.4046 22.0538 3.4046 22.4773V23.8805H3.96058V22.4773C3.96058 22.0274 4.22518 21.8155 4.56938 21.8155C4.94012 21.8155 5.12536 22.0538 5.12536 22.4773V23.8805H5.73441ZM13.9681 21.339H13.068V20.5712H12.5121V21.339H12.009V21.8419H12.5119V23.0069C12.5119 23.5894 12.7502 23.9335 13.3857 23.9335C13.624 23.9335 13.8886 23.8541 14.0741 23.7482L13.9152 23.2716C13.7563 23.3775 13.5711 23.404 13.4386 23.404C13.1739 23.404 13.068 23.2452 13.068 22.9804V21.8419H13.9681V21.339ZM18.6808 21.2859C18.3631 21.2859 18.1513 21.4448 18.0189 21.6566V21.339H17.4629V23.8805H18.0189V22.4509C18.0189 22.0274 18.2042 21.789 18.5484 21.789C18.6542 21.789 18.7867 21.8156 18.8926 21.842L19.0514 21.3125C18.9455 21.286 18.7867 21.286 18.6808 21.286M11.5589 21.5509C11.2941 21.3655 10.9235 21.2861 10.5263 21.2861C9.89099 21.2861 9.46743 21.6038 9.46743 22.1068C9.46743 22.5305 9.7851 22.7687 10.3411 22.8482L10.6058 22.8747C10.8971 22.9275 11.0559 23.007 11.0559 23.1394C11.0559 23.3247 10.8441 23.4571 10.4734 23.4571C10.1026 23.4571 9.81151 23.3247 9.62615 23.1924L9.36142 23.6159C9.65268 23.8277 10.0498 23.9336 10.4469 23.9336C11.1882 23.9336 11.6119 23.5895 11.6119 23.1129C11.6119 22.6628 11.2677 22.4245 10.7381 22.3451L10.4734 22.3186C10.2351 22.2921 10.0498 22.2393 10.0498 22.0804C10.0498 21.8951 10.2351 21.7892 10.5263 21.7892C10.8441 21.7892 11.1618 21.9215 11.3206 22.0009L11.5589 21.5509ZM26.3322 21.2861C26.0144 21.2861 25.8026 21.445 25.6702 21.6567V21.3391H25.1142V23.8807H25.6702V22.451C25.6702 22.0275 25.8556 21.7892 26.1997 21.7892C26.3057 21.7892 26.4381 21.8157 26.544 21.8421L26.7028 21.3127C26.5969 21.2861 26.4381 21.2861 26.3322 21.2861ZM19.2368 22.6099C19.2368 23.3776 19.7662 23.9336 20.587 23.9336C20.9576 23.9336 21.2224 23.8543 21.4871 23.6425L21.2224 23.1924C21.0106 23.3512 20.7988 23.4306 20.5605 23.4306C20.1104 23.4306 19.7927 23.1129 19.7927 22.6099C19.7927 22.1334 20.1104 21.8156 20.5605 21.7892C20.7988 21.7892 21.0106 21.8685 21.2224 22.0275L21.4871 21.5774C21.2224 21.3655 20.9576 21.2861 20.587 21.2861C19.7662 21.2861 19.2368 21.8421 19.2368 22.6099ZM24.373 22.6099V21.3391H23.817V21.6567C23.6317 21.4186 23.3669 21.2861 23.0227 21.2861C22.3079 21.2861 21.7519 21.8421 21.7519 22.6099C21.7519 23.3776 22.3079 23.9336 23.0227 23.9336C23.3933 23.9336 23.6582 23.8013 23.817 23.563V23.8807H24.373V22.6099ZM22.3343 22.6099C22.3343 22.1598 22.6256 21.7892 23.1021 21.7892C23.5522 21.7892 23.87 22.1334 23.87 22.6099C23.87 23.06 23.5522 23.4306 23.1021 23.4306C22.6256 23.404 22.3343 23.06 22.3343 22.6099ZM15.6891 21.2861C14.9478 21.2861 14.4182 21.8156 14.4182 22.6099C14.4182 23.4042 14.9476 23.9336 15.7155 23.9336C16.0861 23.9336 16.4569 23.8277 16.7481 23.5895L16.4833 23.1924C16.2715 23.3512 16.0068 23.4571 15.742 23.4571C15.3978 23.4571 15.0536 23.2983 14.9742 22.8481H16.854V22.6364C16.8805 21.8156 16.404 21.2861 15.6891 21.2861ZM15.689 21.7626C16.0331 21.7626 16.2715 21.9745 16.3243 22.3717H15.0006C15.0535 22.0275 15.2918 21.7626 15.689 21.7626ZM29.4826 22.6099V20.333H28.9266V21.6567C28.7412 21.4186 28.4765 21.2861 28.1323 21.2861C27.4175 21.2861 26.8615 21.8421 26.8615 22.6099C26.8615 23.3776 27.4175 23.9336 28.1323 23.9336C28.5031 23.9336 28.7678 23.8013 28.9266 23.563V23.8807H29.4826V22.6099ZM27.444 22.6099C27.444 22.1598 27.7352 21.7892 28.2118 21.7892C28.6619 21.7892 28.9796 22.1334 28.9796 22.6099C28.9796 23.06 28.6619 23.4306 28.2118 23.4306C27.7352 23.404 27.444 23.06 27.444 22.6099ZM8.85827 22.6099V21.3391H8.30229V21.6567C8.11692 21.4186 7.8522 21.2861 7.508 21.2861C6.79318 21.2861 6.2372 21.8421 6.2372 22.6099C6.2372 23.3776 6.79318 23.9336 7.508 23.9336C7.87873 23.9336 8.14345 23.8013 8.30229 23.563V23.8807H8.85827V22.6099ZM6.79318 22.6099C6.79318 22.1598 7.08444 21.7892 7.56094 21.7892C8.01103 21.7892 8.32882 22.1334 8.32882 22.6099C8.32882 23.06 8.01103 23.4306 7.56094 23.4306C7.08444 23.404 6.79318 23.06 6.79318 22.6099Z" fill="black"/>
<path d="M11.373 2.03809H19.7127V17.0231H11.373V2.03809Z" fill="#FF5F00"/>
<path d="M11.9027 9.53114C11.9027 6.48651 13.3323 3.78597 15.5297 2.03855C13.9148 0.767759 11.8763 0 9.65235 0C4.38357 0 0.121094 4.26247 0.121094 9.53114C0.121094 14.7998 4.38357 19.0623 9.65223 19.0623C11.8761 19.0623 13.9147 18.2945 15.5297 17.0236C13.3323 15.3027 11.9027 12.5758 11.9027 9.53114Z" fill="#EB001B"/>
<path d="M30.9652 9.53114C30.9652 14.7997 26.7028 19.0623 21.4341 19.0623C19.2102 19.0623 17.1716 18.2945 15.5566 17.0236C17.7806 15.2763 19.1838 12.5758 19.1838 9.53114C19.1838 6.48651 17.754 3.78597 15.5566 2.03855C17.1715 0.767759 19.2102 0 21.4341 0C26.7028 0 30.9652 4.28901 30.9652 9.53114Z" fill="#F79E1B"/>
</g>
<defs>
<clipPath id="clip0_432_3929">
<rect width="30.88" height="24" fill="white" transform="translate(0.119141)"/>
</clipPath>
</defs>
</svg>
