<svg width="18" height="15" viewBox="0 0 18 15" fill="none" xmlns="http://www.w3.org/2000/svg">
<path d="M18 7.5C18 7.69891 17.921 7.88968 17.7803 8.03033C17.6397 8.17098 17.4489 8.25 17.25 8.25H0.75C0.551088 8.25 0.360322 8.17098 0.21967 8.03033C0.0790178 7.88968 0 7.69891 0 7.5C0 7.30109 0.0790178 7.11032 0.21967 6.96967C0.360322 6.82902 0.551088 6.75 0.75 6.75H17.25C17.4489 6.75 17.6397 6.82902 17.7803 6.96967C17.921 7.11032 18 7.30109 18 7.5ZM0.75 2.25H17.25C17.4489 2.25 17.6397 2.17098 17.7803 2.03033C17.921 1.88968 18 1.69891 18 1.5C18 1.30109 17.921 1.11032 17.7803 0.96967C17.6397 0.829018 17.4489 0.75 17.25 0.75H0.75C0.551088 0.75 0.360322 0.829018 0.21967 0.96967C0.0790178 1.11032 0 1.30109 0 1.5C0 1.69891 0.0790178 1.88968 0.21967 2.03033C0.360322 2.17098 0.551088 2.25 0.75 2.25ZM17.25 12.75H0.75C0.551088 12.75 0.360322 12.829 0.21967 12.9697C0.0790178 13.1103 0 13.3011 0 13.5C0 13.6989 0.0790178 13.8897 0.21967 14.0303C0.360322 14.171 0.551088 14.25 0.75 14.25H17.25C17.4489 14.25 17.6397 14.171 17.7803 14.0303C17.921 13.8897 18 13.6989 18 13.5C18 13.3011 17.921 13.1103 17.7803 12.9697C17.6397 12.829 17.4489 12.75 17.25 12.75Z" fill="black"/>
</svg>
