<svg width="129" height="19" viewBox="0 0 129 19" fill="none" xmlns="http://www.w3.org/2000/svg">
<path d="M8.464 18.192C7.968 18.192 7.584 18.056 7.312 17.784C7.056 17.496 6.928 17.104 6.928 16.608V3.648H2.248C1.832 3.648 1.504 3.536 1.264 3.312C1.04 3.072 0.928 2.752 0.928 2.352C0.928 1.936 1.04 1.624 1.264 1.416C1.504 1.192 1.832 1.08 2.248 1.08H14.68C15.096 1.08 15.416 1.192 15.64 1.416C15.88 1.624 16 1.936 16 2.352C16 2.752 15.88 3.072 15.64 3.312C15.416 3.536 15.096 3.648 14.68 3.648H10V16.608C10 17.104 9.872 17.496 9.616 17.784C9.36 18.056 8.976 18.192 8.464 18.192ZM19.3068 18.192C18.8268 18.192 18.4588 18.064 18.2027 17.808C17.9468 17.536 17.8188 17.152 17.8188 16.656V2.4C17.8188 1.904 17.9468 1.528 18.2027 1.272C18.4588 1.016 18.8268 0.887999 19.3068 0.887999C19.7868 0.887999 20.1548 1.016 20.4108 1.272C20.6828 1.528 20.8188 1.904 20.8188 2.4V8.616H20.4828C20.8348 7.768 21.3788 7.128 22.1148 6.696C22.8668 6.248 23.7148 6.024 24.6588 6.024C25.6028 6.024 26.3788 6.2 26.9868 6.552C27.5948 6.904 28.0508 7.44 28.3548 8.16C28.6588 8.864 28.8108 9.76 28.8108 10.848V16.656C28.8108 17.152 28.6828 17.536 28.4268 17.808C28.1708 18.064 27.8028 18.192 27.3228 18.192C26.8428 18.192 26.4668 18.064 26.1948 17.808C25.9388 17.536 25.8108 17.152 25.8108 16.656V10.992C25.8108 10.08 25.6348 9.416 25.2828 9C24.9468 8.584 24.4188 8.376 23.6988 8.376C22.8188 8.376 22.1148 8.656 21.5868 9.216C21.0748 9.76 20.8188 10.488 20.8188 11.4V16.656C20.8188 17.68 20.3148 18.192 19.3068 18.192ZM36.6818 18.24C35.3538 18.24 34.2098 17.992 33.2498 17.496C32.2898 17 31.5458 16.296 31.0178 15.384C30.5058 14.472 30.2498 13.392 30.2498 12.144C30.2498 10.928 30.4978 9.864 30.9938 8.952C31.5058 8.04 32.2018 7.328 33.0818 6.816C33.9778 6.288 34.9938 6.024 36.1298 6.024C36.9618 6.024 37.7058 6.16 38.3618 6.432C39.0338 6.704 39.6018 7.096 40.0658 7.608C40.5458 8.12 40.9058 8.744 41.1458 9.48C41.4018 10.2 41.5298 11.016 41.5298 11.928C41.5298 12.216 41.4258 12.44 41.2178 12.6C41.0258 12.744 40.7458 12.816 40.3778 12.816H32.6738V11.088H39.4178L39.0338 11.448C39.0338 10.712 38.9218 10.096 38.6978 9.6C38.4898 9.104 38.1778 8.728 37.7618 8.472C37.3618 8.2 36.8578 8.064 36.2498 8.064C35.5778 8.064 35.0018 8.224 34.5218 8.544C34.0578 8.848 33.6978 9.288 33.4418 9.864C33.2018 10.424 33.0818 11.096 33.0818 11.88V12.048C33.0818 13.36 33.3858 14.344 33.9938 15C34.6178 15.64 35.5298 15.96 36.7298 15.96C37.1458 15.96 37.6098 15.912 38.1218 15.816C38.6498 15.704 39.1458 15.52 39.6098 15.264C39.9458 15.072 40.2418 14.992 40.4978 15.024C40.7538 15.04 40.9538 15.128 41.0978 15.288C41.2578 15.448 41.3538 15.648 41.3858 15.888C41.4178 16.112 41.3698 16.344 41.2418 16.584C41.1298 16.824 40.9298 17.032 40.6418 17.208C40.0818 17.56 39.4338 17.824 38.6978 18C37.9778 18.16 37.3058 18.24 36.6818 18.24ZM48.2976 18.24C47.0816 18.24 46.0256 17.992 45.1296 17.496C44.2336 17 43.5376 16.296 43.0416 15.384C42.5456 14.456 42.2976 13.368 42.2976 12.12C42.2976 11.176 42.4336 10.336 42.7056 9.6C42.9936 8.848 43.4016 8.208 43.9296 7.68C44.4576 7.136 45.0896 6.728 45.8256 6.456C46.5616 6.168 47.3856 6.024 48.2976 6.024C49.5136 6.024 50.5696 6.272 51.4656 6.768C52.3616 7.264 53.0576 7.968 53.5536 8.88C54.0496 9.792 54.2976 10.872 54.2976 12.12C54.2976 13.064 54.1536 13.912 53.8656 14.664C53.5936 15.416 53.1936 16.064 52.6656 16.608C52.1376 17.136 51.5056 17.544 50.7696 17.832C50.0336 18.104 49.2096 18.24 48.2976 18.24ZM48.2976 15.96C48.8896 15.96 49.4096 15.816 49.8576 15.528C50.3056 15.24 50.6496 14.816 50.8896 14.256C51.1456 13.68 51.2736 12.968 51.2736 12.12C51.2736 10.84 51.0016 9.888 50.4576 9.264C49.9136 8.624 49.1936 8.304 48.2976 8.304C47.7056 8.304 47.1856 8.448 46.7376 8.736C46.2896 9.008 45.9376 9.432 45.6816 10.008C45.4416 10.568 45.3216 11.272 45.3216 12.12C45.3216 13.384 45.5936 14.344 46.1376 15C46.6816 15.64 47.4016 15.96 48.2976 15.96ZM57.3498 18.192C56.8537 18.192 56.4697 18.064 56.1977 17.808C55.9417 17.536 55.8137 17.152 55.8137 16.656V7.584C55.8137 7.088 55.9417 6.712 56.1977 6.456C56.4537 6.2 56.8137 6.072 57.2777 6.072C57.7417 6.072 58.1017 6.2 58.3577 6.456C58.6137 6.712 58.7418 7.088 58.7418 7.584V9.096H58.5017C58.7258 8.136 59.1658 7.408 59.8218 6.912C60.4777 6.416 61.3498 6.12 62.4378 6.024C62.7738 5.992 63.0378 6.08 63.2298 6.288C63.4378 6.48 63.5578 6.784 63.5898 7.2C63.6218 7.6 63.5258 7.928 63.3017 8.184C63.0938 8.424 62.7738 8.568 62.3418 8.616L61.8138 8.664C60.8378 8.76 60.1018 9.064 59.6057 9.576C59.1097 10.072 58.8617 10.776 58.8617 11.688V16.656C58.8617 17.152 58.7337 17.536 58.4778 17.808C58.2218 18.064 57.8458 18.192 57.3498 18.192ZM65.7402 18.168C65.2602 18.168 64.8922 18.024 64.6362 17.736C64.3802 17.448 64.2522 17.048 64.2522 16.536V7.728C64.2522 7.2 64.3802 6.8 64.6362 6.528C64.8922 6.24 65.2602 6.096 65.7402 6.096C66.2202 6.096 66.5882 6.24 66.8442 6.528C67.1162 6.8 67.2522 7.2 67.2522 7.728V16.536C67.2522 17.048 67.1242 17.448 66.8682 17.736C66.6122 18.024 66.2362 18.168 65.7402 18.168ZM65.7402 3.864C65.1802 3.864 64.7402 3.728 64.4202 3.456C64.1162 3.168 63.9642 2.776 63.9642 2.28C63.9642 1.768 64.1162 1.376 64.4202 1.104C64.7402 0.831999 65.1802 0.696 65.7402 0.696C66.3162 0.696 66.7562 0.831999 67.0602 1.104C67.3642 1.376 67.5162 1.768 67.5162 2.28C67.5162 2.776 67.3642 3.168 67.0602 3.456C66.7562 3.728 66.3162 3.864 65.7402 3.864ZM75.1934 18.24C73.8654 18.24 72.7214 17.992 71.7614 17.496C70.8014 17 70.0574 16.296 69.5294 15.384C69.0174 14.472 68.7614 13.392 68.7614 12.144C68.7614 10.928 69.0094 9.864 69.5054 8.952C70.0174 8.04 70.7134 7.328 71.5934 6.816C72.4894 6.288 73.5054 6.024 74.6414 6.024C75.4734 6.024 76.2174 6.16 76.8734 6.432C77.5454 6.704 78.1134 7.096 78.5774 7.608C79.0574 8.12 79.4174 8.744 79.6574 9.48C79.9134 10.2 80.0414 11.016 80.0414 11.928C80.0414 12.216 79.9374 12.44 79.7294 12.6C79.5374 12.744 79.2574 12.816 78.8894 12.816H71.1854V11.088H77.9294L77.5454 11.448C77.5454 10.712 77.4334 10.096 77.2094 9.6C77.0014 9.104 76.6894 8.728 76.2734 8.472C75.8734 8.2 75.3694 8.064 74.7614 8.064C74.0894 8.064 73.5134 8.224 73.0334 8.544C72.5694 8.848 72.2094 9.288 71.9534 9.864C71.7134 10.424 71.5934 11.096 71.5934 11.88V12.048C71.5934 13.36 71.8974 14.344 72.5054 15C73.1294 15.64 74.0414 15.96 75.2414 15.96C75.6574 15.96 76.1214 15.912 76.6334 15.816C77.1614 15.704 77.6574 15.52 78.1214 15.264C78.4574 15.072 78.7534 14.992 79.0094 15.024C79.2654 15.04 79.4654 15.128 79.6094 15.288C79.7694 15.448 79.8654 15.648 79.8974 15.888C79.9294 16.112 79.8814 16.344 79.7534 16.584C79.6414 16.824 79.4414 17.032 79.1534 17.208C78.5934 17.56 77.9454 17.824 77.2094 18C76.4894 18.16 75.8174 18.24 75.1934 18.24ZM105.61 18.12C105.066 18.12 104.626 17.952 104.29 17.616C103.97 17.28 103.81 16.848 103.81 16.32C103.81 15.808 103.97 15.392 104.29 15.072C104.626 14.736 105.066 14.568 105.61 14.568C106.17 14.568 106.602 14.736 106.906 15.072C107.226 15.392 107.386 15.808 107.386 16.32C107.386 16.848 107.226 17.28 106.906 17.616C106.602 17.952 106.17 18.12 105.61 18.12ZM110.651 18.192C110.171 18.192 109.803 18.064 109.547 17.808C109.291 17.536 109.163 17.152 109.163 16.656V7.584C109.163 7.088 109.291 6.712 109.547 6.456C109.803 6.2 110.163 6.072 110.627 6.072C111.091 6.072 111.451 6.2 111.707 6.456C111.963 6.712 112.091 7.088 112.091 7.584V9.216L111.827 8.616C112.179 7.768 112.723 7.128 113.459 6.696C114.211 6.248 115.059 6.024 116.003 6.024C116.947 6.024 117.723 6.2 118.331 6.552C118.939 6.904 119.395 7.44 119.699 8.16C120.003 8.864 120.155 9.76 120.155 10.848V16.656C120.155 17.152 120.027 17.536 119.771 17.808C119.515 18.064 119.147 18.192 118.667 18.192C118.187 18.192 117.811 18.064 117.539 17.808C117.283 17.536 117.155 17.152 117.155 16.656V10.992C117.155 10.08 116.979 9.416 116.627 9C116.291 8.584 115.763 8.376 115.043 8.376C114.163 8.376 113.459 8.656 112.931 9.216C112.419 9.76 112.163 10.488 112.163 11.4V16.656C112.163 17.68 111.659 18.192 110.651 18.192ZM126.25 18.24C124.922 18.24 123.922 17.864 123.25 17.112C122.578 16.344 122.242 15.224 122.242 13.752V2.4C122.242 1.904 122.37 1.528 122.626 1.272C122.882 1.016 123.25 0.887999 123.73 0.887999C124.21 0.887999 124.578 1.016 124.834 1.272C125.106 1.528 125.242 1.904 125.242 2.4V13.608C125.242 14.344 125.394 14.888 125.698 15.24C126.018 15.592 126.466 15.768 127.042 15.768C127.17 15.768 127.29 15.768 127.402 15.768C127.514 15.752 127.626 15.736 127.738 15.72C127.962 15.688 128.114 15.752 128.194 15.912C128.274 16.056 128.314 16.36 128.314 16.824C128.314 17.224 128.234 17.536 128.074 17.76C127.914 17.984 127.65 18.12 127.282 18.168C127.122 18.184 126.954 18.2 126.778 18.216C126.602 18.232 126.426 18.24 126.25 18.24Z" fill="#016DDD"/>
<path d="M81.9132 18.192C81.5292 18.192 81.2172 18.104 80.9772 17.928C80.7532 17.752 80.6172 17.52 80.5692 17.232C80.5212 16.928 80.5772 16.592 80.7372 16.224L87.0732 2.184C87.2812 1.72 87.5292 1.392 87.8172 1.2C88.1212 0.991999 88.4652 0.887999 88.8492 0.887999C89.2172 0.887999 89.5452 0.991999 89.8332 1.2C90.1372 1.392 90.3932 1.72 90.6012 2.184L96.9612 16.224C97.1372 16.592 97.2012 16.928 97.1532 17.232C97.1052 17.536 96.9692 17.776 96.7452 17.952C96.5212 18.112 96.2252 18.192 95.8572 18.192C95.4092 18.192 95.0572 18.088 94.8012 17.88C94.5612 17.656 94.3452 17.32 94.1532 16.872L92.5932 13.248L93.8892 14.088H83.7612L85.0572 13.248L83.5212 16.872C83.3132 17.336 83.0972 17.672 82.8732 17.88C82.6492 18.088 82.3292 18.192 81.9132 18.192ZM88.8012 4.416L85.4412 12.408L84.8172 11.64H92.8332L92.2332 12.408L88.8492 4.416H88.8012ZM100.181 18.192C99.6846 18.192 99.3006 18.056 99.0286 17.784C98.7726 17.496 98.6446 17.104 98.6446 16.608V2.472C98.6446 1.96 98.7726 1.568 99.0286 1.296C99.3006 1.024 99.6846 0.887999 100.181 0.887999C100.677 0.887999 101.053 1.024 101.309 1.296C101.581 1.568 101.717 1.96 101.717 2.472V16.608C101.717 17.104 101.589 17.496 101.333 17.784C101.077 18.056 100.693 18.192 100.181 18.192Z" fill="#EE6C2D"/>
</svg>
