<svg width="18" height="18" viewBox="0 0 18 18" fill="none" xmlns="http://www.w3.org/2000/svg">
<path d="M15.857 0H2.143C1.5748 0.00052954 1.03003 0.226479 0.628255 0.628255C0.226479 1.03003 0.00052954 1.5748 0 2.143V15.857C0 17.04 0.961 18 2.143 18H15.857C16.4252 17.9995 16.97 17.7735 17.3717 17.3717C17.7735 16.97 17.9995 16.4252 18 15.857V2.143C17.9995 1.5748 17.7735 1.03003 17.3717 0.628255C16.97 0.226479 16.4252 0.00052954 15.857 0ZM14.145 7.853C13.5142 7.91424 12.8796 7.78501 12.323 7.482C11.8535 7.22889 11.4548 6.86245 11.163 6.416V11.36C11.163 12.0827 10.9487 12.7892 10.5472 13.3901C10.1457 13.9909 9.57501 14.4593 8.90732 14.7359C8.23964 15.0124 7.50495 15.0848 6.79614 14.9438C6.08733 14.8028 5.43625 14.4548 4.92523 13.9438C4.41421 13.4327 4.0662 12.7817 3.92521 12.0729C3.78422 11.3641 3.85658 10.6294 4.13314 9.96167C4.40971 9.29399 4.87805 8.72332 5.47895 8.32181C6.07984 7.9203 6.78631 7.706 7.509 7.706C7.585 7.706 7.659 7.713 7.734 7.717V9.518C7.659 9.509 7.586 9.495 7.509 9.495C7.01437 9.495 6.54 9.69149 6.19025 10.0412C5.84049 10.391 5.644 10.8654 5.644 11.36C5.644 11.8546 5.84049 12.329 6.19025 12.6788C6.54 13.0285 7.01437 13.225 7.509 13.225C8.539 13.225 9.449 12.414 9.449 11.384L9.467 2.986H11.19C11.2689 3.73443 11.6082 4.43136 12.1487 4.95503C12.6892 5.4787 13.3965 5.79583 14.147 5.851V7.853" fill="black"/>
</svg>
