<svg width="24" height="20" viewBox="0 0 24 20" fill="none" xmlns="http://www.w3.org/2000/svg">
<path d="M24 2.58915C23.1013 2.98734 22.148 3.24867 21.1719 3.36446C22.1887 2.75509 22.9693 1.79012 23.3369 0.640367C22.3704 1.21389 21.3129 1.61799 20.2103 1.83521C19.312 0.878305 18.0324 0.280273 16.6162 0.280273C13.8968 0.280273 11.6921 2.4849 11.6921 5.20402C11.6921 5.58999 11.7357 5.96574 11.8196 6.32621C7.72744 6.1208 4.09931 4.16059 1.67072 1.18159C1.24697 1.9088 1.00416 2.75471 1.00416 3.65696C1.00416 5.36527 1.8735 6.87231 3.19462 7.75534C2.4127 7.73089 1.64797 7.5197 0.964313 7.1394C0.964063 7.16002 0.963969 7.18068 0.964031 7.20137C0.964031 9.58702 2.66128 11.5771 4.91372 12.0295C4.18864 12.2267 3.42809 12.2555 2.69016 12.1139C3.31669 14.0701 5.13516 15.4936 7.28972 15.5334C5.60456 16.854 3.48141 17.6412 1.17459 17.6412C0.777094 17.6412 0.385219 17.6178 0 17.5724C2.17903 18.9694 4.76719 19.7846 7.54781 19.7846C16.6047 19.7846 21.5573 12.2817 21.5573 5.77505C21.5573 5.56149 21.5525 5.34915 21.543 5.13802C22.5069 4.44109 23.3389 3.57797 24 2.58915Z" fill="#55ACEE"/>
</svg>
