<svg width="298" height="185" viewBox="0 0 298 185" fill="none" xmlns="http://www.w3.org/2000/svg">
<path d="M142.9 173.325C142.9 173.325 253.01 164.024 281.288 136.153C309.566 108.282 295.676 84.4797 271.547 79.648C247.418 74.8162 242.722 67.8611 254.41 56.7734C266.098 45.6858 280.21 23.8614 251.657 5.97391C223.104 -11.9136 195.501 20.2729 171.339 18.6324C147.177 16.9919 155.36 2.99105 124.926 15.0057C94.4927 27.0202 98.8972 0.0084574 73.5157 2.04183e-06C48.1342 -0.00845331 51.7254 26.2461 23.9374 33.8787C-23.5893 46.9329 15.6932 100.288 7.90654 115.244C0.119828 130.2 -3.67247 177.319 38.4748 180.009C80.6219 182.698 142.9 173.325 142.9 173.325Z" fill="url(#paint0_linear_1898_39314)"/>
<path d="M233.508 138.578C242.057 140.287 252.974 130.967 256.491 120.785C260.11 110.306 253.474 105.917 253.525 91.3768C253.583 74.8596 262.175 72.3703 267.859 50.1067C269.141 45.0836 276.561 16.0151 267.364 10.5665C258.861 5.52875 234.976 19.9867 230.79 38.4917C227.805 51.6868 237.032 57.2269 233.508 72.5953C230.416 86.0798 222.288 86.275 219.175 99.285C215.384 115.123 222.284 136.334 233.508 138.578Z" fill="#BDD0FB"/>
<path d="M234.129 142.58C231.825 124.784 236.32 97.3289 240.498 77.4308C245.02 55.8878 250.153 38.3155 250.204 38.1404L250.916 38.3491C250.864 38.5238 245.739 56.0729 241.222 77.5884C237.057 97.4287 232.573 124.793 234.864 142.485L234.129 142.58Z" fill="#7D97F4"/>
<path d="M247.123 138.506C235.909 132.663 232.071 112.599 238.445 106.078C242.752 101.673 248.929 106.307 254.887 101.74C262.495 95.9083 256.899 84.9259 262.88 70.6824C267.97 58.561 280.18 47.0913 287.315 49.4447C294.783 51.9081 298.717 70.1866 292.339 81.187C288.191 88.3408 281.841 88.692 280.464 95.3456C278.866 103.066 286.588 106.586 286.63 114.071C286.705 127.516 261.958 146.236 247.123 138.506Z" fill="#91B3FA"/>
<path d="M253.174 143.644C253.107 143.644 253.039 143.629 252.975 143.598C252.748 143.488 252.653 143.215 252.764 142.988C267.63 112.354 271.989 76.8162 272.032 76.4608C272.061 76.2103 272.289 76.0312 272.539 76.0613C272.79 76.0911 272.969 76.3183 272.939 76.5687C272.896 76.9256 268.518 112.616 253.585 143.387C253.506 143.549 253.344 143.644 253.174 143.644Z" fill="#7D97F4"/>
<path d="M283.675 85.7157C283.617 85.7157 283.558 85.6971 283.509 85.6588C283.391 85.5671 283.37 85.3976 283.462 85.2799C288.148 79.2653 293.341 70.2304 291.473 61.3446C290.362 56.058 287.237 53.3035 287.205 53.2764C287.092 53.1787 287.08 53.0083 287.178 52.8956C287.275 52.783 287.446 52.7705 287.558 52.8681C287.692 52.984 290.853 55.7706 292.002 61.2337C293.912 70.322 288.644 79.5069 283.888 85.6116C283.835 85.68 283.755 85.7157 283.675 85.7157Z" fill="url(#paint1_linear_1898_39314)"/>
<path d="M246.112 135.882C246.026 135.882 245.941 135.841 245.889 135.765C238.667 125.225 236.206 117.076 238.575 111.545C240.686 106.617 246.015 105.7 246.069 105.691C246.216 105.667 246.354 105.767 246.378 105.914C246.402 106.061 246.302 106.2 246.155 106.224C246.104 106.232 241.058 107.109 239.069 111.764C236.782 117.114 239.227 125.086 246.334 135.46C246.419 135.583 246.387 135.751 246.264 135.835C246.218 135.867 246.164 135.882 246.112 135.882Z" fill="#F0F0F0"/>
<path d="M24.3213 59.7851V165.775C24.3213 174.494 31.2693 181.624 39.9854 181.849C78.6979 182.847 214.096 185.267 250.948 184.724C257.281 184.631 262.412 179.562 262.595 173.23C263.306 148.608 264.46 89.3979 260.189 61.9092C259.29 56.1203 254.403 51.7916 248.548 51.6044C216.112 50.5666 72.5811 47.2717 35.7465 48.099C29.394 48.2416 24.3213 53.4309 24.3213 59.7851Z" fill="url(#paint2_linear_1898_39314)"/>
<path d="M30.9719 59.2692V159.967C30.9719 165.057 35.0584 169.205 40.1484 169.281L245.646 171.82C250.693 171.896 254.829 167.836 254.848 162.789L255.192 62.9908C255.205 59.3821 252.33 56.4253 248.722 56.3374L38.3309 52.0869C34.2961 51.9889 30.9719 55.2331 30.9719 59.2692Z" fill="#016DDD"/>
<path d="M116.924 162.222C116.924 164.995 114.676 167.243 111.904 167.243C109.131 167.243 106.397 165.141 106.397 162.368C106.397 159.595 109.131 157.202 111.904 157.202C114.676 157.202 116.924 159.449 116.924 162.222Z" fill="url(#paint3_linear_1898_39314)"/>
<path opacity="0.69" d="M110.991 165.31C110.651 165.308 110.367 165.052 110.331 164.714L109.879 160.486C109.834 160.071 110.177 159.718 110.593 159.75L111.046 159.785C111.393 159.812 111.661 160.102 111.661 160.45V164.643C111.661 165.013 111.36 165.312 110.991 165.31Z" fill="white"/>
<path opacity="0.69" d="M112.427 160.386V164.648C112.427 165.013 112.721 165.31 113.086 165.315L113.193 165.316C113.555 165.32 113.854 165.035 113.867 164.673L114.022 160.41C114.035 160.032 113.733 159.719 113.355 159.719H113.094C112.726 159.719 112.427 160.017 112.427 160.386Z" fill="white"/>
<path d="M127.498 162.222C127.498 164.335 125.785 166.048 123.672 166.048C121.559 166.048 119.476 164.446 119.476 162.333C119.476 160.22 121.559 158.396 123.672 158.396C125.785 158.396 127.498 160.109 127.498 162.222Z" fill="url(#paint4_linear_1898_39314)"/>
<path opacity="0.69" d="M122.087 160.575V163.982C122.087 164.274 122.322 164.512 122.613 164.515L122.699 164.516C122.988 164.52 123.228 164.292 123.238 164.003L123.361 160.594C123.372 160.292 123.13 160.042 122.829 160.042H122.62C122.325 160.042 122.087 160.28 122.087 160.575Z" fill="white"/>
<path opacity="0.69" d="M124.137 160.46L123.956 164.028C123.943 164.291 124.262 164.43 124.446 164.241L126.172 162.467C126.275 162.36 126.28 162.193 126.183 162.081L124.639 160.289C124.471 160.093 124.15 160.203 124.137 160.46Z" fill="white"/>
<path d="M96.4689 162.222C96.4689 164.335 98.1817 166.048 100.295 166.048C102.407 166.048 104.491 164.446 104.491 162.333C104.491 160.22 102.407 158.396 100.295 158.396C98.1817 158.396 96.4689 160.109 96.4689 162.222Z" fill="url(#paint5_linear_1898_39314)"/>
<path opacity="0.69" d="M101.88 160.575V163.982C101.88 164.274 101.645 164.512 101.353 164.515L101.267 164.516C100.978 164.52 100.739 164.292 100.728 164.003L100.605 160.594C100.594 160.292 100.836 160.042 101.138 160.042H101.347C101.641 160.042 101.88 160.28 101.88 160.575Z" fill="white"/>
<path opacity="0.69" d="M99.8296 160.46L100.011 164.028C100.024 164.291 99.7041 164.43 99.5203 164.241L97.7948 162.467C97.6916 162.36 97.6865 162.193 97.7831 162.081L99.3277 160.289C99.4959 160.093 99.8164 160.203 99.8296 160.46Z" fill="white"/>
<path d="M45.1904 151.328L45.3226 152.647C45.4438 153.856 46.4608 154.776 47.6753 154.776H175.469C176.775 154.776 177.833 153.717 177.833 152.412C177.833 151.115 176.79 150.06 175.493 150.047L47.5675 148.728C46.1586 148.714 45.0499 149.927 45.1904 151.328Z" fill="#7D97F4"/>
<path d="M126.974 153.263C126.825 152.035 126.641 150.791 126.466 149.542L47.5676 148.728C46.1586 148.714 45.0497 149.927 45.1904 151.329L45.3226 152.647C45.4438 153.856 46.4608 154.776 47.6753 154.776H127.195C127.111 154.246 127.032 153.737 126.974 153.263Z" fill="url(#paint6_linear_1898_39314)"/>
<path d="M131.882 152.038C131.882 154.399 129.968 156.313 127.607 156.313C125.245 156.313 123.331 154.399 123.331 152.038C123.331 149.676 125.245 147.762 127.607 147.762C129.968 147.762 131.882 149.676 131.882 152.038Z" fill="url(#paint7_linear_1898_39314)"/>
<path d="M37.9557 73.1544L40.285 132.55C40.5076 138.227 45.0844 142.765 50.7631 142.938L174.987 146.727C180.846 146.905 185.781 142.385 186.116 136.533L189.895 70.3915C190.255 64.0885 185.163 58.818 178.851 58.9611L48.5182 61.9171C42.4764 62.0543 37.7189 67.1157 37.9557 73.1544Z" fill="#7D97F4"/>
<path d="M177.643 22.891C177.552 26.7957 176.807 39.303 178.709 41.9789C181.4 45.7666 204.026 43.9723 209.558 42.4772C215.09 40.9821 212.399 26.9278 211.801 22.891C211.203 18.8542 200.02 18.7045 191.782 18.8542C183.543 19.0037 177.723 19.4522 177.643 22.891Z" fill="#91B3FA"/>
<path d="M211.018 29.2879C210.902 29.2879 210.801 29.2004 210.788 29.0819C210.598 27.3939 210.353 25.8459 210.175 24.7156L210.103 24.2548C210.083 24.1282 210.169 24.0095 210.296 23.9899C210.421 23.9707 210.541 24.0564 210.561 24.1833L210.633 24.6433C210.812 25.7778 211.057 27.3317 211.249 29.0298C211.264 29.1572 211.172 29.272 211.045 29.2864C211.036 29.2875 211.027 29.2879 211.018 29.2879Z" fill="url(#paint8_linear_1898_39314)"/>
<path d="M204.143 42.4221C204.028 42.4221 203.929 42.3376 203.913 42.221C203.896 42.094 203.986 41.9771 204.112 41.9602C205.861 41.7262 207.259 41.4741 208.158 41.2314C210.346 40.6401 211.317 37.5873 211.046 32.1577C211.039 32.0298 211.138 31.9209 211.266 31.9145C211.388 31.9107 211.503 32.0066 211.509 32.1347C211.793 37.812 210.706 41.0232 208.279 41.6794C207.361 41.9274 205.942 42.1835 204.174 42.4201C204.164 42.4215 204.153 42.4221 204.143 42.4221Z" fill="url(#paint9_linear_1898_39314)"/>
<path d="M179.27 37.1694C179.151 37.1694 179.05 37.0789 179.039 36.9583C178.935 35.8116 178.874 34.4242 178.856 32.8348C178.855 32.7066 178.958 32.6016 179.086 32.6003C179.22 32.6071 179.319 32.7016 179.32 32.8298C179.337 34.4069 179.398 35.7819 179.501 36.9164C179.513 37.044 179.419 37.1569 179.291 37.1685C179.284 37.169 179.277 37.1694 179.27 37.1694Z" fill="url(#paint10_linear_1898_39314)"/>
<path d="M179.156 27.7856C179.153 27.7856 179.151 27.7856 179.149 27.7855C179.021 27.7817 178.92 27.6748 178.924 27.5467C178.946 26.7933 178.971 26.09 178.993 25.4644C179.018 24.7629 179.039 24.1592 179.05 23.6918C179.115 20.9122 182.827 20.1717 188.38 19.9148C188.509 19.9085 188.616 20.0079 188.622 20.1358C188.628 20.2639 188.529 20.3724 188.401 20.3783C182.137 20.668 179.562 21.6312 179.514 23.7026C179.503 24.1716 179.481 24.7773 179.457 25.4808C179.435 26.1057 179.41 26.808 179.387 27.5606C179.384 27.6863 179.281 27.7856 179.156 27.7856Z" fill="url(#paint11_linear_1898_39314)"/>
<path d="M191.437 36.1163C191.186 36.1163 190.98 35.9167 190.973 35.6646L190.761 27.7503C190.754 27.4893 190.88 27.2482 191.098 27.1053C191.317 26.9622 191.588 26.9426 191.825 27.0533L199.642 30.7099C199.9 30.8305 200.065 31.0824 200.073 31.3672C200.08 31.6518 199.929 31.9121 199.678 32.0463L192.776 35.7253C192.55 35.8458 192.269 35.7601 192.149 35.5342C192.028 35.308 192.114 35.027 192.34 34.9065L198.922 31.3975L191.696 28.0182L191.901 35.6398C191.907 35.896 191.705 36.1093 191.449 36.1161C191.445 36.1163 191.441 36.1163 191.437 36.1163Z" fill="url(#paint12_linear_1898_39314)"/>
<path d="M202.238 141.64V159.352C202.238 163.013 205.206 165.98 208.866 165.98H240.733C244.394 165.98 247.361 163.013 247.361 159.352V139.858C247.361 136.051 244.163 133.027 240.363 133.24L208.496 135.023C204.985 135.219 202.238 138.123 202.238 141.64Z" fill="#7D97F4"/>
<path d="M202.238 101.424V105.266C202.238 106.035 205.206 106.658 208.866 106.658H240.323C244.14 106.658 247.168 105.983 246.94 105.183L245.842 101.34C245.632 100.605 242.732 100.032 239.226 100.032H208.866C205.206 100.032 202.238 100.655 202.238 101.424Z" fill="#7D97F4"/>
<path d="M202.238 112.468V116.31C202.238 117.079 205.206 117.702 208.866 117.702H240.323C244.14 117.702 247.168 117.027 246.94 116.227L245.842 112.384C245.632 111.649 242.732 111.076 239.226 111.076H208.866C205.206 111.076 202.238 111.699 202.238 112.468Z" fill="#7D97F4"/>
<path d="M202.238 123.512V127.354C202.238 128.123 205.206 128.746 208.866 128.746H240.323C244.14 128.746 247.168 128.071 246.94 127.271L245.842 123.428C245.632 122.693 242.732 122.12 239.226 122.12H208.866C205.206 122.12 202.238 122.743 202.238 123.512Z" fill="#7D97F4"/>
<path d="M75.6619 86.2876L71.6216 89.5268C70.4997 90.426 71.0937 92.349 72.4916 92.342L138.908 91.9504L120.927 81.2136H89.8762C84.7559 81.2137 79.7718 82.9927 75.6619 86.2876Z" fill="url(#paint13_linear_1898_39314)"/>
<path d="M174.585 115.178C174.527 114.633 174.468 114.088 174.408 113.548C173.794 108.006 170.965 103.031 166.661 99.9348L166.327 99.6952C161.142 95.9661 155.186 93.6722 148.984 93.0163L138.908 91.9505L72.4918 92.3421C71.094 92.3491 70.4998 90.4261 71.6218 89.5269L75.6622 86.2877C79.7719 82.9928 84.7561 81.2137 89.8764 81.2137H120.928L120.695 81.1088C118.829 80.2692 116.828 79.8369 114.806 79.8369H85.5642C83.7875 79.8369 82.0209 80.1243 80.3231 80.6888L58.3294 89.4698C57.2424 89.8315 56.2722 90.5164 55.5297 91.446L50.9865 97.1352C50.0408 98.3194 49.5208 99.8305 49.5208 101.394V110.664C49.5208 113.118 57.5638 121.502 57.5638 121.502C58.4398 121.983 59.4091 122.234 60.3921 122.234H159.196L169.689 121.497C172.695 121.285 174.93 118.405 174.585 115.178Z" fill="#EE6C2D"/>
<path d="M174.236 119.377H173.922C173.311 119.377 172.815 118.843 172.815 118.183V112.18C172.815 111.52 173.311 110.986 173.922 110.986C174.51 110.986 174.995 111.48 175.028 112.113L175.342 118.116C175.378 118.801 174.873 119.377 174.236 119.377Z" fill="url(#paint14_linear_1898_39314)"/>
<path d="M170.34 109.833H173.637C172.41 105.82 169.976 102.319 166.661 99.9346L166.327 99.695C165.984 99.4481 165.636 99.2081 165.286 98.9736C165.959 101.507 166.789 104.98 167.335 107.311C167.683 108.796 168.92 109.833 170.34 109.833Z" fill="url(#paint15_linear_1898_39314)"/>
<path d="M58.3295 96.3345V89.4698C57.2425 89.8315 56.2723 90.5164 55.5298 91.446L50.9866 97.1352C50.1972 98.1237 49.7094 99.3413 49.5681 100.626L55.77 99.5669C57.244 99.3155 58.3295 97.9445 58.3295 96.3345Z" fill="url(#paint16_linear_1898_39314)"/>
<path d="M127.995 91.6485L125.66 89.2006C124.687 88.1806 123.462 87.4843 122.132 87.195L117.513 86.1901C116.246 85.9143 115.033 86.873 114.894 88.2598L114.861 88.5855C114.72 89.9981 115.754 91.2267 117.071 91.2106L123.021 91.1377C123.851 91.1275 124.605 91.6567 124.933 92.4793L125.043 92.7544C125.188 93.1195 125.521 93.3561 125.889 93.3561H127.353C128.18 93.3561 128.588 92.2707 127.995 91.6485Z" fill="url(#paint17_linear_1898_39314)"/>
<path d="M104.069 96.0829H114.253C115.047 96.0829 115.607 96.9346 115.332 97.7384C114.866 99.0984 113.756 100.833 111.118 101.036C108.746 101.218 105.755 99.7685 103.5 98.3916C102.477 97.7672 102.894 96.0829 104.069 96.0829Z" fill="url(#paint18_linear_1898_39314)"/>
<path d="M74.0829 133.231C81.5079 133.231 87.5269 127.212 87.5269 119.787C87.5269 112.362 81.5079 106.343 74.0829 106.343C66.658 106.343 60.6389 112.362 60.6389 119.787C60.6389 127.212 66.658 133.231 74.0829 133.231Z" fill="url(#paint19_linear_1898_39314)"/>
<path d="M74.0829 130.705C80.1128 130.705 85.0009 125.817 85.0009 119.787C85.0009 113.757 80.1128 108.869 74.0829 108.869C68.0531 108.869 63.1649 113.757 63.1649 119.787C63.1649 125.817 68.0531 130.705 74.0829 130.705Z" fill="url(#paint20_linear_1898_39314)"/>
<path d="M153.375 133.231C160.799 133.231 166.819 127.212 166.819 119.787C166.819 112.362 160.799 106.343 153.375 106.343C145.95 106.343 139.931 112.362 139.931 119.787C139.931 127.212 145.95 133.231 153.375 133.231Z" fill="url(#paint21_linear_1898_39314)"/>
<path d="M153.375 130.705C159.404 130.705 164.293 125.817 164.293 119.787C164.293 113.757 159.404 108.869 153.375 108.869C147.345 108.869 142.457 113.757 142.457 119.787C142.457 125.817 147.345 130.705 153.375 130.705Z" fill="url(#paint22_linear_1898_39314)"/>
<path d="M162.281 123.82C162.246 123.82 162.211 123.813 162.176 123.798C162.039 123.74 161.975 123.582 162.033 123.445C162.523 122.286 162.771 121.056 162.771 119.787C162.771 114.606 158.556 110.391 153.375 110.391C151.767 110.391 150.181 110.803 148.788 111.584C148.658 111.657 148.493 111.611 148.42 111.481C148.347 111.351 148.394 111.186 148.524 111.114C149.997 110.287 151.675 109.851 153.375 109.851C158.854 109.851 163.311 114.308 163.311 119.787C163.311 121.129 163.048 122.43 162.53 123.655C162.486 123.758 162.386 123.82 162.281 123.82Z" fill="url(#paint23_linear_1898_39314)"/>
<path d="M83.2535 123.82C83.2185 123.82 83.1829 123.813 83.1484 123.798C83.0111 123.74 82.947 123.582 83.0051 123.445C83.495 122.287 83.7434 121.056 83.7434 119.787C83.7434 114.606 79.5282 110.391 74.3468 110.391C72.7395 110.391 71.1534 110.803 69.7598 111.584C69.6305 111.657 69.4655 111.611 69.3925 111.481C69.3196 111.351 69.3661 111.186 69.4961 111.114C70.9699 110.287 72.6473 109.851 74.3469 109.851C79.8259 109.851 84.2833 114.308 84.2833 119.787C84.2833 121.129 84.0205 122.43 83.5023 123.655C83.4587 123.758 83.3586 123.82 83.2535 123.82Z" fill="url(#paint24_linear_1898_39314)"/>
<path d="M90.3502 115.725C90.2233 115.725 90.11 115.634 90.0853 115.505C88.8977 109.26 85.3401 105.285 79.512 103.69C75.1383 102.493 71.0553 103.159 71.0147 103.166C70.8679 103.189 70.7286 103.091 70.7038 102.944C70.6789 102.797 70.778 102.658 70.9249 102.633C71.0955 102.605 75.1506 101.941 79.6373 103.165C83.7995 104.299 89.0829 107.344 90.6159 115.404C90.6436 115.551 90.5475 115.692 90.4012 115.72C90.3839 115.723 90.367 115.725 90.3502 115.725Z" fill="url(#paint25_linear_1898_39314)"/>
<path d="M136.954 117.773C136.809 117.773 136.689 117.658 136.685 117.512C136.529 112.533 137.865 108.631 140.655 105.915C145.258 101.434 152.317 101.792 152.388 101.795C152.537 101.804 152.651 101.932 152.642 102.08C152.634 102.229 152.506 102.343 152.357 102.334C152.288 102.33 145.458 101.99 141.028 106.305C138.353 108.911 137.074 112.676 137.224 117.495C137.229 117.644 137.112 117.768 136.963 117.773C136.96 117.773 136.957 117.773 136.954 117.773Z" fill="url(#paint26_linear_1898_39314)"/>
<path d="M72.9159 90.9297C72.822 90.9297 72.7306 90.8808 72.681 90.7934C72.6073 90.6639 72.6525 90.4991 72.782 90.4254L81.787 85.3018C84.361 83.8373 87.2863 83.0351 90.2468 82.982L100.576 82.7966C100.726 82.7997 100.848 82.9126 100.851 83.0617C100.854 83.2107 100.735 83.3338 100.586 83.3364L90.2564 83.5219C87.3859 83.5733 84.5495 84.3511 82.0538 85.771L73.0488 90.8947C73.007 90.9185 72.9611 90.9297 72.9159 90.9297Z" fill="#7D97F4"/>
<path opacity="0.51" d="M128.852 65.344L130.154 67.8546C130.273 68.084 130.497 68.2402 130.754 68.2723L133.56 68.623C134.206 68.7036 134.478 69.4899 134.022 69.9533L132.036 71.9673C131.855 72.1513 131.776 72.4129 131.825 72.6666L132.358 75.4439C132.481 76.083 131.818 76.5854 131.236 76.2941L128.707 75.0284C128.476 74.9127 128.203 74.9182 127.976 75.043L125.5 76.4088C124.93 76.7229 124.247 76.2474 124.344 75.604L124.767 72.8077C124.805 72.5522 124.716 72.2941 124.527 72.1175L122.463 70.1843C121.988 69.7395 122.229 68.9431 122.871 68.8366L125.661 68.3743C125.916 68.332 126.134 68.1671 126.244 67.9331L127.445 65.3726C127.721 64.7829 128.553 64.7664 128.852 65.344Z" fill="white"/>
<path d="M131.593 75.9043C131.545 75.9052 131.496 75.8937 131.448 75.8698L128.919 74.604C128.737 74.5129 128.533 74.467 128.33 74.471C128.127 74.4751 127.925 74.5292 127.747 74.6274L125.271 75.9931C125.224 76.0189 125.175 76.0325 125.127 76.0334C125.037 76.0352 124.946 75.9939 124.884 75.9234C124.842 75.8753 124.795 75.7932 124.813 75.6745L125.236 72.8782C125.297 72.4682 125.154 72.0543 124.851 71.771L122.787 69.8378C122.66 69.7186 122.685 69.5763 122.702 69.5208C122.719 69.4652 122.777 69.3327 122.949 69.3042L125.739 68.8418C126.148 68.774 126.497 68.5095 126.673 68.1341L127.874 65.5737C127.948 65.4158 128.091 65.396 128.149 65.395C128.207 65.3938 128.351 65.4078 128.431 65.5627L129.733 68.0732C129.924 68.4412 130.284 68.6916 130.695 68.743L133.501 69.0937C133.674 69.1153 133.737 69.2454 133.756 69.3003C133.775 69.3552 133.806 69.4962 133.684 69.6204L131.699 71.6343C131.407 71.9296 131.28 72.349 131.359 72.7561L131.892 75.5333C131.915 75.6512 131.872 75.7352 131.832 75.7849C131.772 75.8577 131.683 75.9026 131.593 75.9043Z" fill="url(#paint27_linear_1898_39314)"/>
<path d="M125.629 72.1926C125.6 72.1932 125.571 72.1746 125.561 72.1448C125.473 71.8912 125.323 71.6602 125.127 71.4766L124.341 70.7411C124.313 70.7143 124.311 70.6693 124.338 70.6406C124.365 70.6119 124.41 70.6104 124.439 70.6372L125.224 71.3727C125.437 71.572 125.6 71.8229 125.695 72.0981C125.708 72.1352 125.688 72.1757 125.651 72.1887C125.644 72.1913 125.637 72.1925 125.629 72.1926Z" fill="url(#paint28_linear_1898_39314)"/>
<path d="M127.188 74.466C127.162 74.4666 127.137 74.4531 127.124 74.4293C127.105 74.3949 127.118 74.3515 127.152 74.3326L127.483 74.1498C127.739 74.009 128.028 73.9316 128.319 73.9258C128.61 73.9201 128.902 73.9859 129.163 74.1164C129.198 74.134 129.212 74.1767 129.195 74.2118C129.177 74.247 129.134 74.2612 129.099 74.2436C128.859 74.1235 128.59 74.0627 128.322 74.0681C128.053 74.0735 127.787 74.1447 127.552 74.2744L127.221 74.4572C127.21 74.4629 127.199 74.4658 127.188 74.466Z" fill="url(#paint29_linear_1898_39314)"/>
<path d="M130.682 74.9619C130.626 74.963 130.57 74.9558 130.514 74.9401C130.477 74.9294 130.455 74.8901 130.465 74.8522C130.476 74.8145 130.516 74.7925 130.553 74.8032C130.698 74.8443 130.853 74.8067 130.966 74.7025C131.08 74.598 131.129 74.4505 131.1 74.2979L130.823 72.8588C130.711 72.2752 130.893 71.6744 131.31 71.2512L132.339 70.2076C132.459 70.0862 132.497 69.9177 132.441 69.7566C132.385 69.5956 132.251 69.4868 132.082 69.4658L130.627 69.284C130.038 69.2104 129.523 68.8515 129.249 68.324L128.574 67.0231C128.496 66.8717 128.347 66.7835 128.177 66.7869C128.006 66.7903 127.861 66.8845 127.789 67.0388L127.167 68.3656C126.915 68.9036 126.414 69.2827 125.828 69.3799L124.382 69.6196C124.296 69.6339 124.218 69.6717 124.156 69.729C124.127 69.7557 124.082 69.7541 124.056 69.7252C124.029 69.6963 124.031 69.6514 124.059 69.6247C124.141 69.5483 124.245 69.498 124.359 69.4792L125.805 69.2395C126.345 69.15 126.806 68.8008 127.038 68.3052L127.66 66.9784C127.755 66.777 127.952 66.6492 128.174 66.6448C128.396 66.6403 128.598 66.7603 128.701 66.9578L129.375 68.2587C129.627 68.7445 130.102 69.0751 130.645 69.143L132.099 69.3247C132.32 69.3524 132.502 69.5 132.575 69.7102C132.648 69.9203 132.596 70.1493 132.44 70.3077L131.412 71.3513C131.027 71.7411 130.86 72.2947 130.963 72.8321L131.239 74.2712C131.278 74.4705 131.212 74.6709 131.063 74.8075C130.955 74.9057 130.82 74.9591 130.682 74.9619Z" fill="url(#paint30_linear_1898_39314)"/>
<path opacity="0.51" d="M141.267 65.344L142.569 67.8546C142.688 68.084 142.912 68.2402 143.169 68.2723L145.975 68.623C146.62 68.7036 146.893 69.4899 146.437 69.9533L144.451 71.9673C144.27 72.1513 144.191 72.4129 144.239 72.6666L144.773 75.4439C144.896 76.083 144.232 76.5854 143.651 76.2941L141.122 75.0284C140.89 74.9127 140.617 74.9182 140.391 75.043L137.915 76.4088C137.345 76.7229 136.662 76.2474 136.759 75.604L137.182 72.8077C137.22 72.5522 137.131 72.2941 136.942 72.1175L134.878 70.1843C134.403 69.7395 134.644 68.9431 135.286 68.8366L138.076 68.3743C138.331 68.332 138.549 68.1671 138.658 67.9331L139.859 65.3726C140.135 64.7829 140.967 64.7664 141.267 65.344Z" fill="white"/>
<path d="M144.008 75.9043C143.959 75.9052 143.91 75.8937 143.863 75.8698L141.334 74.604C141.152 74.5129 140.948 74.467 140.745 74.471C140.542 74.4751 140.34 74.5292 140.162 74.6274L137.686 75.9931C137.639 76.0189 137.59 76.0325 137.542 76.0334C137.452 76.0352 137.361 75.9939 137.299 75.9234C137.257 75.8753 137.21 75.7932 137.228 75.6745L137.651 72.8782C137.712 72.4682 137.569 72.0543 137.266 71.771L135.202 69.8378C135.075 69.7186 135.1 69.5763 135.117 69.5208C135.134 69.4652 135.192 69.3327 135.364 69.3042L138.154 68.8418C138.563 68.774 138.912 68.5095 139.088 68.1341L140.289 65.5737C140.363 65.4158 140.506 65.396 140.564 65.395C140.622 65.3938 140.766 65.4078 140.846 65.5627L142.148 68.0732C142.339 68.4412 142.698 68.6916 143.11 68.743L145.916 69.0937C146.089 69.1153 146.152 69.2454 146.171 69.3003C146.19 69.3552 146.221 69.4962 146.099 69.6204L144.113 71.6343C143.822 71.9296 143.695 72.349 143.774 72.7561L144.307 75.5333C144.33 75.6512 144.287 75.7352 144.246 75.7849C144.187 75.8577 144.098 75.9026 144.008 75.9043Z" fill="url(#paint31_linear_1898_39314)"/>
<path d="M138.044 72.1926C138.014 72.1932 137.986 72.1746 137.976 72.1448C137.888 71.8912 137.738 71.6602 137.542 71.4766L136.756 70.7411C136.728 70.7143 136.726 70.6693 136.753 70.6406C136.78 70.6119 136.825 70.6104 136.854 70.6372L137.639 71.3727C137.852 71.572 138.015 71.8229 138.11 72.0981C138.123 72.1352 138.103 72.1757 138.066 72.1887C138.059 72.1913 138.052 72.1925 138.044 72.1926Z" fill="url(#paint32_linear_1898_39314)"/>
<path d="M139.603 74.466C139.577 74.4666 139.552 74.4531 139.539 74.4293C139.52 74.3949 139.533 74.3515 139.567 74.3326L139.898 74.1498C140.154 74.009 140.442 73.9316 140.734 73.9258C141.025 73.9201 141.317 73.9859 141.578 74.1164C141.613 74.134 141.627 74.1767 141.61 74.2118C141.592 74.247 141.549 74.2612 141.514 74.2436C141.274 74.1235 141.005 74.0627 140.737 74.0681C140.468 74.0735 140.202 74.1447 139.967 74.2744L139.636 74.4572C139.625 74.4629 139.614 74.4658 139.603 74.466Z" fill="url(#paint33_linear_1898_39314)"/>
<path d="M143.097 74.9619C143.041 74.963 142.985 74.9558 142.929 74.9401C142.892 74.9294 142.87 74.8901 142.88 74.8522C142.891 74.8145 142.93 74.7925 142.968 74.8032C143.113 74.8443 143.268 74.8067 143.381 74.7025C143.495 74.598 143.544 74.4505 143.515 74.2979L143.238 72.8588C143.126 72.2752 143.308 71.6744 143.725 71.2512L144.754 70.2076C144.874 70.0862 144.912 69.9177 144.856 69.7566C144.8 69.5956 144.666 69.4868 144.497 69.4658L143.042 69.284C142.453 69.2104 141.938 68.8515 141.664 68.324L140.989 67.0231C140.911 66.8717 140.762 66.7835 140.592 66.7869C140.421 66.7903 140.277 66.8845 140.204 67.0388L139.582 68.3656C139.33 68.9036 138.829 69.2827 138.243 69.3799L136.797 69.6196C136.711 69.6339 136.633 69.6717 136.571 69.729C136.542 69.7557 136.497 69.7541 136.471 69.7252C136.444 69.6963 136.446 69.6514 136.474 69.6247C136.557 69.5483 136.66 69.498 136.774 69.4792L138.22 69.2395C138.76 69.15 139.221 68.8008 139.453 68.3052L140.075 66.9784C140.17 66.777 140.367 66.6492 140.589 66.6448C140.811 66.6403 141.013 66.7603 141.116 66.9578L141.79 68.2587C142.042 68.7445 142.517 69.0751 143.06 69.143L144.514 69.3247C144.735 69.3524 144.917 69.5 144.99 69.7102C145.063 69.9203 145.012 70.1493 144.855 70.3077L143.827 71.3513C143.442 71.7411 143.275 72.2947 143.378 72.8321L143.654 74.2712C143.693 74.4705 143.627 74.6709 143.478 74.8075C143.37 74.9057 143.235 74.9591 143.097 74.9619Z" fill="url(#paint34_linear_1898_39314)"/>
<path opacity="0.51" d="M153.682 65.344L154.984 67.8546C155.103 68.084 155.327 68.2402 155.584 68.2723L158.39 68.623C159.036 68.7036 159.308 69.4899 158.852 69.9533L156.866 71.9673C156.685 72.1513 156.606 72.4129 156.654 72.6666L157.188 75.4439C157.311 76.083 156.647 76.5854 156.066 76.2941L153.537 75.0284C153.306 74.9127 153.032 74.9182 152.806 75.043L150.33 76.4088C149.76 76.7229 149.077 76.2474 149.174 75.604L149.597 72.8077C149.635 72.5522 149.546 72.2941 149.357 72.1175L147.293 70.1843C146.818 69.7395 147.059 68.9431 147.701 68.8366L150.491 68.3743C150.746 68.332 150.964 68.1671 151.074 67.9331L152.275 65.3726C152.551 64.7829 153.382 64.7664 153.682 65.344Z" fill="white"/>
<path d="M156.423 75.9043C156.375 75.9052 156.326 75.8937 156.278 75.8698L153.749 74.604C153.567 74.5129 153.364 74.467 153.16 74.471C152.957 74.4751 152.755 74.5292 152.577 74.6274L150.101 75.9931C150.054 76.0189 150.006 76.0325 149.957 76.0334C149.867 76.0352 149.776 75.9939 149.714 75.9234C149.672 75.8753 149.625 75.7932 149.643 75.6745L150.066 72.8782C150.128 72.4682 149.984 72.0543 149.681 71.771L147.617 69.8378C147.49 69.7186 147.516 69.5763 147.532 69.5208C147.549 69.4652 147.607 69.3327 147.779 69.3042L150.569 68.8418C150.978 68.774 151.327 68.5095 151.503 68.1341L152.704 65.5737C152.778 65.4158 152.921 65.396 152.979 65.395C153.037 65.3938 153.181 65.4078 153.261 65.5627L154.563 68.0732C154.754 68.4412 155.114 68.6916 155.525 68.743L158.331 69.0937C158.504 69.1153 158.567 69.2454 158.586 69.3003C158.605 69.3552 158.637 69.4962 158.514 69.6204L156.529 71.6343C156.238 71.9296 156.111 72.349 156.189 72.7561L156.722 75.5333C156.745 75.6512 156.702 75.7352 156.662 75.7849C156.602 75.8577 156.513 75.9026 156.423 75.9043Z" fill="url(#paint35_linear_1898_39314)"/>
<path d="M150.46 72.1926C150.429 72.1932 150.401 72.1746 150.391 72.1448C150.303 71.8912 150.153 71.6602 149.957 71.4766L149.172 70.7411C149.143 70.7143 149.141 70.6693 149.168 70.6406C149.195 70.6119 149.24 70.6104 149.269 70.6372L150.054 71.3727C150.267 71.572 150.43 71.8229 150.525 72.0981C150.538 72.1352 150.519 72.1757 150.482 72.1887C150.474 72.1913 150.467 72.1925 150.46 72.1926Z" fill="url(#paint36_linear_1898_39314)"/>
<path d="M152.018 74.466C151.992 74.4666 151.967 74.4531 151.954 74.4293C151.935 74.3949 151.948 74.3515 151.982 74.3326L152.314 74.1498C152.569 74.009 152.858 73.9316 153.149 73.9258C153.441 73.9201 153.732 73.9859 153.993 74.1164C154.028 74.134 154.042 74.1767 154.025 74.2118C154.007 74.247 153.965 74.2612 153.929 74.2436C153.689 74.1235 153.421 74.0627 153.152 74.0681C152.884 74.0735 152.618 74.1447 152.382 74.2744L152.051 74.4572C152.04 74.4629 152.029 74.4658 152.018 74.466Z" fill="url(#paint37_linear_1898_39314)"/>
<path d="M155.512 74.9619C155.456 74.963 155.4 74.9558 155.345 74.9401C155.307 74.9294 155.285 74.8901 155.296 74.8522C155.306 74.8145 155.346 74.7925 155.384 74.8032C155.528 74.8443 155.683 74.8067 155.797 74.7025C155.911 74.598 155.959 74.4505 155.93 74.2979L155.653 72.8588C155.541 72.2752 155.723 71.6744 156.141 71.2512L157.169 70.2076C157.289 70.0862 157.327 69.9177 157.271 69.7566C157.215 69.5956 157.081 69.4868 156.912 69.4658L155.458 69.284C154.868 69.2104 154.353 68.8515 154.079 68.324L153.405 67.0231C153.326 66.8717 153.178 66.7835 153.007 66.7869C152.837 66.7903 152.692 66.8845 152.619 67.0388L151.997 68.3656C151.745 68.9036 151.244 69.2827 150.658 69.3799L149.212 69.6196C149.126 69.6339 149.048 69.6717 148.986 69.729C148.958 69.7557 148.913 69.7541 148.886 69.7252C148.859 69.6963 148.861 69.6514 148.89 69.6247C148.972 69.5483 149.075 69.498 149.189 69.4792L150.635 69.2395C151.175 69.15 151.636 68.8008 151.868 68.3052L152.491 66.9784C152.585 66.777 152.782 66.6492 153.004 66.6448C153.227 66.6403 153.428 66.7603 153.531 66.9578L154.206 68.2587C154.458 68.7445 154.932 69.0751 155.475 69.143L156.93 69.3247C157.15 69.3524 157.333 69.5 157.406 69.7102C157.478 69.9203 157.427 70.1493 157.271 70.3077L156.242 71.3513C155.858 71.7411 155.69 72.2947 155.793 72.8321L156.07 74.2712C156.108 74.4705 156.042 74.6709 155.893 74.8075C155.785 74.9057 155.65 74.9591 155.512 74.9619Z" fill="url(#paint38_linear_1898_39314)"/>
<path opacity="0.51" d="M166.097 65.344L167.399 67.8546C167.518 68.084 167.742 68.2402 167.999 68.2723L170.805 68.623C171.451 68.7036 171.724 69.4899 171.267 69.9533L169.282 71.9673C169.1 72.1513 169.021 72.4129 169.07 72.6666L169.603 75.4439C169.726 76.083 169.063 76.5854 168.481 76.2941L165.952 75.0284C165.721 74.9127 165.448 74.9182 165.221 75.043L162.745 76.4088C162.175 76.7229 161.492 76.2474 161.59 75.604L162.012 72.8077C162.051 72.5522 161.961 72.2941 161.772 72.1175L159.708 70.1843C159.233 69.7395 159.475 68.9431 160.116 68.8366L162.906 68.3743C163.161 68.332 163.379 68.1671 163.489 67.9331L164.69 65.3726C164.966 64.7829 165.798 64.7664 166.097 65.344Z" fill="white"/>
<path d="M168.838 75.9043C168.79 75.9052 168.741 75.8937 168.693 75.8698L166.164 74.604C165.982 74.5129 165.779 74.467 165.575 74.471C165.372 74.4751 165.17 74.5292 164.992 74.6274L162.516 75.9931C162.469 76.0189 162.421 76.0325 162.372 76.0334C162.282 76.0352 162.191 75.9939 162.129 75.9234C162.087 75.8753 162.04 75.7932 162.058 75.6745L162.481 72.8782C162.543 72.4682 162.399 72.0543 162.096 71.771L160.032 69.8378C159.905 69.7186 159.93 69.5763 159.947 69.5208C159.964 69.4652 160.022 69.3327 160.194 69.3042L162.984 68.8418C163.393 68.774 163.742 68.5095 163.918 68.1341L165.119 65.5737C165.193 65.4158 165.336 65.396 165.394 65.395C165.452 65.3938 165.596 65.4078 165.676 65.5627L166.978 68.0732C167.169 68.4412 167.529 68.6916 167.94 68.743L170.746 69.0937C170.919 69.1153 170.982 69.2454 171.001 69.3003C171.02 69.3552 171.051 69.4962 170.929 69.6204L168.944 71.6343C168.653 71.9296 168.525 72.349 168.604 72.7561L169.137 75.5333C169.16 75.6512 169.117 75.7352 169.077 75.7849C169.017 75.8577 168.928 75.9026 168.838 75.9043Z" fill="url(#paint39_linear_1898_39314)"/>
<path d="M162.875 72.1926C162.845 72.1932 162.816 72.1746 162.806 72.1448C162.718 71.8912 162.568 71.6602 162.372 71.4766L161.586 70.7411C161.558 70.7143 161.556 70.6693 161.583 70.6406C161.61 70.6119 161.655 70.6104 161.684 70.6372L162.469 71.3727C162.682 71.572 162.845 71.8229 162.94 72.0981C162.953 72.1352 162.934 72.1757 162.897 72.1887C162.889 72.1913 162.882 72.1925 162.875 72.1926Z" fill="url(#paint40_linear_1898_39314)"/>
<path d="M164.433 74.466C164.408 74.4666 164.382 74.4531 164.369 74.4293C164.35 74.3949 164.363 74.3515 164.397 74.3326L164.729 74.1498C164.984 74.009 165.273 73.9316 165.564 73.9258C165.856 73.9201 166.147 73.9859 166.408 74.1164C166.443 74.134 166.458 74.1767 166.44 74.2118C166.422 74.247 166.38 74.2612 166.345 74.2436C166.104 74.1235 165.836 74.0627 165.567 74.0681C165.299 74.0735 165.033 74.1447 164.797 74.2744L164.466 74.4572C164.455 74.4629 164.444 74.4658 164.433 74.466Z" fill="url(#paint41_linear_1898_39314)"/>
<path d="M167.927 74.9619C167.871 74.963 167.815 74.9558 167.76 74.9401C167.722 74.9294 167.7 74.8901 167.711 74.8522C167.721 74.8145 167.761 74.7925 167.798 74.8032C167.943 74.8443 168.098 74.8067 168.212 74.7025C168.326 74.598 168.374 74.4505 168.345 74.2979L168.068 72.8588C167.956 72.2752 168.138 71.6744 168.555 71.2512L169.584 70.2076C169.704 70.0862 169.742 69.9177 169.686 69.7566C169.63 69.5956 169.496 69.4868 169.327 69.4658L167.873 69.284C167.283 69.2104 166.768 68.8515 166.494 68.324L165.82 67.0231C165.741 66.8717 165.592 66.7835 165.422 66.7869C165.252 66.7903 165.107 66.8845 165.034 67.0388L164.412 68.3656C164.16 68.9036 163.659 69.2827 163.073 69.3799L161.627 69.6196C161.541 69.6339 161.463 69.6717 161.401 69.729C161.373 69.7557 161.328 69.7541 161.301 69.7252C161.274 69.6963 161.276 69.6514 161.305 69.6247C161.387 69.5483 161.49 69.498 161.604 69.4792L163.05 69.2395C163.59 69.15 164.051 68.8008 164.283 68.3052L164.906 66.9784C165 66.777 165.197 66.6492 165.419 66.6448C165.642 66.6403 165.844 66.7603 165.946 66.9578L166.621 68.2587C166.873 68.7445 167.347 69.0751 167.891 69.143L169.345 69.3247C169.565 69.3524 169.748 69.5 169.821 69.7102C169.894 69.9203 169.842 70.1493 169.686 70.3077L168.657 71.3513C168.273 71.7411 168.105 72.2947 168.208 72.8321L168.485 74.2712C168.523 74.4705 168.457 74.6709 168.308 74.8075C168.2 74.9057 168.066 74.9591 167.927 74.9619Z" fill="url(#paint42_linear_1898_39314)"/>
<path opacity="0.51" d="M178.512 65.344L179.814 67.8546C179.933 68.084 180.157 68.2402 180.414 68.2723L183.22 68.623C183.866 68.7036 184.139 69.4899 183.682 69.9533L181.696 71.9673C181.515 72.1513 181.436 72.4129 181.485 72.6666L182.018 75.4439C182.141 76.083 181.478 76.5854 180.896 76.2941L178.367 75.0284C178.136 74.9127 177.862 74.9182 177.636 75.043L175.16 76.4088C174.59 76.7229 173.907 76.2474 174.004 75.604L174.427 72.8077C174.465 72.5522 174.376 72.2941 174.187 72.1175L172.123 70.1843C171.648 69.7395 171.889 68.9431 172.531 68.8366L175.321 68.3743C175.576 68.332 175.794 68.1671 175.904 67.9331L177.105 65.3726C177.381 64.7829 178.213 64.7664 178.512 65.344Z" fill="white"/>
<path d="M181.253 75.9043C181.205 75.9052 181.156 75.8937 181.108 75.8698L178.579 74.604C178.397 74.5129 178.194 74.467 177.99 74.471C177.787 74.4751 177.585 74.5292 177.407 74.6274L174.931 75.9931C174.884 76.0189 174.836 76.0325 174.787 76.0334C174.697 76.0352 174.606 75.9939 174.544 75.9234C174.502 75.8753 174.455 75.7932 174.473 75.6745L174.896 72.8782C174.958 72.4682 174.814 72.0543 174.511 71.771L172.447 69.8378C172.32 69.7186 172.345 69.5763 172.362 69.5208C172.379 69.4652 172.437 69.3327 172.609 69.3042L175.399 68.8418C175.808 68.774 176.157 68.5095 176.333 68.1341L177.534 65.5737C177.608 65.4158 177.751 65.396 177.809 65.395C177.867 65.3938 178.011 65.4078 178.091 65.5627L179.393 68.0732C179.584 68.4412 179.944 68.6916 180.355 68.743L183.161 69.0937C183.334 69.1153 183.397 69.2454 183.416 69.3003C183.436 69.3552 183.467 69.4962 183.344 69.6204L181.359 71.6343C181.068 71.9296 180.941 72.349 181.019 72.7561L181.553 75.5333C181.575 75.6512 181.532 75.7352 181.492 75.7849C181.432 75.8577 181.343 75.9026 181.253 75.9043Z" fill="url(#paint43_linear_1898_39314)"/>
<path d="M175.289 72.1926C175.259 72.1932 175.231 72.1746 175.221 72.1448C175.133 71.8912 174.983 71.6602 174.787 71.4766L174.001 70.7411C173.973 70.7143 173.971 70.6693 173.998 70.6406C174.025 70.6119 174.07 70.6104 174.099 70.6372L174.884 71.3727C175.097 71.572 175.26 71.8229 175.355 72.0981C175.368 72.1352 175.349 72.1757 175.311 72.1887C175.304 72.1913 175.297 72.1925 175.289 72.1926Z" fill="url(#paint44_linear_1898_39314)"/>
<path d="M176.848 74.466C176.822 74.4666 176.797 74.4531 176.784 74.4293C176.765 74.3949 176.778 74.3515 176.812 74.3326L177.144 74.1498C177.399 74.009 177.688 73.9316 177.979 73.9258C178.271 73.9201 178.562 73.9859 178.823 74.1164C178.858 74.134 178.873 74.1767 178.855 74.2118C178.837 74.247 178.795 74.2612 178.76 74.2436C178.519 74.1235 178.251 74.0627 177.982 74.0681C177.714 74.0735 177.448 74.1447 177.212 74.2744L176.881 74.4572C176.871 74.4629 176.859 74.4658 176.848 74.466Z" fill="url(#paint45_linear_1898_39314)"/>
<path d="M180.342 74.9619C180.286 74.963 180.23 74.9558 180.175 74.9401C180.137 74.9294 180.115 74.8901 180.126 74.8522C180.136 74.8145 180.176 74.7925 180.214 74.8032C180.358 74.8443 180.513 74.8067 180.627 74.7025C180.741 74.598 180.789 74.4505 180.76 74.2979L180.483 72.8588C180.371 72.2752 180.553 71.6744 180.97 71.2512L181.999 70.2076C182.119 70.0862 182.157 69.9177 182.101 69.7566C182.045 69.5956 181.911 69.4868 181.742 69.4658L180.288 69.284C179.698 69.2104 179.183 68.8515 178.909 68.324L178.235 67.0231C178.156 66.8717 178.007 66.7835 177.837 66.7869C177.667 66.7903 177.522 66.8845 177.449 67.0388L176.827 68.3656C176.575 68.9036 176.074 69.2827 175.488 69.3799L174.042 69.6196C173.956 69.6339 173.878 69.6717 173.816 69.729C173.788 69.7557 173.743 69.7541 173.716 69.7252C173.689 69.6963 173.691 69.6514 173.72 69.6247C173.802 69.5483 173.905 69.498 174.019 69.4792L175.465 69.2395C176.005 69.15 176.466 68.8008 176.698 68.3052L177.321 66.9784C177.415 66.777 177.612 66.6492 177.834 66.6448C178.057 66.6403 178.259 66.7603 178.361 66.9578L179.036 68.2587C179.288 68.7445 179.762 69.0751 180.305 69.143L181.76 69.3247C181.98 69.3524 182.163 69.5 182.236 69.7102C182.309 69.9203 182.257 70.1493 182.101 70.3077L181.072 71.3513C180.688 71.7411 180.52 72.2947 180.623 72.8321L180.9 74.2712C180.938 74.4705 180.872 74.6709 180.723 74.8075C180.615 74.9057 180.481 74.9591 180.342 74.9619Z" fill="url(#paint46_linear_1898_39314)"/>
<path d="M235.146 66.4309C246.03 70.3287 256.587 80.0863 255.118 92.5431C253.867 103.136 241.712 106.263 234.339 107.379C232.282 107.691 230.413 108.745 229.079 110.34C225.885 114.158 219.044 120.522 211.536 116.286C210.989 115.977 211.234 115.137 211.861 115.162C213.857 115.241 216.69 114.954 218.617 113.079C221.243 110.524 220.292 106.092 216.899 104.711C210.477 102.099 198.36 94.9856 199.929 78.8657C202.05 57.0651 235.146 66.4309 235.146 66.4309Z" fill="#BDD0FB"/>
<path d="M228.519 83.8178C228.519 83.8178 227.983 76.5291 220.718 77.7338C213.835 78.875 216.039 88.2917 225.736 94.2844C226.787 94.9341 228.089 95.0296 229.227 94.546C233.484 92.7356 243.401 87.5509 237.931 80.3505C234.399 75.7006 228.519 83.8178 228.519 83.8178Z" fill="url(#paint47_linear_1898_39314)"/>
<path d="M250.949 83.3704C250.739 83.3704 250.54 83.2471 250.452 83.0416C248.33 78.0472 243.091 71.4061 230.18 68.1305C229.892 68.0572 229.717 67.7634 229.79 67.4746C229.863 67.1858 230.157 67.0109 230.446 67.0842C237.809 68.9522 247.428 73.1636 251.446 82.6194C251.563 82.8937 251.435 83.2107 251.16 83.3273C251.091 83.3566 251.02 83.3704 250.949 83.3704Z" fill="url(#paint48_linear_1898_39314)"/>
<path d="M252.546 93.0831C252.52 93.0831 252.494 93.081 252.467 93.0773C252.172 93.0343 251.968 92.7607 252.011 92.4659C252.013 92.4514 252.19 91.1801 252.012 89.2335C251.986 88.9366 252.204 88.6739 252.501 88.6469C252.798 88.6189 253.06 88.8386 253.088 89.1355C253.278 91.2215 253.088 92.5649 253.079 92.6211C253.04 92.8895 252.81 93.0831 252.546 93.0831Z" fill="url(#paint49_linear_1898_39314)"/>
<path d="M46.2688 46.6294L49.2508 71.4319C49.437 72.9803 50.984 74.1768 52.8713 74.2321L98.1754 75.5579C100.06 75.613 101.703 74.5141 102.026 72.9833C103.195 67.4462 105.556 54.5273 104.175 46.102C103.942 44.6833 102.576 43.573 100.849 43.4142C82.719 41.748 65.4676 41.4665 49.5204 43.2406C47.5058 43.4647 46.0684 44.9628 46.2688 46.6294Z" fill="#91B3FA"/>
<path d="M49.1357 47.9154L51.8827 70.7627C52.0543 72.1891 53.4793 73.2913 55.2178 73.3421L96.9506 74.5633C98.6866 74.6141 100.2 73.6018 100.498 72.1917C101.575 67.0911 103.75 55.1905 102.477 47.4294C102.263 46.1226 101.004 45.0998 99.4135 44.9536C82.7126 43.4188 66.8211 43.1595 52.131 44.7936C50.2753 45 48.9511 46.38 49.1357 47.9154Z" fill="#BDD0FB"/>
<path d="M98.7293 61.0534C98.6575 61.0534 98.5848 61.047 98.5117 61.0338C84.615 58.521 56.4244 59.0055 56.1412 59.0107C56.1336 59.011 56.1261 59.011 56.1186 59.011C55.4581 59.011 54.9168 58.4818 54.9048 57.8188C54.8924 57.1481 55.4262 56.5945 56.0967 56.5823C57.2622 56.5605 84.8104 56.088 98.944 58.6437C99.6039 58.7631 100.042 59.3948 99.9229 60.0549C99.8169 60.6418 99.3054 61.0533 98.7293 61.0534Z" fill="url(#paint50_linear_1898_39314)"/>
<path d="M86.8286 71.3521C86.7306 71.3521 86.6313 71.3403 86.5321 71.3153C76.5896 68.8211 56.353 69.3043 56.1499 69.3094C55.4931 69.3251 54.9221 68.7968 54.9049 68.126C54.8879 67.4555 55.4176 66.8981 56.0883 66.8811C56.9314 66.8596 76.8624 66.3852 87.1235 68.9594C87.774 69.1227 88.1691 69.7823 88.0059 70.4329C87.8673 70.9842 87.3723 71.3521 86.8286 71.3521Z" fill="url(#paint51_linear_1898_39314)"/>
<path d="M98.7293 66.609C98.6575 66.609 98.5848 66.6025 98.5117 66.5894C84.6127 64.0764 56.4246 64.5614 56.1412 64.5664C55.4725 64.5914 54.917 64.0451 54.9048 63.3744C54.8924 62.7038 55.4262 62.1502 56.0967 62.138C57.2622 62.1162 84.8104 61.6437 98.944 64.1992C99.6039 64.3186 100.042 64.9504 99.9229 65.6104C99.8169 66.1972 99.3053 66.6088 98.7293 66.609Z" fill="url(#paint52_linear_1898_39314)"/>
<path d="M27.9455 21.124L31.2589 54.5706C31.4658 56.6587 33.1846 58.2722 35.2817 58.3466L85.6191 60.1343C87.7131 60.2087 89.5389 58.7269 89.898 56.6626C91.1968 49.1957 93.8201 31.7743 92.2849 20.4127C92.0264 18.4996 90.5084 17.0024 88.5899 16.7883C68.4455 14.5413 49.2774 14.1618 31.5584 16.5541C29.3201 16.8562 27.7229 18.8765 27.9455 21.124Z" fill="#91B3FA"/>
<path d="M31.131 22.858L34.1833 53.668C34.3738 55.5915 35.9571 57.0777 37.8889 57.1463L84.2582 58.7932C86.187 58.8617 87.869 57.4966 88.1998 55.5951C89.3962 48.7169 91.8127 32.6687 90.3985 22.2028C90.1604 20.4404 88.762 19.0613 86.9947 18.8641C68.4383 16.7943 50.7813 16.4447 34.4589 18.6483C32.3972 18.9268 30.9259 20.7876 31.131 22.858Z" fill="#BDD0FB"/>
<path d="M40.1492 30.2427C39.2423 30.2427 38.4738 29.5444 38.402 28.6248C38.3266 27.659 39.0485 26.8148 40.0144 26.7393C41.4007 26.6309 74.0505 24.0986 81.1679 25.0503C82.1282 25.1788 82.8027 26.0614 82.6743 27.0216C82.5457 27.9819 81.6628 28.6559 80.703 28.528C73.949 27.6245 40.6234 30.2109 40.2874 30.2372C40.2413 30.2409 40.195 30.2427 40.1492 30.2427Z" fill="url(#paint53_linear_1898_39314)"/>
<path d="M40.6215 38.8836C39.6865 38.8836 38.9097 38.146 38.87 37.2031C38.8292 36.2352 39.5809 35.4173 40.549 35.3766L72.4832 34.0313C73.4502 33.99 74.2691 34.7421 74.3097 35.7103C74.3505 36.6782 73.5989 37.4961 72.6309 37.5368L40.6966 38.8821C40.6715 38.8832 40.6463 38.8836 40.6215 38.8836Z" fill="url(#paint54_linear_1898_39314)"/>
<path d="M41.0214 46.2033C40.0703 46.2033 39.2892 45.4429 39.2684 44.4872C39.2474 43.5185 40.0155 42.7162 40.9841 42.6952L55.1565 42.3875C56.1239 42.3689 56.9274 43.1348 56.9485 44.1034C56.9694 45.072 56.2012 45.8744 55.2326 45.8954L41.0602 46.2031C41.0473 46.2032 41.0343 46.2033 41.0214 46.2033Z" fill="url(#paint55_linear_1898_39314)"/>
<defs>
<linearGradient id="paint0_linear_1898_39314" x1="293.682" y1="69.4959" x2="-1.23194" y2="97.4158" gradientUnits="userSpaceOnUse">
<stop stop-color="#DAE3FE"/>
<stop offset="1" stop-color="#E9EFFD"/>
</linearGradient>
<linearGradient id="paint1_linear_1898_39314" x1="283.405" y1="69.259" x2="292.403" y2="69.259" gradientUnits="userSpaceOnUse">
<stop stop-color="#DAE3FE"/>
<stop offset="1" stop-color="#E9EFFD"/>
</linearGradient>
<linearGradient id="paint2_linear_1898_39314" x1="24.3213" y1="116.385" x2="263.291" y2="116.385" gradientUnits="userSpaceOnUse">
<stop stop-color="#09005D"/>
<stop offset="1" stop-color="#1A0F91"/>
</linearGradient>
<linearGradient id="paint3_linear_1898_39314" x1="106.397" y1="162.222" x2="116.924" y2="162.222" gradientUnits="userSpaceOnUse">
<stop stop-color="#FE7062"/>
<stop offset="1" stop-color="#FF928E"/>
</linearGradient>
<linearGradient id="paint4_linear_1898_39314" x1="130.281" y1="155.658" x2="124.144" y2="161.693" gradientUnits="userSpaceOnUse">
<stop stop-color="#FE7062"/>
<stop offset="1" stop-color="#FF928E"/>
</linearGradient>
<linearGradient id="paint5_linear_1898_39314" x1="93.6853" y1="155.658" x2="99.8228" y2="161.693" gradientUnits="userSpaceOnUse">
<stop stop-color="#FE7062"/>
<stop offset="1" stop-color="#FF928E"/>
</linearGradient>
<linearGradient id="paint6_linear_1898_39314" x1="45.1783" y1="151.752" x2="127.195" y2="151.752" gradientUnits="userSpaceOnUse">
<stop stop-color="#FE7062"/>
<stop offset="1" stop-color="#FF928E"/>
</linearGradient>
<linearGradient id="paint7_linear_1898_39314" x1="123.331" y1="152.037" x2="131.882" y2="152.037" gradientUnits="userSpaceOnUse">
<stop stop-color="#FE7062"/>
<stop offset="1" stop-color="#FF928E"/>
</linearGradient>
<linearGradient id="paint8_linear_1898_39314" x1="210.1" y1="26.6376" x2="211.251" y2="26.6376" gradientUnits="userSpaceOnUse">
<stop stop-color="#DAE3FE"/>
<stop offset="1" stop-color="#E9EFFD"/>
</linearGradient>
<linearGradient id="paint9_linear_1898_39314" x1="203.911" y1="37.1682" x2="211.553" y2="37.1682" gradientUnits="userSpaceOnUse">
<stop stop-color="#DAE3FE"/>
<stop offset="1" stop-color="#E9EFFD"/>
</linearGradient>
<linearGradient id="paint10_linear_1898_39314" x1="178.856" y1="34.8848" x2="179.502" y2="34.8848" gradientUnits="userSpaceOnUse">
<stop stop-color="#DAE3FE"/>
<stop offset="1" stop-color="#E9EFFD"/>
</linearGradient>
<linearGradient id="paint11_linear_1898_39314" x1="178.923" y1="23.8501" x2="188.623" y2="23.8501" gradientUnits="userSpaceOnUse">
<stop stop-color="#DAE3FE"/>
<stop offset="1" stop-color="#E9EFFD"/>
</linearGradient>
<linearGradient id="paint12_linear_1898_39314" x1="190.761" y1="31.5493" x2="200.073" y2="31.5493" gradientUnits="userSpaceOnUse">
<stop stop-color="#DAE3FE"/>
<stop offset="1" stop-color="#E9EFFD"/>
</linearGradient>
<linearGradient id="paint13_linear_1898_39314" x1="71.0346" y1="86.7779" x2="138.908" y2="86.7779" gradientUnits="userSpaceOnUse">
<stop stop-color="#09005D"/>
<stop offset="1" stop-color="#1A0F91"/>
</linearGradient>
<linearGradient id="paint14_linear_1898_39314" x1="193.152" y1="94.3345" x2="167.183" y2="122.719" gradientUnits="userSpaceOnUse">
<stop stop-color="#E1473D"/>
<stop offset="1" stop-color="#E9605A"/>
</linearGradient>
<linearGradient id="paint15_linear_1898_39314" x1="173.943" y1="97.9498" x2="169.629" y2="104.162" gradientUnits="userSpaceOnUse">
<stop stop-color="#E1473D"/>
<stop offset="1" stop-color="#E9605A"/>
</linearGradient>
<linearGradient id="paint16_linear_1898_39314" x1="51.332" y1="91.0935" x2="58.117" y2="101.346" gradientUnits="userSpaceOnUse">
<stop stop-color="#E1473D"/>
<stop offset="1" stop-color="#E9605A"/>
</linearGradient>
<linearGradient id="paint17_linear_1898_39314" x1="128.853" y1="96.514" x2="116.729" y2="86.7299" gradientUnits="userSpaceOnUse">
<stop stop-color="#E1473D"/>
<stop offset="1" stop-color="#E9605A"/>
</linearGradient>
<linearGradient id="paint18_linear_1898_39314" x1="103.071" y1="103.707" x2="109.452" y2="97.3259" gradientUnits="userSpaceOnUse">
<stop stop-color="#E1473D"/>
<stop offset="1" stop-color="#E9605A"/>
</linearGradient>
<linearGradient id="paint19_linear_1898_39314" x1="101.057" y1="95.6066" x2="55.6932" y2="136.273" gradientUnits="userSpaceOnUse">
<stop stop-color="#09005D"/>
<stop offset="1" stop-color="#1A0F91"/>
</linearGradient>
<linearGradient id="paint20_linear_1898_39314" x1="84.8423" y1="102.159" x2="55.0427" y2="150.984" gradientUnits="userSpaceOnUse">
<stop stop-color="#E1473D"/>
<stop offset="1" stop-color="#E9605A"/>
</linearGradient>
<linearGradient id="paint21_linear_1898_39314" x1="144.681" y1="97.0825" x2="160.92" y2="139.494" gradientUnits="userSpaceOnUse">
<stop stop-color="#09005D"/>
<stop offset="1" stop-color="#1A0F91"/>
</linearGradient>
<linearGradient id="paint22_linear_1898_39314" x1="165.058" y1="99.8353" x2="135.259" y2="150.724" gradientUnits="userSpaceOnUse">
<stop stop-color="#E1473D"/>
<stop offset="1" stop-color="#E9605A"/>
</linearGradient>
<linearGradient id="paint23_linear_1898_39314" x1="159.463" y1="80.5123" x2="157.718" y2="97.5572" gradientUnits="userSpaceOnUse">
<stop stop-color="#FE7062"/>
<stop offset="1" stop-color="#FF928E"/>
</linearGradient>
<linearGradient id="paint24_linear_1898_39314" x1="81.2542" y1="72.5067" x2="79.5095" y2="89.5516" gradientUnits="userSpaceOnUse">
<stop stop-color="#FE7062"/>
<stop offset="1" stop-color="#FF928E"/>
</linearGradient>
<linearGradient id="paint25_linear_1898_39314" x1="83.6244" y1="72.7612" x2="82.6849" y2="84.3034" gradientUnits="userSpaceOnUse">
<stop stop-color="#FF928E"/>
<stop offset="1" stop-color="#FEB3B1"/>
</linearGradient>
<linearGradient id="paint26_linear_1898_39314" x1="147.182" y1="77.9343" x2="146.242" y2="89.4766" gradientUnits="userSpaceOnUse">
<stop stop-color="#FF928E"/>
<stop offset="1" stop-color="#FEB3B1"/>
</linearGradient>
<linearGradient id="paint27_linear_1898_39314" x1="131.087" y1="66.6046" x2="121.202" y2="82.2296" gradientUnits="userSpaceOnUse">
<stop stop-color="#FE7062"/>
<stop offset="1" stop-color="#FF928E"/>
</linearGradient>
<linearGradient id="paint28_linear_1898_39314" x1="122.695" y1="59.8366" x2="124.104" y2="66.8827" gradientUnits="userSpaceOnUse">
<stop stop-color="#FF928E"/>
<stop offset="1" stop-color="#FEB3B1"/>
</linearGradient>
<linearGradient id="paint29_linear_1898_39314" x1="125.17" y1="59.3419" x2="126.579" y2="66.3879" gradientUnits="userSpaceOnUse">
<stop stop-color="#FF928E"/>
<stop offset="1" stop-color="#FEB3B1"/>
</linearGradient>
<linearGradient id="paint30_linear_1898_39314" x1="124.036" y1="70.8032" x2="132.608" y2="70.8032" gradientUnits="userSpaceOnUse">
<stop stop-color="#FF928E"/>
<stop offset="1" stop-color="#FEB3B1"/>
</linearGradient>
<linearGradient id="paint31_linear_1898_39314" x1="143.502" y1="66.6046" x2="133.617" y2="82.2296" gradientUnits="userSpaceOnUse">
<stop stop-color="#FE7062"/>
<stop offset="1" stop-color="#FF928E"/>
</linearGradient>
<linearGradient id="paint32_linear_1898_39314" x1="143.338" y1="50.7068" x2="141.325" y2="57.753" gradientUnits="userSpaceOnUse">
<stop stop-color="#FF928E"/>
<stop offset="1" stop-color="#FEB3B1"/>
</linearGradient>
<linearGradient id="paint33_linear_1898_39314" x1="147.011" y1="51.7565" x2="144.998" y2="58.8026" gradientUnits="userSpaceOnUse">
<stop stop-color="#FF928E"/>
<stop offset="1" stop-color="#FEB3B1"/>
</linearGradient>
<linearGradient id="paint34_linear_1898_39314" x1="145.983" y1="51.4626" x2="143.97" y2="58.5087" gradientUnits="userSpaceOnUse">
<stop stop-color="#FF928E"/>
<stop offset="1" stop-color="#FEB3B1"/>
</linearGradient>
<linearGradient id="paint35_linear_1898_39314" x1="155.917" y1="66.6046" x2="146.032" y2="82.2296" gradientUnits="userSpaceOnUse">
<stop stop-color="#FE7062"/>
<stop offset="1" stop-color="#FF928E"/>
</linearGradient>
<linearGradient id="paint36_linear_1898_39314" x1="153.203" y1="51.5972" x2="151.995" y2="58.7104" gradientUnits="userSpaceOnUse">
<stop stop-color="#FF928E"/>
<stop offset="1" stop-color="#FEB3B1"/>
</linearGradient>
<linearGradient id="paint37_linear_1898_39314" x1="156.74" y1="52.1981" x2="155.532" y2="59.3113" gradientUnits="userSpaceOnUse">
<stop stop-color="#FF928E"/>
<stop offset="1" stop-color="#FEB3B1"/>
</linearGradient>
<linearGradient id="paint38_linear_1898_39314" x1="156.16" y1="52.0993" x2="154.952" y2="59.2126" gradientUnits="userSpaceOnUse">
<stop stop-color="#FF928E"/>
<stop offset="1" stop-color="#FEB3B1"/>
</linearGradient>
<linearGradient id="paint39_linear_1898_39314" x1="168.332" y1="66.6046" x2="158.447" y2="82.2296" gradientUnits="userSpaceOnUse">
<stop stop-color="#FE7062"/>
<stop offset="1" stop-color="#FF928E"/>
</linearGradient>
<linearGradient id="paint40_linear_1898_39314" x1="160.788" y1="57.1864" x2="161.459" y2="63.6957" gradientUnits="userSpaceOnUse">
<stop stop-color="#FF928E"/>
<stop offset="1" stop-color="#FEB3B1"/>
</linearGradient>
<linearGradient id="paint41_linear_1898_39314" x1="163.611" y1="56.8957" x2="164.282" y2="63.4049" gradientUnits="userSpaceOnUse">
<stop stop-color="#FF928E"/>
<stop offset="1" stop-color="#FEB3B1"/>
</linearGradient>
<linearGradient id="paint42_linear_1898_39314" x1="164.233" y1="56.8312" x2="164.904" y2="63.3405" gradientUnits="userSpaceOnUse">
<stop stop-color="#FF928E"/>
<stop offset="1" stop-color="#FEB3B1"/>
</linearGradient>
<linearGradient id="paint43_linear_1898_39314" x1="180.747" y1="66.6046" x2="170.862" y2="82.2296" gradientUnits="userSpaceOnUse">
<stop stop-color="#FE7062"/>
<stop offset="1" stop-color="#FF928E"/>
</linearGradient>
<linearGradient id="paint44_linear_1898_39314" x1="175.265" y1="48.9131" x2="174.996" y2="59.0461" gradientUnits="userSpaceOnUse">
<stop stop-color="#FF928E"/>
<stop offset="1" stop-color="#FEB3B1"/>
</linearGradient>
<linearGradient id="paint45_linear_1898_39314" x1="178.489" y1="48.9987" x2="178.22" y2="59.1317" gradientUnits="userSpaceOnUse">
<stop stop-color="#FF928E"/>
<stop offset="1" stop-color="#FEB3B1"/>
</linearGradient>
<linearGradient id="paint46_linear_1898_39314" x1="178.533" y1="48.9996" x2="178.265" y2="59.1326" gradientUnits="userSpaceOnUse">
<stop stop-color="#FF928E"/>
<stop offset="1" stop-color="#FEB3B1"/>
</linearGradient>
<linearGradient id="paint47_linear_1898_39314" x1="216.717" y1="86.225" x2="239.537" y2="86.225" gradientUnits="userSpaceOnUse">
<stop stop-color="#DAE3FE"/>
<stop offset="1" stop-color="#E9EFFD"/>
</linearGradient>
<linearGradient id="paint48_linear_1898_39314" x1="229.773" y1="75.219" x2="251.489" y2="75.219" gradientUnits="userSpaceOnUse">
<stop stop-color="#DAE3FE"/>
<stop offset="1" stop-color="#E9EFFD"/>
</linearGradient>
<linearGradient id="paint49_linear_1898_39314" x1="252.005" y1="90.8637" x2="253.172" y2="90.8637" gradientUnits="userSpaceOnUse">
<stop stop-color="#DAE3FE"/>
<stop offset="1" stop-color="#E9EFFD"/>
</linearGradient>
<linearGradient id="paint50_linear_1898_39314" x1="54.9044" y1="58.7939" x2="99.9426" y2="58.7939" gradientUnits="userSpaceOnUse">
<stop stop-color="#DAE3FE"/>
<stop offset="1" stop-color="#E9EFFD"/>
</linearGradient>
<linearGradient id="paint51_linear_1898_39314" x1="54.9044" y1="69.0928" x2="88.0425" y2="69.0928" gradientUnits="userSpaceOnUse">
<stop stop-color="#DAE3FE"/>
<stop offset="1" stop-color="#E9EFFD"/>
</linearGradient>
<linearGradient id="paint52_linear_1898_39314" x1="54.9044" y1="64.3494" x2="99.9426" y2="64.3494" gradientUnits="userSpaceOnUse">
<stop stop-color="#DAE3FE"/>
<stop offset="1" stop-color="#E9EFFD"/>
</linearGradient>
<linearGradient id="paint53_linear_1898_39314" x1="79.7354" y1="-0.128345" x2="22.9581" y2="82.0176" gradientUnits="userSpaceOnUse">
<stop stop-color="#DAE3FE"/>
<stop offset="1" stop-color="#E9EFFD"/>
</linearGradient>
<linearGradient id="paint54_linear_1898_39314" x1="81.1843" y1="0.873125" x2="24.407" y2="83.0191" gradientUnits="userSpaceOnUse">
<stop stop-color="#DAE3FE"/>
<stop offset="1" stop-color="#E9EFFD"/>
</linearGradient>
<linearGradient id="paint55_linear_1898_39314" x1="79.1111" y1="-0.559818" x2="22.3338" y2="81.5862" gradientUnits="userSpaceOnUse">
<stop stop-color="#DAE3FE"/>
<stop offset="1" stop-color="#E9EFFD"/>
</linearGradient>
</defs>
</svg>
