<svg width="300" height="208" viewBox="0 0 300 208" fill="none" xmlns="http://www.w3.org/2000/svg">
<path d="M144.9 200.325C144.9 200.325 255.01 191.024 283.288 163.153C311.566 135.282 297.676 111.48 273.547 106.648C249.418 101.816 244.722 94.8611 256.41 83.7734C268.098 72.6858 282.21 50.8614 253.657 32.9739C225.104 15.0864 197.501 47.2729 173.339 45.6324C149.177 43.9919 157.36 29.991 126.926 42.0057C96.4927 54.0202 100.897 27.0085 75.5157 27C50.1342 26.9915 53.7254 53.2461 25.9374 60.8787C-21.5893 73.9329 17.6932 127.288 9.90654 142.244C2.11983 157.2 -1.67247 204.319 40.4748 207.009C82.6219 209.698 144.9 200.325 144.9 200.325Z" fill="url(#paint0_linear_1898_40843)"/>
<path d="M235.508 165.578C244.057 167.287 254.974 157.967 258.491 147.785C262.11 137.307 255.474 132.917 255.525 118.377C255.583 101.86 264.175 99.3704 269.859 77.1068C271.141 72.0836 278.561 43.0152 269.364 37.5666C260.861 32.5288 236.976 46.9868 232.79 65.4918C229.805 78.6869 239.032 84.227 235.508 99.5953C232.416 113.08 224.288 113.275 221.175 126.285C217.384 142.124 224.284 163.334 235.508 165.578Z" fill="#BDD0FB"/>
<path d="M236.129 169.58C233.825 151.784 238.32 124.329 242.498 104.431C247.02 82.8878 252.153 65.3155 252.204 65.1404L252.916 65.3491C252.864 65.5238 247.739 83.0729 243.222 104.588C239.057 124.429 234.573 151.793 236.864 169.485L236.129 169.58Z" fill="#7D97F4"/>
<path d="M249.123 165.506C237.909 159.663 234.071 139.599 240.445 133.078C244.752 128.673 250.929 133.307 256.887 128.74C264.495 122.908 258.899 111.926 264.88 97.6824C269.97 85.561 282.18 74.0913 289.315 76.4447C296.783 78.9081 300.717 97.1866 294.339 108.187C290.191 115.341 283.841 115.692 282.464 122.346C280.866 130.066 288.588 133.586 288.63 141.071C288.705 154.516 263.958 173.236 249.123 165.506Z" fill="#91B3FA"/>
<path d="M255.174 170.644C255.107 170.644 255.039 170.629 254.975 170.598C254.748 170.488 254.653 170.215 254.764 169.988C269.63 139.354 273.989 103.816 274.032 103.461C274.061 103.21 274.289 103.031 274.539 103.061C274.79 103.091 274.969 103.318 274.939 103.569C274.896 103.926 270.518 139.616 255.585 170.387C255.506 170.549 255.344 170.644 255.174 170.644Z" fill="#7D97F4"/>
<path d="M285.675 112.716C285.617 112.716 285.558 112.697 285.509 112.659C285.391 112.567 285.37 112.398 285.462 112.28C290.148 106.265 295.341 97.2305 293.473 88.3447C292.362 83.0581 289.237 80.3035 289.205 80.2764C289.092 80.1787 289.08 80.0084 289.178 79.8957C289.275 79.7831 289.446 79.7706 289.558 79.8681C289.692 79.9841 292.853 82.7706 294.002 88.2337C295.912 97.322 290.644 106.507 285.888 112.612C285.835 112.68 285.755 112.716 285.675 112.716Z" fill="url(#paint1_linear_1898_40843)"/>
<path d="M248.112 162.882C248.026 162.882 247.941 162.841 247.889 162.765C240.667 152.225 238.206 144.076 240.575 138.545C242.686 133.617 248.015 132.7 248.069 132.691C248.216 132.667 248.354 132.767 248.378 132.914C248.402 133.061 248.302 133.2 248.155 133.224C248.104 133.232 243.058 134.109 241.069 138.764C238.782 144.114 241.227 152.086 248.334 162.46C248.419 162.583 248.387 162.751 248.264 162.835C248.218 162.867 248.164 162.882 248.112 162.882Z" fill="#F0F0F0"/>
<path d="M204.357 2.00032C215.24 5.89811 225.798 15.6557 224.328 28.1125C223.078 38.7053 210.923 41.8323 203.549 42.9485C201.492 43.2599 199.624 44.314 198.289 45.9095C195.096 49.7277 188.254 56.0912 180.746 51.8552C180.199 51.5467 180.444 50.7068 181.071 50.7316C183.067 50.8108 185.9 50.5236 187.828 48.648C190.453 46.0934 189.503 41.6613 186.109 40.2808C179.687 37.6682 167.57 30.555 169.139 14.4351C171.261 -7.36553 204.357 2.00032 204.357 2.00032Z" fill="#BDD0FB"/>
<path d="M197.729 19.3871C197.729 19.3871 197.193 12.0984 189.928 13.3031C183.045 14.4443 185.249 23.861 194.946 29.8537C195.997 30.5035 197.299 30.5989 198.437 30.1153C202.694 28.3049 212.611 23.1202 207.142 15.9199C203.609 11.2699 197.729 19.3871 197.729 19.3871Z" fill="url(#paint2_linear_1898_40843)"/>
<path d="M220.16 18.9398C219.95 18.9398 219.75 18.8164 219.662 18.6109C217.54 13.6165 212.301 6.97543 199.391 3.69985C199.102 3.62657 198.927 3.33278 199 3.04396C199.073 2.75514 199.367 2.58025 199.656 2.65353C207.019 4.52149 216.639 8.73294 220.656 18.1887C220.773 18.463 220.645 18.78 220.371 18.8967C220.302 18.9259 220.23 18.9398 220.16 18.9398Z" fill="url(#paint3_linear_1898_40843)"/>
<path d="M221.756 28.6524C221.73 28.6524 221.704 28.6504 221.678 28.6466C221.383 28.6037 221.179 28.33 221.221 28.0353C221.223 28.0208 221.4 26.7494 221.223 24.8028C221.196 24.5059 221.414 24.2433 221.711 24.2163C222.008 24.1882 222.271 24.4079 222.298 24.7048C222.488 26.7909 222.298 28.1342 222.29 28.1904C222.25 28.4589 222.02 28.6524 221.756 28.6524Z" fill="url(#paint4_linear_1898_40843)"/>
<g filter="url(#filter0_d_1898_40843)">
<g clip-path="url(#clip0_1898_40843)">
<rect x="72.8253" y="56.7395" width="124.839" height="70.3981" rx="7.50914" transform="rotate(82.6861 72.8253 56.7395)" fill="#EDF6FF"/>
<path d="M47.1598 111.196L41.2476 111.955L49.1184 173.279L55.0307 172.52L47.1598 111.196Z" fill="#B3B3B3"/>
<path d="M47.1598 111.197L45.6788 111.387L53.5497 172.711L55.0307 172.52L47.1598 111.197Z" fill="#808080"/>
<path d="M44.826 119.573C45.2029 119.525 45.4693 119.18 45.4209 118.803C45.3726 118.426 45.0277 118.159 44.6507 118.208C44.2737 118.256 44.0074 118.601 44.0558 118.978C44.1041 119.355 44.449 119.621 44.826 119.573Z" fill="#808080"/>
<path d="M44.3152 112.448C53.7338 111.239 60.3892 102.624 59.1803 93.2049C57.9714 83.7863 49.3561 77.131 39.9375 78.3398C30.5189 79.5487 23.8635 88.164 25.0724 97.5826C26.2813 107.001 34.8966 113.657 44.3152 112.448Z" fill="#0B53BF" stroke="#0B53BF" stroke-width="6.05715" stroke-miterlimit="10" stroke-linecap="round" stroke-linejoin="round"/>
<path d="M51.064 89.4874L43.3625 79.3857L38.4638 91.1046L42.5404 90.5814L45.1428 110.857L49.5891 110.287L46.9867 90.0107L51.064 89.4874Z" fill="white"/>
<path d="M37.2382 102.111L27.2096 97.9185L35.8544 91.3297L37.2382 102.111Z" fill="white"/>
<path d="M33.8005 97.0724C40.6432 96.1941 45.529 94.5741 47.446 109.51" stroke="white" stroke-width="4.65379" stroke-miterlimit="10"/>
<g opacity="0.3">
<path d="M39.6549 76.1385L52.0742 172.901L53.5497 172.711L55.0307 172.521L47.5249 114.042C56.5611 111.431 62.6152 102.534 61.3815 92.9217C60.0189 82.3053 50.2727 74.7758 39.6549 76.1385Z" fill="black"/>
</g>
</g>
<rect x="72.0138" y="57.79" width="122.962" height="68.5209" rx="6.57049" transform="rotate(82.6861 72.0138 57.79)" stroke="#016DDD" stroke-width="1.87728"/>
</g>
<g filter="url(#filter1_d_1898_40843)">
<g clip-path="url(#clip1_1898_40843)">
<rect x="144.443" y="62.4956" width="124.839" height="70.3981" rx="7.50914" transform="rotate(93.7456 144.443 62.4956)" fill="#FFFFED"/>
<path d="M109.668 111.392L103.655 110.998L99.5713 173.377L105.585 173.771L109.668 111.392Z" fill="#B3B3B3"/>
<path d="M109.668 111.391L108.163 111.293L104.079 173.672L105.585 173.771L109.668 111.391Z" fill="#808080"/>
<path d="M105.728 119.249C106.111 119.274 106.442 118.984 106.467 118.601C106.493 118.217 106.202 117.886 105.819 117.861C105.436 117.836 105.105 118.127 105.08 118.51C105.055 118.893 105.345 119.224 105.728 119.249Z" fill="#808080"/>
<path d="M106.353 115.924C105.127 115.844 104.009 115.294 103.204 114.376L88.0233 97.0674C87.2179 96.1499 86.8185 94.969 86.8987 93.7443C86.9789 92.5196 87.5288 91.4008 88.4484 90.5955L105.755 75.4154C106.673 74.61 107.853 74.2099 109.078 74.2902C110.302 74.3703 111.42 74.9208 112.226 75.8391L127.407 93.1467C128.212 94.0649 128.613 95.2452 128.533 96.4699C128.452 97.6946 127.902 98.8126 126.983 99.618L109.675 114.799C108.757 115.605 107.577 116.004 106.353 115.924Z" fill="#FBB03B"/>
<path d="M106.583 112.412C106.371 112.398 106.196 112.312 106.061 112.158L90.88 94.8504C90.7445 94.6951 90.6834 94.5107 90.6971 94.3004C90.7109 94.0895 90.797 93.9146 90.95 93.7797L108.258 78.5983C108.412 78.4634 108.597 78.401 108.808 78.4148C109.019 78.4286 109.196 78.5133 109.33 78.6685L124.51 95.9753C124.645 96.1305 124.706 96.315 124.693 96.5259C124.679 96.7369 124.594 96.9118 124.44 97.0474L107.132 112.228C106.976 112.365 106.796 112.426 106.583 112.412Z" stroke="black" stroke-width="1.47583" stroke-miterlimit="10" stroke-linecap="round" stroke-linejoin="round"/>
<g opacity="0.3">
<path d="M127.406 93.1474L112.226 75.8399C111.42 74.9216 110.302 74.3711 109.078 74.2909L109.078 74.2909L102.578 173.574L104.079 173.672L105.585 173.771L109.433 114.993C109.514 114.93 109.598 114.869 109.675 114.8L126.983 99.6187C127.901 98.8133 128.452 97.6954 128.532 96.4707C128.613 95.2459 128.212 94.0657 127.406 93.1474Z" fill="black"/>
</g>
</g>
<rect x="143.445" y="63.3709" width="122.962" height="68.5209" rx="6.57049" transform="rotate(93.7456 143.445 63.3709)" stroke="#DDB101" stroke-width="1.87728"/>
</g>
<g filter="url(#filter2_d_1898_40843)">
<g clip-path="url(#clip2_1898_40843)">
<rect x="204.02" y="59.774" width="124.839" height="70.3981" rx="7.50914" transform="rotate(90 204.02 59.774)" fill="#FFE1DD"/>
<path d="M170.468 108.042H164.262V172.411H170.468V108.042Z" fill="#B3B3B3"/>
<path d="M170.468 108.042H168.913V172.411H170.468V108.042Z" fill="#808080"/>
<path d="M166.947 116.382C167.342 116.382 167.663 116.062 167.663 115.666C167.663 115.271 167.342 114.95 166.947 114.95C166.552 114.95 166.231 115.271 166.231 115.666C166.231 116.062 166.552 116.382 166.947 116.382Z" fill="#808080"/>
<path d="M167.48 110.088C177.366 110.088 185.38 102.073 185.38 92.187C185.38 82.3008 177.366 74.2864 167.48 74.2864C157.593 74.2864 149.579 82.3008 149.579 92.187C149.579 102.073 157.593 110.088 167.48 110.088Z" fill="#C1272D" stroke="#C1272D" stroke-width="6.05715" stroke-miterlimit="10" stroke-linecap="round" stroke-linejoin="round"/>
<path d="M181.39 87.7415H153.572V96.6331H181.39V87.7415Z" fill="white"/>
<g opacity="0.3">
<path d="M167.48 71.9764V172.411H168.913H170.468V112.176C180.201 110.728 187.691 102.317 187.691 92.1877C187.691 81.0428 178.625 71.9764 167.48 71.9764Z" fill="black"/>
</g>
</g>
<rect x="203.082" y="60.7127" width="122.962" height="68.5209" rx="6.57049" transform="rotate(90 203.082 60.7127)" stroke="#DD3C01" stroke-width="1.87728"/>
</g>
<g filter="url(#filter3_d_1898_40843)">
<g clip-path="url(#clip3_1898_40843)">
<rect x="262.886" y="56" width="124.839" height="70.3981" rx="7.50914" transform="rotate(84.99 262.886 56)" fill="#EDF6FF"/>
<path d="M237.277 123.968L230.063 124.6L234.036 169.916L241.249 169.283L237.277 123.968Z" fill="#B3B3B3"/>
<path d="M237.277 123.968L235.47 124.126L239.442 169.442L241.249 169.283L237.277 123.968Z" fill="#808080"/>
<path d="M234.034 134.019C234.494 133.979 234.834 133.574 234.793 133.114C234.753 132.654 234.348 132.314 233.888 132.355C233.428 132.395 233.088 132.8 233.129 133.26C233.169 133.72 233.574 134.06 234.034 134.019Z" fill="#808080"/>
<path d="M248.502 70.4524L209.8 73.8452L214.762 130.442L253.464 127.049L248.502 70.4524Z" fill="#214C80"/>
<path d="M228.422 79.9707L225.925 80.1896L222.363 123.275L232.143 122.418L228.422 79.9707Z" fill="white"/>
<path d="M231.127 79.7338L233.624 79.5149L244.627 121.324L234.848 122.181L231.127 79.7338Z" fill="white"/>
<path d="M247.739 94.6321L214.655 97.5323L214.856 99.8212L217.145 99.6205L217.309 101.493L220.43 101.22L220.266 99.3469L242.53 97.3952L242.694 99.2678L245.815 98.9942L245.651 97.1216L247.94 96.9209L247.739 94.6321Z" fill="white" stroke="#214C80" stroke-width="0.938642" stroke-miterlimit="10"/>
<g opacity="0.3">
<path d="M229.151 72.1488L237.694 169.595L239.442 169.441L241.249 169.283L237.668 128.434L253.464 127.049L248.502 70.4524L229.151 72.1488Z" fill="black"/>
</g>
</g>
<rect x="262.033" y="57.017" width="122.962" height="68.5209" rx="6.57049" transform="rotate(84.99 262.033 57.017)" stroke="#016DDD" stroke-width="1.87728"/>
</g>
<defs>
<filter id="filter0_d_1898_40843" x="-0.754568" y="52.9849" width="93.2272" height="140.295" filterUnits="userSpaceOnUse" color-interpolation-filters="sRGB">
<feFlood flood-opacity="0" result="BackgroundImageFix"/>
<feColorMatrix in="SourceAlpha" type="matrix" values="0 0 0 0 0 0 0 0 0 0 0 0 0 0 0 0 0 0 127 0" result="hardAlpha"/>
<feOffset/>
<feGaussianBlur stdDeviation="1.87728"/>
<feComposite in2="hardAlpha" operator="out"/>
<feColorMatrix type="matrix" values="0 0 0 0 0 0 0 0 0 0 0 0 0 0 0 0 0 0 0.15 0"/>
<feBlend mode="normal" in2="BackgroundImageFix" result="effect1_dropShadow_1898_40843"/>
<feBlend mode="normal" in="SourceGraphic" in2="effect1_dropShadow_1898_40843" result="shape"/>
</filter>
<filter id="filter1_d_1898_40843" x="62.2852" y="54.1422" width="85.9122" height="136.681" filterUnits="userSpaceOnUse" color-interpolation-filters="sRGB">
<feFlood flood-opacity="0" result="BackgroundImageFix"/>
<feColorMatrix in="SourceAlpha" type="matrix" values="0 0 0 0 0 0 0 0 0 0 0 0 0 0 0 0 0 0 127 0" result="hardAlpha"/>
<feOffset/>
<feGaussianBlur stdDeviation="1.87728"/>
<feComposite in2="hardAlpha" operator="out"/>
<feColorMatrix type="matrix" values="0 0 0 0 0 0 0 0 0 0 0 0 0 0 0 0 0 0 0.15 0"/>
<feBlend mode="normal" in2="BackgroundImageFix" result="effect1_dropShadow_1898_40843"/>
<feBlend mode="normal" in="SourceGraphic" in2="effect1_dropShadow_1898_40843" result="shape"/>
</filter>
<filter id="filter2_d_1898_40843" x="129.868" y="56.0195" width="77.9073" height="132.348" filterUnits="userSpaceOnUse" color-interpolation-filters="sRGB">
<feFlood flood-opacity="0" result="BackgroundImageFix"/>
<feColorMatrix in="SourceAlpha" type="matrix" values="0 0 0 0 0 0 0 0 0 0 0 0 0 0 0 0 0 0 127 0" result="hardAlpha"/>
<feOffset/>
<feGaussianBlur stdDeviation="1.87728"/>
<feComposite in2="hardAlpha" operator="out"/>
<feColorMatrix type="matrix" values="0 0 0 0 0 0 0 0 0 0 0 0 0 0 0 0 0 0 0.15 0"/>
<feBlend mode="normal" in2="BackgroundImageFix" result="effect1_dropShadow_1898_40843"/>
<feBlend mode="normal" in="SourceGraphic" in2="effect1_dropShadow_1898_40843" result="shape"/>
</filter>
<filter id="filter3_d_1898_40843" x="189.002" y="52.2454" width="88.5404" height="138.019" filterUnits="userSpaceOnUse" color-interpolation-filters="sRGB">
<feFlood flood-opacity="0" result="BackgroundImageFix"/>
<feColorMatrix in="SourceAlpha" type="matrix" values="0 0 0 0 0 0 0 0 0 0 0 0 0 0 0 0 0 0 127 0" result="hardAlpha"/>
<feOffset/>
<feGaussianBlur stdDeviation="1.87728"/>
<feComposite in2="hardAlpha" operator="out"/>
<feColorMatrix type="matrix" values="0 0 0 0 0 0 0 0 0 0 0 0 0 0 0 0 0 0 0.15 0"/>
<feBlend mode="normal" in2="BackgroundImageFix" result="effect1_dropShadow_1898_40843"/>
<feBlend mode="normal" in="SourceGraphic" in2="effect1_dropShadow_1898_40843" result="shape"/>
</filter>
<linearGradient id="paint0_linear_1898_40843" x1="295.682" y1="96.4959" x2="0.768064" y2="124.416" gradientUnits="userSpaceOnUse">
<stop stop-color="#DAE3FE"/>
<stop offset="1" stop-color="#E9EFFD"/>
</linearGradient>
<linearGradient id="paint1_linear_1898_40843" x1="285.405" y1="96.2591" x2="294.403" y2="96.2591" gradientUnits="userSpaceOnUse">
<stop stop-color="#DAE3FE"/>
<stop offset="1" stop-color="#E9EFFD"/>
</linearGradient>
<linearGradient id="paint2_linear_1898_40843" x1="185.927" y1="21.7944" x2="208.747" y2="21.7944" gradientUnits="userSpaceOnUse">
<stop stop-color="#DAE3FE"/>
<stop offset="1" stop-color="#E9EFFD"/>
</linearGradient>
<linearGradient id="paint3_linear_1898_40843" x1="198.983" y1="10.7883" x2="220.699" y2="10.7883" gradientUnits="userSpaceOnUse">
<stop stop-color="#DAE3FE"/>
<stop offset="1" stop-color="#E9EFFD"/>
</linearGradient>
<linearGradient id="paint4_linear_1898_40843" x1="221.216" y1="26.433" x2="222.382" y2="26.433" gradientUnits="userSpaceOnUse">
<stop stop-color="#DAE3FE"/>
<stop offset="1" stop-color="#E9EFFD"/>
</linearGradient>
<clipPath id="clip0_1898_40843">
<rect x="72.8253" y="56.7395" width="124.839" height="70.3981" rx="7.50914" transform="rotate(82.6861 72.8253 56.7395)" fill="white"/>
</clipPath>
<clipPath id="clip1_1898_40843">
<rect x="144.443" y="62.4956" width="124.839" height="70.3981" rx="7.50914" transform="rotate(93.7456 144.443 62.4956)" fill="white"/>
</clipPath>
<clipPath id="clip2_1898_40843">
<rect x="204.02" y="59.774" width="124.839" height="70.3981" rx="7.50914" transform="rotate(90 204.02 59.774)" fill="white"/>
</clipPath>
<clipPath id="clip3_1898_40843">
<rect x="262.886" y="56" width="124.839" height="70.3981" rx="7.50914" transform="rotate(84.99 262.886 56)" fill="white"/>
</clipPath>
</defs>
</svg>
