<svg width="100" height="100" viewBox="0 0 100 100" fill="none" xmlns="http://www.w3.org/2000/svg">
<g clip-path="url(#clip0_1900_47350)">
<rect width="100" height="100" rx="15" fill="#016DDD"/>
<circle cx="4.375" cy="13.125" r="60.625" fill="#EE6C2D"/>
<path d="M60.125 23C56.4783 23 52.9809 24.4487 50.4023 27.0273C47.8237 29.6059 46.375 33.1033 46.375 36.75C46.375 40.3967 47.8237 43.8941 50.4023 46.4727C52.9809 49.0513 56.4783 50.5 60.125 50.5C63.7717 50.5 67.2691 49.0513 69.8477 46.4727C72.4263 43.8941 73.875 40.3967 73.875 36.75C73.875 33.1033 72.4263 29.6059 69.8477 27.0273C67.2691 24.4487 63.7717 23 60.125 23ZM60.125 29.5313C61.073 29.5313 62.0117 29.718 62.8875 30.0807C63.7633 30.4435 64.5591 30.9752 65.2294 31.6456C65.8997 32.3159 66.4315 33.1117 66.7943 33.9875C67.157 34.8633 67.3438 35.802 67.3438 36.75C67.3438 37.698 67.157 38.6367 66.7943 39.5125C66.4315 40.3883 65.8997 41.1841 65.2294 41.8544C64.5591 42.5247 63.7633 43.0565 62.8875 43.4193C62.0117 43.782 61.073 43.9688 60.125 43.9688C59.177 43.9688 58.2383 43.782 57.3625 43.4193C56.4867 43.0565 55.6909 42.5247 55.0206 41.8544C54.3503 41.1841 53.8185 40.3883 53.4557 39.5125C53.093 38.6367 52.9062 37.698 52.9062 36.75C52.9062 34.8355 53.6668 32.9994 55.0206 31.6456C56.3744 30.2918 58.2105 29.5313 60.125 29.5313ZM22.3125 33.3125V43.625H12V50.5H22.3125V60.8125H29.1875V50.5H39.5V43.625H29.1875V33.3125H22.3125ZM60.125 53.9375C50.9469 53.9375 32.625 58.5094 32.625 67.6875V78H87.625V67.6875C87.625 58.5094 69.3031 53.9375 60.125 53.9375ZM60.125 60.4688C70.3344 60.4688 81.0938 65.4875 81.0938 67.6875V71.4688H39.1562V67.6875C39.1562 65.4875 49.8125 60.4688 60.125 60.4688Z" fill="white"/>
</g>
<defs>
<clipPath id="clip0_1900_47350">
<rect width="100" height="100" rx="15" fill="white"/>
</clipPath>
</defs>
</svg>
