<svg width="100" height="100" viewBox="0 0 100 100" fill="none" xmlns="http://www.w3.org/2000/svg">
<g clip-path="url(#clip0_1900_47383)">
<rect width="100" height="100" rx="15" fill="#016DDD"/>
<circle cx="114.375" cy="83.125" r="60.625" fill="#EE6C2D"/>
<path d="M76.8125 21.9688H23.1875C21.5713 21.9688 20.0214 22.6108 18.8786 23.7536C17.7358 24.8964 17.0938 26.4463 17.0938 28.0625V76.8125C17.0938 77.4358 17.2532 78.0487 17.5569 78.5931C17.8605 79.1374 18.2982 79.5951 18.8285 79.9227C19.3588 80.2503 19.964 80.4368 20.5866 80.4647C21.2093 80.4925 21.8288 80.3607 22.3862 80.0818L30.5 76.0264L38.6138 80.0818C39.1218 80.336 39.682 80.4683 40.25 80.4683C40.818 80.4683 41.3782 80.336 41.8862 80.0818L50 76.0264L58.1138 80.0818C58.6218 80.336 59.182 80.4683 59.75 80.4683C60.318 80.4683 60.8782 80.336 61.3862 80.0818L69.5 76.0264L77.6138 80.0818C78.1712 80.3607 78.7907 80.4925 79.4134 80.4647C80.036 80.4368 80.6412 80.2503 81.1715 79.9227C81.7018 79.5951 82.1395 79.1374 82.4431 78.5931C82.7468 78.0487 82.9062 77.4358 82.9062 76.8125V28.0625C82.9062 26.4463 82.2642 24.8964 81.1214 23.7536C79.9786 22.6108 78.4287 21.9688 76.8125 21.9688ZM75.5938 70.8955L71.1362 68.6682C70.6282 68.414 70.068 68.2817 69.5 68.2817C68.932 68.2817 68.3718 68.414 67.8638 68.6682L59.75 72.7236L51.6362 68.6682C51.1282 68.414 50.568 68.2817 50 68.2817C49.432 68.2817 48.8718 68.414 48.3638 68.6682L40.25 72.7236L32.1362 68.6682C31.6282 68.414 31.068 68.2817 30.5 68.2817C29.932 68.2817 29.3718 68.414 28.8638 68.6682L24.4062 70.8955V29.2812H75.5938V70.8955ZM30.0826 63.0193C30.9497 63.4531 31.9536 63.5248 32.8735 63.2185C33.7934 62.9123 34.554 62.2532 34.988 61.3862L35.8077 59.75H47.1298L47.9495 61.3862C48.16 61.8226 48.4553 62.2129 48.818 62.5342C49.1808 62.8555 49.6038 63.1016 50.0624 63.2579C50.5211 63.4143 51.0063 63.478 51.4898 63.4452C51.9733 63.4124 52.4454 63.2839 52.8788 63.067C53.3121 62.8501 53.6981 62.5492 54.0141 62.1819C54.3302 61.8145 54.57 61.388 54.7198 60.9271C54.8695 60.4662 54.9261 59.9802 54.8864 59.4972C54.8466 59.0142 54.7112 58.544 54.488 58.1138L44.738 38.6138C44.4342 38.007 43.9674 37.4967 43.39 37.1401C42.8127 36.7835 42.1474 36.5946 41.4688 36.5946C40.7901 36.5946 40.1248 36.7835 39.5475 37.1401C38.9701 37.4967 38.5033 38.007 38.1995 38.6138L28.4495 58.1138C28.0156 58.9809 27.9439 59.9848 28.2502 60.9047C28.5565 61.8247 29.2156 62.5853 30.0826 63.0193ZM43.4736 52.4375H39.4639L41.4688 48.4248L43.4736 52.4375ZM54.875 50C54.875 49.0303 55.2602 48.1003 55.9459 47.4146C56.6316 46.729 57.5616 46.3438 58.5312 46.3438H59.75V45.125C59.75 44.1553 60.1352 43.2253 60.8209 42.5396C61.5066 41.854 62.4366 41.4688 63.4062 41.4688C64.3759 41.4688 65.3059 41.854 65.9916 42.5396C66.6773 43.2253 67.0625 44.1553 67.0625 45.125V46.3438H68.2812C69.2509 46.3438 70.1809 46.729 70.8666 47.4146C71.5523 48.1003 71.9375 49.0303 71.9375 50C71.9375 50.9697 71.5523 51.8997 70.8666 52.5854C70.1809 53.271 69.2509 53.6562 68.2812 53.6562H67.0625V54.875C67.0625 55.8447 66.6773 56.7747 65.9916 57.4604C65.3059 58.146 64.3759 58.5312 63.4062 58.5312C62.4366 58.5312 61.5066 58.146 60.8209 57.4604C60.1352 56.7747 59.75 55.8447 59.75 54.875V53.6562H58.5312C57.5616 53.6562 56.6316 53.271 55.9459 52.5854C55.2602 51.8997 54.875 50.9697 54.875 50Z" fill="white"/>
</g>
<defs>
<clipPath id="clip0_1900_47383">
<rect width="100" height="100" rx="15" fill="white"/>
</clipPath>
</defs>
</svg>
