<svg width="100" height="100" viewBox="0 0 100 100" fill="none" xmlns="http://www.w3.org/2000/svg">
<g clip-path="url(#clip0_1900_47372)">
<rect width="100" height="100" rx="15" fill="#016DDD"/>
<circle cx="-5.625" cy="73.125" r="60.625" fill="#EE6C2D"/>
<path d="M64.625 15.875H35.375C32.7891 15.875 30.3092 16.9022 28.4807 18.7307C26.6522 20.5592 25.625 23.0391 25.625 25.625V74.375C25.625 76.9609 26.6522 79.4408 28.4807 81.2693C30.3092 83.0978 32.7891 84.125 35.375 84.125H46.3779C45.1361 82.6213 44.0622 80.9866 43.175 79.25H35.375C34.0821 79.25 32.8421 78.7364 31.9279 77.8221C31.0136 76.9079 30.5 75.6679 30.5 74.375V74.3604H41.2542C40.8054 72.7666 40.5051 71.1346 40.3572 69.4854H30.5V25.625C30.5 24.3321 31.0136 23.0921 31.9279 22.1779C32.8421 21.2636 34.0821 20.75 35.375 20.75H64.625C65.9179 20.75 67.1579 21.2636 68.0721 22.1779C68.9864 23.0921 69.5 24.3321 69.5 25.625V40.3572C71.177 40.5132 72.802 40.8139 74.375 41.2591V25.625C74.375 23.0391 73.3478 20.5592 71.5193 18.7307C69.6908 16.9022 67.2109 15.875 64.625 15.875ZM40.25 25.625C38.9571 25.625 37.7171 26.1386 36.8029 27.0529C35.8886 27.9671 35.375 29.2071 35.375 30.5V35.375C35.375 36.6679 35.8886 37.9079 36.8029 38.8221C37.7171 39.7364 38.9571 40.25 40.25 40.25H59.75C61.0429 40.25 62.2829 39.7364 63.1971 38.8221C64.1114 37.9079 64.625 36.6679 64.625 35.375V30.5C64.625 29.2071 64.1114 27.9671 63.1971 27.0529C62.2829 26.1386 61.0429 25.625 59.75 25.625H40.25ZM40.25 30.5H59.75V35.375H40.25V30.5ZM89 67.0625C89 72.8807 86.6887 78.4606 82.5747 82.5747C78.4606 86.6887 72.8807 89 67.0625 89C61.2443 89 55.6644 86.6887 51.5503 82.5747C47.4363 78.4606 45.125 72.8807 45.125 67.0625C45.125 61.2443 47.4363 55.6644 51.5503 51.5503C55.6644 47.4363 61.2443 45.125 67.0625 45.125C72.8807 45.125 78.4606 47.4363 82.5747 51.5503C86.6887 55.6644 89 61.2443 89 67.0625ZM59.75 74.3506C59.7499 74.7819 59.8642 75.2055 60.0813 75.5781C60.2984 75.9508 60.6105 76.2591 60.9857 76.4718C61.3609 76.6844 61.7858 76.7937 62.2171 76.7885C62.6483 76.7832 63.0704 76.6637 63.4404 76.442L75.6279 69.1441C75.9894 68.9277 76.2886 68.6213 76.4964 68.2547C76.7041 67.8882 76.8134 67.4741 76.8134 67.0527C76.8134 66.6314 76.7041 66.2173 76.4964 65.8507C76.2886 65.4842 75.9894 65.1778 75.6279 64.9614L63.4404 57.6635C63.0708 57.442 62.6491 57.3225 62.2183 57.3171C61.7875 57.3116 61.3629 57.4205 60.9878 57.6325C60.6128 57.8446 60.3006 58.1523 60.0832 58.5242C59.8657 58.8962 59.7508 59.3191 59.75 59.75V74.3506Z" fill="white"/>
</g>
<defs>
<clipPath id="clip0_1900_47372">
<rect width="100" height="100" rx="15" fill="white"/>
</clipPath>
</defs>
</svg>
