<svg width="100" height="100" viewBox="0 0 100 100" fill="none" xmlns="http://www.w3.org/2000/svg">
<g clip-path="url(#clip0_1900_47360)">
<rect width="100" height="100" rx="15" fill="#016DDD"/>
<circle cx="110.625" cy="13.625" r="60.625" fill="#EE6C2D"/>
<path d="M21.5625 27.25C21.5625 24.8796 22.5041 22.6063 24.1802 20.9302C25.8563 19.2541 28.1296 18.3125 30.5 18.3125H63C65.3704 18.3125 67.6437 19.2541 69.3198 20.9302C70.9959 22.6063 71.9375 24.8796 71.9375 27.25V45.125C71.9375 45.7715 71.6807 46.3915 71.2236 46.8486C70.7665 47.3057 70.1465 47.5625 69.5 47.5625C68.8535 47.5625 68.2335 47.3057 67.7764 46.8486C67.3193 46.3915 67.0625 45.7715 67.0625 45.125V27.25C67.0625 25.0075 65.2425 23.1875 63 23.1875H30.5C28.2575 23.1875 26.4375 25.0075 26.4375 27.25V72.75C26.4375 74.9925 28.2575 76.8125 30.5 76.8125H54.875C55.5215 76.8125 56.1415 77.0693 56.5986 77.5264C57.0557 77.9835 57.3125 78.6035 57.3125 79.25C57.3125 79.8965 57.0557 80.5165 56.5986 80.9736C56.1415 81.4307 55.5215 81.6875 54.875 81.6875H30.5C28.1296 81.6875 25.8563 80.7459 24.1802 79.0698C22.5041 77.3937 21.5625 75.1204 21.5625 72.75V27.25Z" fill="white"/>
<path d="M69.5 54.0625C70.1465 54.0625 70.7665 54.3193 71.2236 54.7764C71.6807 55.2335 71.9375 55.8535 71.9375 56.5V57.8585C75.2752 57.982 78.4375 60.4422 78.4375 64.0823C78.4375 64.7287 78.1807 65.3487 77.7236 65.8058C77.2665 66.2629 76.6465 66.5198 76 66.5198C75.3535 66.5198 74.7335 66.2629 74.2764 65.8058C73.8193 65.3487 73.5625 64.7287 73.5625 64.0823C73.5625 63.6208 73.036 62.7302 71.6743 62.7302H66.7798C66.3913 62.7198 66.0119 62.849 65.7105 63.0942C65.4895 63.2892 65.4375 63.4745 65.4375 63.5948C65.4325 63.7582 65.4522 63.9214 65.496 64.079C65.5391 64.1109 65.5848 64.1391 65.6325 64.1635C65.7625 64.2285 65.9575 64.3065 66.2598 64.3975L74.1182 66.6758C75.0152 66.9423 76.1658 67.3842 77.0693 68.343C78.0443 69.383 78.4375 70.7155 78.4375 72.1552C78.4375 75.623 75.3305 77.8948 72.2202 77.8948H71.9375V79.25C71.9375 79.8965 71.6807 80.5165 71.2236 80.9736C70.7665 81.4307 70.1465 81.6875 69.5 81.6875C68.8535 81.6875 68.2335 81.4307 67.7764 80.9736C67.3193 80.5165 67.0625 79.8965 67.0625 79.25V77.8915C63.7248 77.768 60.5625 75.3078 60.5625 71.6677C60.5625 71.0213 60.8193 70.4013 61.2764 69.9442C61.7335 69.4871 62.3535 69.2302 63 69.2302C63.6465 69.2302 64.2665 69.4871 64.7236 69.9442C65.1807 70.4013 65.4375 71.0213 65.4375 71.6677C65.4375 72.1292 65.964 73.0198 67.3257 73.0198H72.2202C72.6087 73.0302 72.9881 72.901 73.2895 72.6558C73.5105 72.4608 73.5625 72.2755 73.5625 72.1552C73.5675 71.9918 73.5478 71.8286 73.504 71.671C73.4609 71.6391 73.4152 71.6109 73.3675 71.5865C73.2375 71.5215 73.0425 71.4435 72.7402 71.3525L64.8818 69.0742C63.9848 68.8077 62.8342 68.3658 61.9307 67.407C60.9557 66.367 60.5625 65.0345 60.5625 63.5948C60.5625 60.127 63.6695 57.8552 66.7798 57.8552H67.0625V56.5C67.0625 55.8535 67.3193 55.2335 67.7764 54.7764C68.2335 54.3193 68.8535 54.0625 69.5 54.0625ZM31.3125 46.75C31.3125 46.1035 31.5693 45.4835 32.0264 45.0264C32.4835 44.5693 33.1035 44.3125 33.75 44.3125H35.375C36.0215 44.3125 36.6415 44.5693 37.0986 45.0264C37.5557 45.4835 37.8125 46.1035 37.8125 46.75C37.8125 47.3965 37.5557 48.0165 37.0986 48.4736C36.6415 48.9307 36.0215 49.1875 35.375 49.1875H33.75C33.1035 49.1875 32.4835 48.9307 32.0264 48.4736C31.5693 48.0165 31.3125 47.3965 31.3125 46.75ZM41.0625 46.75C41.0625 46.1035 41.3193 45.4835 41.7764 45.0264C42.2335 44.5693 42.8535 44.3125 43.5 44.3125H59.75C60.3965 44.3125 61.0165 44.5693 61.4736 45.0264C61.9307 45.4835 62.1875 46.1035 62.1875 46.75C62.1875 47.3965 61.9307 48.0165 61.4736 48.4736C61.0165 48.9307 60.3965 49.1875 59.75 49.1875H43.5C42.8535 49.1875 42.2335 48.9307 41.7764 48.4736C41.3193 48.0165 41.0625 47.3965 41.0625 46.75ZM31.3125 56.5C31.3125 55.8535 31.5693 55.2335 32.0264 54.7764C32.4835 54.3193 33.1035 54.0625 33.75 54.0625H35.375C36.0215 54.0625 36.6415 54.3193 37.0986 54.7764C37.5557 55.2335 37.8125 55.8535 37.8125 56.5C37.8125 57.1465 37.5557 57.7665 37.0986 58.2236C36.6415 58.6807 36.0215 58.9375 35.375 58.9375H33.75C33.1035 58.9375 32.4835 58.6807 32.0264 58.2236C31.5693 57.7665 31.3125 57.1465 31.3125 56.5ZM41.0625 56.5C41.0625 55.8535 41.3193 55.2335 41.7764 54.7764C42.2335 54.3193 42.8535 54.0625 43.5 54.0625H54.875C55.5215 54.0625 56.1415 54.3193 56.5986 54.7764C57.0557 55.2335 57.3125 55.8535 57.3125 56.5C57.3125 57.1465 57.0557 57.7665 56.5986 58.2236C56.1415 58.6807 55.5215 58.9375 54.875 58.9375H43.5C42.8535 58.9375 42.2335 58.6807 41.7764 58.2236C41.3193 57.7665 41.0625 57.1465 41.0625 56.5ZM31.3125 66.25C31.3125 65.6035 31.5693 64.9835 32.0264 64.5264C32.4835 64.0693 33.1035 63.8125 33.75 63.8125H35.375C36.0215 63.8125 36.6415 64.0693 37.0986 64.5264C37.5557 64.9835 37.8125 65.6035 37.8125 66.25C37.8125 66.8965 37.5557 67.5165 37.0986 67.9736C36.6415 68.4307 36.0215 68.6875 35.375 68.6875H33.75C33.1035 68.6875 32.4835 68.4307 32.0264 67.9736C31.5693 67.5165 31.3125 66.8965 31.3125 66.25ZM41.0625 66.25C41.0625 65.6035 41.3193 64.9835 41.7764 64.5264C42.2335 64.0693 42.8535 63.8125 43.5 63.8125H50C50.6465 63.8125 51.2665 64.0693 51.7236 64.5264C52.1807 64.9835 52.4375 65.6035 52.4375 66.25C52.4375 66.8965 52.1807 67.5165 51.7236 67.9736C51.2665 68.4307 50.6465 68.6875 50 68.6875H43.5C42.8535 68.6875 42.2335 68.4307 41.7764 67.9736C41.3193 67.5165 41.0625 66.8965 41.0625 66.25ZM30.5 32.125C30.5 30.6105 30.5 29.8533 30.747 29.2553C31.0776 28.4605 31.7099 27.8293 32.5053 27.5003C33.1033 27.25 33.8605 27.25 35.375 27.25H58.125C59.6395 27.25 60.3968 27.25 60.9948 27.497C61.7895 27.8276 62.4207 28.4599 62.7498 29.2553C63 29.8533 63 30.6105 63 32.125C63 33.6395 63 34.3967 62.753 34.9947C62.4224 35.7895 61.7901 36.4207 60.9948 36.7497C60.3968 37 59.6395 37 58.125 37H35.375C33.8605 37 33.1033 37 32.5053 36.753C31.7105 36.4224 31.0793 35.7901 30.7503 34.9947C30.5 34.3967 30.5 33.6395 30.5 32.125Z" fill="white"/>
</g>
<defs>
<clipPath id="clip0_1900_47360">
<rect width="100" height="100" rx="15" fill="white"/>
</clipPath>
</defs>
</svg>
