<svg width="285" height="196" viewBox="0 0 285 196" fill="none" xmlns="http://www.w3.org/2000/svg">
<path d="M250.641 172.424C243.225 176.893 236.589 179.52 231.508 181.503C181.958 200.845 125.317 195.27 107.805 193.365C79.5513 190.291 55.7014 188.122 35.2101 177.299C-11.3524 152.707 -9.08772 101.406 26.4917 69.6268C30.7103 65.8587 66.236 35.0742 123 30.7364C124.388 30.6303 125.424 30.5699 126.331 30.5137C135.113 29.9702 189.528 27.1016 233.899 48.833C240.25 51.9437 250.471 57.5547 259.95 66.1124C294.607 97.403 294.717 145.865 250.641 172.424Z" fill="url(#paint0_linear_1898_39171)"/>
<path d="M173.126 151.329L169.467 184.152H211.927L206.397 151.329H173.126Z" fill="url(#paint1_linear_1898_39171)"/>
<path d="M101.8 70.459V145.633C101.8 151.817 106.728 156.874 112.91 157.033C140.367 157.741 236.399 159.458 262.536 159.073C267.028 159.007 270.668 155.412 270.797 150.921C271.301 133.457 272.12 91.462 269.091 71.9655C268.453 67.8597 264.987 64.7895 260.834 64.6567C237.828 63.9208 136.028 61.5838 109.903 62.1705C105.398 62.2717 101.8 65.9522 101.8 70.459Z" fill="url(#paint2_linear_1898_39171)"/>
<path d="M106.517 70.0931V141.513C106.517 145.124 109.415 148.066 113.025 148.12L258.776 149.921C262.355 149.974 265.289 147.094 265.302 143.515L265.546 72.7326C265.556 70.1731 263.517 68.076 260.958 68.0137L111.736 64.9991C108.874 64.9294 106.517 67.2304 106.517 70.0931Z" fill="#91B3FA"/>
<path d="M266.4 152.869C266.398 152.869 266.397 152.869 266.396 152.869L106.513 150.145C106.389 150.143 106.291 150.041 106.293 149.918C106.295 149.795 106.395 149.698 106.517 149.698C106.518 149.698 106.519 149.698 106.521 149.698L266.403 152.422C266.527 152.424 266.625 152.526 266.623 152.649C266.621 152.772 266.521 152.869 266.4 152.869Z" fill="#91B3FA"/>
<path d="M221.073 190.867H158.929C157.241 190.867 155.973 189.665 156.299 188.374L157.097 185.221C157.337 184.272 158.38 183.576 159.619 183.538L219.529 181.668C220.823 181.628 221.97 182.315 222.252 183.301L223.689 188.324C224.063 189.629 222.789 190.867 221.073 190.867Z" fill="url(#paint3_linear_1898_39171)"/>
<path d="M192.382 184.413C192.26 184.413 192.161 184.315 192.159 184.193C192.157 184.069 192.256 183.967 192.379 183.966L194.947 183.928C195.068 183.928 195.172 184.025 195.174 184.149C195.175 184.272 195.077 184.374 194.953 184.376L192.386 184.413C192.385 184.413 192.384 184.413 192.382 184.413Z" fill="#91B3FA"/>
<path d="M158.6 189.15C158.589 189.15 158.577 189.149 158.565 189.147C158.443 189.128 158.359 189.013 158.379 188.891L158.745 186.597C158.944 185.354 160.001 184.439 161.259 184.421L188.488 184.023C188.602 184.018 188.714 184.12 188.715 184.243C188.717 184.367 188.619 184.468 188.495 184.47L161.266 184.868C160.226 184.883 159.351 185.64 159.187 186.668L158.821 188.961C158.803 189.072 158.708 189.15 158.6 189.15Z" fill="#91B3FA"/>
<path d="M244.79 141.056H113.385C112.186 141.056 111.213 140.083 111.213 138.884V72.8999C111.213 71.7003 112.186 70.7278 113.385 70.7278H244.79C245.99 70.7278 246.962 71.7003 246.962 72.8999V138.884C246.962 140.083 245.99 141.056 244.79 141.056Z" fill="#BDD0FB"/>
<path d="M124.666 128.952L123.363 140.1C123.26 140.974 124.326 141.479 124.938 140.846L136.432 128.952H124.666Z" fill="#7D97F4"/>
<path d="M186.62 132.015H116.624C114.74 132.015 113.213 130.488 113.213 128.604V103.087C113.213 101.168 114.794 99.6269 116.712 99.6767L186.708 101.495C188.557 101.543 190.031 103.055 190.031 104.905V128.604C190.031 130.488 188.504 132.015 186.62 132.015Z" fill="#7D97F4"/>
<path opacity="0.66" d="M184.399 130.417H118.425C116.65 130.417 115.21 129.079 115.21 127.429V105.08C115.21 103.399 116.701 102.049 118.509 102.093L184.482 103.685C186.225 103.727 187.614 105.052 187.614 106.672V127.429C187.614 129.079 186.175 130.417 184.399 130.417Z" fill="white"/>
<path opacity="0.66" d="M181.317 109.123H121.194C121.1 109.123 121.024 109.047 121.024 108.953V107.498C121.024 107.404 121.1 107.328 121.194 107.328H181.317C181.412 107.328 181.488 107.404 181.488 107.498V108.953C181.488 109.047 181.412 109.123 181.317 109.123Z" fill="white"/>
<path opacity="0.66" d="M181.317 126.437H121.194C121.1 126.437 121.024 126.36 121.024 126.266V124.812C121.024 124.718 121.1 124.641 121.194 124.641H181.317C181.412 124.641 181.488 124.718 181.488 124.812V126.266C181.488 126.36 181.412 126.437 181.317 126.437Z" fill="white"/>
<path opacity="0.66" d="M162.006 120.843H121.194C121.1 120.843 121.024 120.767 121.024 120.673V119.218C121.024 119.124 121.1 119.047 121.194 119.047H162.006C162.1 119.047 162.177 119.124 162.177 119.218V120.673C162.177 120.767 162.1 120.843 162.006 120.843Z" fill="white"/>
<path opacity="0.66" d="M146.557 115.046H121.194C121.1 115.046 121.024 114.97 121.024 114.876V113.421C121.024 113.327 121.1 113.251 121.194 113.251H146.557C146.651 113.251 146.728 113.327 146.728 113.421V114.876C146.728 114.97 146.651 115.046 146.557 115.046Z" fill="white"/>
<path opacity="0.66" d="M181.317 120.843H164.744C164.65 120.843 164.574 120.767 164.574 120.673V119.218C164.574 119.124 164.65 119.047 164.744 119.047H181.317C181.412 119.047 181.488 119.124 181.488 119.218V120.673C181.488 120.767 181.412 120.843 181.317 120.843Z" fill="white"/>
<path opacity="0.66" d="M181.317 115.046H150.494C150.4 115.046 150.323 114.97 150.323 114.876V113.421C150.323 113.327 150.4 113.25 150.494 113.25H181.317C181.412 113.25 181.488 113.327 181.488 113.421V114.876C181.488 114.97 181.412 115.046 181.317 115.046Z" fill="white"/>
<path d="M232.727 94.2206L233.573 101.453C233.639 102.02 232.948 102.348 232.551 101.937L225.093 94.2206H232.727Z" fill="#7D97F4"/>
<path d="M192.533 96.208H237.945C239.167 96.208 240.158 95.2172 240.158 93.9949V77.4399C240.158 76.1951 239.132 75.1952 237.887 75.2276L192.476 76.4071C191.276 76.4382 190.32 77.4196 190.32 78.6194V93.9949C190.32 95.2172 191.311 96.208 192.533 96.208Z" fill="#7D97F4"/>
<path opacity="0.66" d="M193.974 95.1711H236.776C237.928 95.1711 238.862 94.3033 238.862 93.2327V78.7328C238.862 77.6425 237.895 76.7668 236.722 76.7951L193.92 77.8282C192.789 77.8555 191.888 78.7149 191.888 79.7659V93.2327C191.888 94.3033 192.822 95.1711 193.974 95.1711Z" fill="white"/>
<path opacity="0.66" d="M195.973 81.3562H234.979C235.041 81.3562 235.09 81.3068 235.09 81.2457V80.3019C235.09 80.2409 235.041 80.1914 234.979 80.1914H195.973C195.912 80.1914 195.863 80.2409 195.863 80.3019V81.2457C195.863 81.3068 195.912 81.3562 195.973 81.3562Z" fill="white"/>
<path opacity="0.66" d="M195.973 92.5887H234.979C235.041 92.5887 235.09 92.5392 235.09 92.4781V91.5344C235.09 91.4733 235.041 91.4238 234.979 91.4238H195.973C195.912 91.4238 195.863 91.4733 195.863 91.5344V92.4781C195.863 92.5392 195.912 92.5887 195.973 92.5887Z" fill="white"/>
<path opacity="0.66" d="M208.502 88.9595H234.979C235.041 88.9595 235.09 88.91 235.09 88.849V87.9052C235.09 87.8442 235.041 87.7947 234.979 87.7947H208.502C208.441 87.7947 208.391 87.8442 208.391 87.9052V88.849C208.391 88.91 208.441 88.9595 208.502 88.9595Z" fill="white"/>
<path opacity="0.66" d="M218.525 85.1988H234.979C235.041 85.1988 235.09 85.1493 235.09 85.0882V84.1445C235.09 84.0834 235.041 84.0339 234.979 84.0339H218.525C218.463 84.0339 218.414 84.0834 218.414 84.1445V85.0882C218.414 85.1493 218.464 85.1988 218.525 85.1988Z" fill="white"/>
<path opacity="0.66" d="M195.973 88.9595H206.725C206.787 88.9595 206.836 88.91 206.836 88.849V87.9052C206.836 87.8442 206.787 87.7947 206.725 87.7947H195.973C195.912 87.7947 195.863 87.8442 195.863 87.9052V88.849C195.863 88.91 195.912 88.9595 195.973 88.9595Z" fill="white"/>
<path opacity="0.66" d="M195.973 85.1987H215.971C216.032 85.1987 216.081 85.1492 216.081 85.0881V84.1444C216.081 84.0833 216.032 84.0338 215.971 84.0338H195.973C195.912 84.0338 195.863 84.0833 195.863 84.1444V85.0882C195.863 85.1492 195.912 85.1987 195.973 85.1987Z" fill="white"/>
<path d="M102.22 87.4639C101.835 87.4639 101.449 87.4493 101.064 87.421C94.1129 86.903 87.694 81.6575 85.8018 74.9483C85.5587 74.0876 86.0603 73.1934 86.9201 72.9503C87.7825 72.709 88.6758 73.2089 88.918 74.0687C90.4538 79.5144 95.6633 83.7713 101.305 84.1922C106.946 84.6122 112.731 81.1756 115.057 76.0185C115.424 75.2034 116.383 74.8409 117.198 75.2085C118.013 75.5761 118.376 76.5347 118.008 77.3499C115.301 83.3522 108.792 87.4639 102.22 87.4639Z" fill="#00C4F5"/>
<path d="M123.915 74.5083C123.915 71.033 121.097 68.2157 117.622 68.2157C114.147 68.2157 111.329 71.033 111.329 74.5083C111.329 77.9836 114.147 80.801 117.622 80.801C121.097 80.8018 123.915 77.9836 123.915 74.5083Z" fill="#E4E3EE"/>
<path d="M88.0978 81.4515L92.5188 78.8824C93.0789 78.5569 93.4276 77.8671 93.4302 76.8879L89.0092 79.457C89.0075 80.4362 88.6587 81.126 88.0978 81.4515Z" fill="#DAD9E8"/>
<mask id="mask0_1898_39171" style="mask-type:luminance" maskUnits="userSpaceOnUse" x="88" y="76" width="6" height="6">
<path d="M88.0978 81.4515L92.5188 78.8824C93.0789 78.5569 93.4276 77.8671 93.4302 76.8879L89.0092 79.457C89.0075 80.4362 88.6587 81.126 88.0978 81.4515Z" fill="white"/>
</mask>
<g mask="url(#mask0_1898_39171)">
<path d="M88.0978 81.4511L92.5188 78.882C93.017 78.5925 93.3477 78.0153 93.4172 77.2028L88.9962 79.7719C88.9267 80.5844 88.596 81.1616 88.0978 81.4511Z" fill="#DAD9E8"/>
<path d="M88.9962 79.7723L93.4172 77.2032C93.4258 77.1018 93.4301 76.997 93.431 76.8879L89.01 79.457C89.0091 79.5653 89.0048 79.6709 88.9962 79.7723Z" fill="#DAD9E8"/>
</g>
<path d="M80.2125 57.6174L75.7915 60.1865C76.3584 59.8567 77.1435 59.9014 78.0067 60.3996L82.4277 57.8305C81.5645 57.3323 80.7794 57.2876 80.2125 57.6174Z" fill="#EBEBF1"/>
<mask id="mask1_1898_39171" style="mask-type:luminance" maskUnits="userSpaceOnUse" x="75" y="57" width="8" height="4">
<path d="M80.2125 57.6174L75.7915 60.1865C76.3584 59.8567 77.1435 59.9014 78.0067 60.3996L82.4277 57.8305C81.5645 57.3323 80.7794 57.2876 80.2125 57.6174Z" fill="white"/>
</mask>
<g mask="url(#mask1_1898_39171)">
<path d="M78.0067 60.3996L82.4277 57.8305C81.5645 57.3323 80.7803 57.2876 80.2125 57.6174L75.7915 60.1865C76.3593 59.8567 77.1443 59.9005 78.0067 60.3996Z" fill="#EBEBF1"/>
</g>
<path d="M89.0098 79.4568L93.4299 76.8877L93.4557 67.7811L89.0355 70.3502L89.0098 79.4568Z" fill="#DAD9E8"/>
<path d="M85.9315 64.9743L90.3524 62.406L82.4278 57.8304L78.0068 60.3995L85.9315 64.9743Z" fill="#EBEBF1"/>
<path d="M89.0356 70.3503L93.4566 67.7812C93.4626 65.8142 92.0651 63.3945 90.3532 62.4059L85.9323 64.975C87.6441 65.9628 89.0408 68.3824 89.0356 70.3503Z" fill="#E4E3EE"/>
<mask id="mask2_1898_39171" style="mask-type:luminance" maskUnits="userSpaceOnUse" x="85" y="62" width="9" height="9">
<path d="M89.0356 70.3503L93.4566 67.7812C93.4626 65.8142 92.0651 63.3945 90.3532 62.4059L85.9323 64.975C87.6441 65.9628 89.0408 68.3824 89.0356 70.3503Z" fill="white"/>
</mask>
<g mask="url(#mask2_1898_39171)">
<path d="M89.0356 70.3502L93.4566 67.7811C93.4618 66.083 92.4216 64.0481 91.0361 62.8877L86.6151 65.4568C88.0006 66.6172 89.0399 68.6521 89.0356 70.3502Z" fill="#E4E3EE"/>
<path d="M86.6139 65.4559L91.0349 62.8868C90.815 62.703 90.5865 62.5406 90.352 62.4058L85.931 64.9749C86.1664 65.1097 86.394 65.2721 86.6139 65.4559Z" fill="#EBEBF1"/>
</g>
<path d="M78.007 60.3999C76.2934 59.4104 74.8864 60.2118 74.8813 62.1787L74.8555 71.2853C74.8495 73.2548 76.247 75.6745 77.9606 76.664L85.886 81.2396C87.5979 82.2274 89.004 81.4268 89.01 79.4573L89.0358 70.3507C89.041 68.3837 87.6443 65.9641 85.9324 64.9755L78.007 60.3999Z" fill="#C4C3EC"/>
<path d="M79.1139 63.3294C77.8821 62.6182 76.8712 63.1937 76.8669 64.6084L76.848 71.1544C76.8437 72.57 77.8487 74.3093 79.0804 75.0205L84.7769 78.3094C86.0069 79.0198 87.0179 78.4443 87.0222 77.0279L87.0402 70.4819C87.0445 69.0681 86.0404 67.3287 84.8095 66.6183L79.1139 63.3294Z" fill="#042F8F"/>
<path d="M77.7173 127.251C87.0773 121.46 89.131 113.919 89.2057 108.612C89.1928 113.107 86.3059 117.6 80.5106 121.088C68.5687 128.276 48.7967 128.476 36.3497 121.535C29.9437 117.963 26.7261 113.196 26.7399 108.43C26.9039 112.867 27.7397 116.574 31.3979 121.341C33.8794 124.575 38.6225 127.945 42.9344 129.536C45.1341 130.349 51.8296 132.821 60.4337 132.256C65.1269 131.947 71.9358 130.829 77.7173 127.251Z" fill="#919DD6"/>
<path d="M89.2057 108.612L89.2908 78.4807C89.2779 82.9755 86.3918 87.4687 80.5957 90.9568C68.6538 98.1436 48.8826 98.3438 36.4348 91.4035C30.0288 87.8312 26.8112 83.064 26.8249 78.2986L26.739 108.43C26.7253 113.196 29.9429 117.963 36.3489 121.535C48.7958 128.476 68.567 128.275 80.5098 121.089C86.3059 117.6 89.1928 113.107 89.2057 108.612Z" fill="#B7B6E3"/>
<path d="M35.5199 65.823C23.578 73.0098 23.9877 84.4629 36.4347 91.4041C48.8816 98.3452 68.6537 98.1442 80.5956 90.9574C92.5375 83.7698 92.1277 72.3166 79.6808 65.3763C67.2338 58.4352 47.4626 58.6353 35.5199 65.823Z" fill="#E4E3EE"/>
<path d="M76.5518 83.6228C84.771 78.5533 86.6616 72.2238 87.3728 69.8402C86.4889 73.0922 83.937 76.223 79.7015 78.7732C68.6821 85.4051 50.4382 85.5898 38.9524 79.1855C34.2024 76.5374 31.3524 73.1763 30.4222 69.677C30.9049 71.2626 32.3754 76.089 36.4314 79.8598C39.6112 82.8171 42.8082 85.0203 48.9058 86.8636C57.7529 89.5384 69.1211 88.2053 76.5518 83.6228Z" fill="#B7B6E3"/>
<path d="M47.1388 29.3864C40.8582 33.1666 41.0738 39.1895 47.6198 42.84C54.1658 46.4905 64.5642 46.3849 70.8448 42.6055C77.1254 38.8253 76.9098 32.8024 70.3638 29.1519C63.8187 25.5013 53.4203 25.607 47.1388 29.3864Z" fill="#E4E3EE"/>
<path d="M78.4405 28.1737C72.4287 24.9097 65.7015 23.3018 58.4468 23.3945C50.9603 23.4907 44.2519 25.2713 38.5073 28.6865C40.6796 27.3792 43.7168 27.478 47.1388 29.3865C53.4194 25.6063 63.8178 25.5015 70.3647 29.152C76.9107 32.8026 77.1263 38.8255 70.8457 42.6057C64.5651 46.3859 54.1667 46.4907 47.6207 42.8402C41.0738 39.1897 40.8591 33.1668 47.1397 29.3865C43.7176 27.478 40.6804 27.3783 38.5081 28.6865C35.8239 30.4233 30.8275 33.6581 27.8237 40.3449C24.8063 47.0627 26.0071 52.5832 26.5843 55.2365C27.6588 59.2804 30.8953 63.0967 36.2895 66.1047C49.3326 73.3774 70.0494 73.1678 82.5625 65.6366C87.3726 62.7411 90.2699 59.1859 91.274 55.4924C91.8692 52.8658 92.2995 50.9675 91.9036 46.9193C91.6871 44.7067 90.9527 42.2561 89.7227 39.6363C88.9325 37.9554 85.7853 32.1618 78.4405 28.1737Z" fill="#DAD9E8"/>
<path d="M47.0607 62.3553C47.211 64.4967 48.3628 68.2511 54.3935 69.3437C64.5385 70.1751 75.1911 68.2769 82.8228 63.6824C85.9683 61.7893 88.3055 59.6161 89.8378 57.3073C94.0097 49.5888 89.4805 41.769 85.0483 43.3529C84.5914 43.5161 84.1026 43.992 83.7737 44.3484C82.5437 46.202 80.6686 47.9457 78.1433 49.4651C72.0173 53.1517 63.4682 54.6755 55.3254 54.0081C49.0826 54.161 46.8623 59.5208 47.0607 62.3553Z" fill="#042F8F"/>
<path d="M87.3727 69.84L91.2731 55.493C90.269 59.1856 87.3718 62.7408 82.5617 65.6355C70.0486 73.1667 49.3317 73.3763 36.2887 66.1036C30.8954 63.0956 27.6589 59.2801 26.6024 55.3058L30.4212 69.6751C31.3515 73.1744 34.2014 76.5355 38.9514 79.1836C50.4372 85.5879 68.6812 85.4032 79.7006 78.7713C83.9369 76.2228 86.4888 73.0928 87.3727 69.84Z" fill="#DAD9E8"/>
<path d="M85.3321 57.0957C85.3458 57.1524 85.3621 57.2091 85.3776 57.2658C87.5379 55.5874 89.1312 53.7209 90.1697 51.7771C89.51 49.025 87.3085 47.7315 85.8852 49.2613C84.0815 51.5057 85.3183 57.0407 85.3321 57.0957Z" fill="#05D4F5"/>
<path d="M59.5602 64.8165C59.562 64.8792 59.5663 64.9411 59.5688 65.0029C63.051 65.0029 66.522 64.6516 69.8392 63.9808C69.6485 60.7949 67.1722 58.3719 64.3196 58.5789C61.1244 59.0015 59.5018 62.4733 59.5602 64.8165Z" fill="#05D4F5"/>
<path d="M41.1666 66.6217C41.1666 62.8441 38.515 58.2504 35.2433 56.3625C31.9716 54.4736 29.32 56.0051 29.32 59.7819C29.32 63.5595 31.9724 68.1532 35.2433 70.0411C38.5141 71.93 41.1666 70.3985 41.1666 66.6217Z" fill="#05D4F5"/>
<path d="M38.5521 65.1116C38.5521 63.0011 37.0705 60.4355 35.2426 59.3798C33.4156 58.3251 31.934 59.1797 31.934 61.2901C31.934 63.4006 33.4156 65.9662 35.2426 67.0219C37.0705 68.0775 38.5521 67.222 38.5521 65.1116Z" fill="#12B0F3"/>
<path d="M73.1983 28.4888C73.1433 28.4888 73.0866 28.4845 73.0308 28.4751C72.4793 28.3832 72.1074 27.8618 72.1993 27.3104L75.9168 5.04309C76.0087 4.49165 76.5301 4.11802 77.0815 4.21164C77.633 4.30441 78.0049 4.82492 77.913 5.37637L74.1946 27.6436C74.1122 28.1384 73.6836 28.4888 73.1983 28.4888Z" fill="#362A71"/>
<path d="M81.3971 4.36959C81.416 1.97571 79.4902 0.0190347 77.0955 0.000137889C74.7007 -0.0187589 72.7449 1.90699 72.726 4.30173C72.7071 6.69561 74.6329 8.65228 77.0276 8.67118C79.4224 8.69007 81.3782 6.76346 81.3971 4.36959Z" fill="#1393F2"/>
<path d="M43.8842 44.3252C43.6042 44.3252 43.3259 44.2101 43.1258 43.9842L27.8967 26.7812C27.5265 26.3629 27.5651 25.723 27.9835 25.3528C28.4018 24.9826 29.0417 25.0213 29.4119 25.4396L44.641 42.6425C45.0112 43.0608 44.9725 43.7007 44.5542 44.0709C44.3618 44.2419 44.1222 44.3252 43.8842 44.3252Z" fill="#362A71"/>
<path d="M32.9894 26.145C33.0083 23.7502 31.0825 21.7936 28.6878 21.7755C26.293 21.7566 24.3372 23.6824 24.3183 26.0771C24.2994 28.4719 26.226 30.4277 28.6199 30.4466C31.0146 30.4655 32.9705 28.5389 32.9894 26.145Z" fill="#1393F2"/>
<path d="M52.6396 120.543C48.9873 120.543 45.336 119.726 42.0342 118.098C35.6849 114.967 30.928 108.985 29.3072 102.094C29.1028 101.223 29.6422 100.352 30.5123 100.148C31.3815 99.9436 32.2542 100.483 32.4587 101.353C33.8596 107.312 37.9748 112.487 43.4652 115.193C48.9564 117.901 55.566 118.015 61.1465 115.498C61.9625 115.132 62.9203 115.494 63.2879 116.308C63.6555 117.123 63.293 118.082 62.4779 118.45C59.3823 119.847 56.0101 120.543 52.6396 120.543Z" fill="#00C4F5"/>
<path d="M69.2182 117.874C70.038 114.403 67.8881 110.924 64.4164 110.104C60.9446 109.284 57.4657 111.434 56.6459 114.906C55.8261 118.377 57.976 121.856 61.4477 122.676C64.9195 123.496 68.3984 121.346 69.2182 117.874Z" fill="#E4E3EE"/>
<path d="M35.2432 105.502L39.6642 102.933C40.2242 102.607 40.573 101.918 40.5756 100.938L36.1546 103.507C36.152 104.486 35.8033 105.176 35.2432 105.502Z" fill="#DAD9E8"/>
<mask id="mask3_1898_39171" style="mask-type:luminance" maskUnits="userSpaceOnUse" x="35" y="100" width="6" height="6">
<path d="M35.2432 105.502L39.6642 102.933C40.2242 102.607 40.573 101.918 40.5756 100.938L36.1546 103.507C36.152 104.486 35.8033 105.176 35.2432 105.502Z" fill="white"/>
</mask>
<g mask="url(#mask3_1898_39171)">
<path d="M35.2433 105.502L39.6643 102.933C40.1625 102.643 40.4932 102.066 40.5627 101.254L36.1417 103.823C36.0713 104.634 35.7406 105.212 35.2433 105.502Z" fill="#DAD9E8"/>
<path d="M36.1409 103.823L40.5619 101.254C40.5705 101.152 40.5748 101.047 40.5757 100.938L36.1547 103.507C36.1538 103.616 36.1495 103.721 36.1409 103.823Z" fill="#DAD9E8"/>
</g>
<path d="M27.3572 81.6669L22.9362 84.236C23.504 83.9061 24.2882 83.9508 25.1514 84.449L29.5716 81.8799C28.7092 81.3817 27.925 81.3379 27.3572 81.6669Z" fill="#EBEBF1"/>
<mask id="mask4_1898_39171" style="mask-type:luminance" maskUnits="userSpaceOnUse" x="22" y="81" width="8" height="4">
<path d="M27.3572 81.6669L22.9362 84.236C23.504 83.9061 24.2882 83.9508 25.1514 84.449L29.5716 81.8799C28.7092 81.3817 27.925 81.3379 27.3572 81.6669Z" fill="white"/>
</mask>
<g mask="url(#mask4_1898_39171)">
<path d="M25.1511 84.4489L29.5712 81.8798C28.7088 81.3816 27.9237 81.3369 27.356 81.6668L22.935 84.2359C23.5036 83.9069 24.2887 83.9507 25.1511 84.4489Z" fill="#EBEBF1"/>
</g>
<path d="M36.1548 103.507L40.5758 100.938L40.6015 91.8315L36.1806 94.4006L36.1548 103.507Z" fill="#DAD9E8"/>
<path d="M33.0773 89.0248L37.4983 86.4557L29.5728 81.8801L25.1518 84.4492L33.0773 89.0248Z" fill="#EBEBF1"/>
<path d="M36.1805 94.4005L40.6015 91.8314C40.6075 89.8645 39.21 87.444 37.4981 86.4562L33.0771 89.0253C34.789 90.0131 36.1865 92.4327 36.1805 94.4005Z" fill="#E4E3EE"/>
<mask id="mask5_1898_39171" style="mask-type:luminance" maskUnits="userSpaceOnUse" x="33" y="86" width="8" height="9">
<path d="M36.1805 94.4005L40.6015 91.8314C40.6075 89.8645 39.21 87.444 37.4981 86.4562L33.0771 89.0253C34.789 90.0131 36.1865 92.4327 36.1805 94.4005Z" fill="white"/>
</mask>
<g mask="url(#mask5_1898_39171)">
<path d="M36.1805 94.4006L40.6014 91.8315C40.6066 90.1334 39.5664 88.0985 38.1801 86.9373L33.7591 89.5064C35.1454 90.6676 36.1856 92.7025 36.1805 94.4006Z" fill="#E4E3EE"/>
<path d="M33.759 89.5062L38.18 86.9371C37.9609 86.7533 37.7316 86.5909 37.498 86.4552L33.077 89.0243C33.3115 89.16 33.5399 89.3224 33.759 89.5062Z" fill="#EBEBF1"/>
</g>
<path d="M25.1516 84.4491C23.4372 83.4596 22.0311 84.261 22.0259 86.2279L22.0001 95.3345C21.9941 97.304 23.3916 99.7237 25.1052 100.713L33.0307 105.289C34.7426 106.277 36.1487 105.476 36.1547 103.506L36.1805 94.3999C36.1865 92.433 34.789 90.0133 33.0771 89.0247L25.1516 84.4491Z" fill="#C4C3EC"/>
<path d="M26.2596 87.3795C25.0279 86.6683 24.0169 87.2438 24.0126 88.6576L23.9937 95.2036C23.9894 96.6192 24.9944 98.3585 26.2261 99.0698L31.9226 102.359C33.1527 103.069 34.1636 102.493 34.1679 101.077L34.1868 94.5311C34.1911 93.1173 33.1862 91.3779 31.9561 90.6676L26.2596 87.3795Z" fill="#05D4F5"/>
<defs>
<linearGradient id="paint0_linear_1898_39171" x1="310.96" y1="222.582" x2="211.664" y2="41.7676" gradientUnits="userSpaceOnUse">
<stop stop-color="#DAE3FE"/>
<stop offset="1" stop-color="#E9EFFD"/>
</linearGradient>
<linearGradient id="paint1_linear_1898_39171" x1="173.547" y1="209.239" x2="225.607" y2="95.4124" gradientUnits="userSpaceOnUse">
<stop stop-color="#09005D"/>
<stop offset="1" stop-color="#1A0F91"/>
</linearGradient>
<linearGradient id="paint2_linear_1898_39171" x1="212.574" y1="27.6684" x2="172.867" y2="152.965" gradientUnits="userSpaceOnUse">
<stop stop-color="#09005D"/>
<stop offset="1" stop-color="#1A0F91"/>
</linearGradient>
<linearGradient id="paint3_linear_1898_39171" x1="201.085" y1="167.359" x2="173.29" y2="218.978" gradientUnits="userSpaceOnUse">
<stop stop-color="#09005D"/>
<stop offset="1" stop-color="#1A0F91"/>
</linearGradient>
</defs>
</svg>
