<svg width="291" height="202" viewBox="0 0 291 202" fill="none" xmlns="http://www.w3.org/2000/svg">
<path d="M291 190.574H0V190.719H291V190.574Z" fill="#EBEBEB"/>
<path d="M261.842 199.941H242.565V200.087H261.842V199.941Z" fill="#EBEBEB"/>
<path d="M192.77 201.521H187.711V201.666H192.77V201.521Z" fill="#EBEBEB"/>
<path d="M241.983 194.537H230.813V194.682H241.983V194.537Z" fill="#EBEBEB"/>
<path d="M55.6695 195.515H30.5311V195.66H55.6695V195.515Z" fill="#EBEBEB"/>
<path d="M64.5374 195.515H60.8516V195.66H64.5374V195.515Z" fill="#EBEBEB"/>
<path d="M131.036 197.973H76.5161V198.118H131.036V197.973Z" fill="#EBEBEB"/>
<path d="M137.942 164.618H25.5585C23.727 164.618 22.2365 163.127 22.2365 161.296V3.32212C22.2365 1.49056 23.727 6.10352e-05 25.5585 6.10352e-05H137.942C139.773 6.10352e-05 141.264 1.49056 141.264 3.32212V161.296C141.264 163.127 139.773 164.618 137.942 164.618ZM25.5585 0.146143C23.8067 0.146143 22.382 1.57088 22.382 3.3227V161.296C22.382 163.048 23.8067 164.473 25.5585 164.473H137.942C139.693 164.473 141.118 163.048 141.118 161.296V3.32212C141.118 1.57088 139.693 0.145561 137.942 0.145561L25.5585 0.146143Z" fill="#EBEBEB"/>
<path d="M263.826 164.618H151.443C149.612 164.618 148.122 163.127 148.122 161.296V3.32212C148.122 1.49056 149.612 6.10352e-05 151.443 6.10352e-05H263.826C265.659 6.10352e-05 267.149 1.49056 267.149 3.32212V161.296C267.149 163.127 265.659 164.618 263.826 164.618ZM151.443 0.146143C149.692 0.146143 148.267 1.57088 148.267 3.3227V161.296C148.267 163.048 149.692 164.473 151.443 164.473H263.826C265.578 164.473 267.003 163.048 267.003 161.296V3.32212C267.003 1.57088 265.578 0.145561 263.826 0.145561L151.443 0.146143Z" fill="#EBEBEB"/>
<path d="M256.645 44.7773H34.3542V192.104H256.645V44.7773Z" fill="#E0E0E0"/>
<path d="M145.5 191.443V41.3086C145.5 41.3086 173.827 32.1177 249.563 32.1177V191.443H145.5Z" fill="#F0F0F0"/>
<path d="M145.5 191.443V41.3086C145.5 41.3086 117.173 32.1177 41.4366 32.1177V191.443H145.5Z" fill="#E6E6E6"/>
<path d="M153.601 56.8055C152.895 56.8055 152.276 56.2905 152.165 55.5705C152.043 54.7761 152.589 54.0335 153.383 53.9118C153.771 53.8519 192.78 47.9498 239.059 47.9498C239.863 47.9498 240.514 48.6011 240.514 49.4048C240.514 50.2086 239.863 50.8598 239.059 50.8598C193.013 50.8598 154.21 56.7287 153.824 56.7881C153.749 56.7997 153.675 56.8055 153.601 56.8055Z" fill="#E0E0E0"/>
<path d="M153.601 67.5907C152.878 67.5907 152.252 67.0523 152.16 66.3167C152.06 65.5194 152.625 64.7919 153.422 64.6918C153.853 64.6376 196.998 59.2762 239.059 59.2762C239.863 59.2762 240.514 59.9275 240.514 60.7312C240.514 61.535 239.863 62.1862 239.059 62.1862C197.185 62.1862 154.214 67.5249 153.785 67.5791C153.723 67.5872 153.661 67.5907 153.601 67.5907Z" fill="#E0E0E0"/>
<path d="M153.601 78.3763C152.865 78.3763 152.232 77.8193 152.156 77.0703C152.073 76.2712 152.654 75.5565 153.454 75.4739C153.927 75.425 201.21 70.6019 239.059 70.6019C239.862 70.6019 240.514 71.2532 240.514 72.0569C240.514 72.8607 239.862 73.5119 239.059 73.5119C201.358 73.5119 154.223 78.3198 153.752 78.3681C153.701 78.374 153.651 78.3763 153.601 78.3763Z" fill="#E0E0E0"/>
<path d="M153.601 89.1618C152.853 89.1618 152.217 88.588 152.153 87.8285C152.086 87.0276 152.681 86.324 153.481 86.2571C153.997 86.214 205.421 81.9282 239.059 81.9282C239.862 81.9282 240.514 82.5794 240.514 83.3832C240.514 84.1869 239.862 84.8382 239.059 84.8382C205.544 84.8382 154.239 89.1135 153.725 89.1566C153.683 89.1601 153.642 89.1618 153.601 89.1618Z" fill="#E0E0E0"/>
<path d="M153.601 99.9481C152.842 99.9481 152.203 99.3597 152.151 98.5914C152.096 97.79 152.702 97.0957 153.504 97.0416C154.062 97.0037 209.629 93.2551 239.059 93.2551C239.862 93.2551 240.514 93.9063 240.514 94.7101C240.514 95.5138 239.862 96.1651 239.059 96.1651C209.728 96.1651 154.258 99.9067 153.701 99.9446C153.668 99.9469 153.635 99.9481 153.601 99.9481Z" fill="#E0E0E0"/>
<path d="M153.601 110.734C152.834 110.734 152.192 110.133 152.15 109.357C152.107 108.555 152.722 107.869 153.525 107.826C154.125 107.793 213.837 104.581 239.059 104.581C239.862 104.581 240.514 105.233 240.514 106.036C240.514 106.84 239.862 107.491 239.059 107.491C213.915 107.491 154.281 110.699 153.682 110.731C153.655 110.733 153.628 110.734 153.601 110.734Z" fill="#E0E0E0"/>
<path d="M153.602 121.519C152.827 121.519 152.182 120.908 152.149 120.125C152.116 119.322 152.739 118.644 153.542 118.61C154.185 118.584 218.043 115.907 239.059 115.907C239.862 115.907 240.514 116.558 240.514 117.362C240.514 118.166 239.862 118.817 239.059 118.817C218.103 118.817 154.306 121.491 153.664 121.518C153.643 121.519 153.623 121.519 153.602 121.519Z" fill="#E0E0E0"/>
<path d="M153.602 132.305C152.82 132.305 152.173 131.683 152.149 130.896C152.123 130.093 152.754 129.421 153.557 129.396C154.242 129.374 222.247 127.233 239.058 127.233C239.862 127.233 240.513 127.884 240.513 128.688C240.513 129.492 239.862 130.143 239.058 130.143C222.292 130.143 154.333 132.283 153.649 132.304C153.633 132.305 153.618 132.305 153.602 132.305Z" fill="#E0E0E0"/>
<path d="M153.602 143.091C152.814 143.091 152.166 142.461 152.148 141.669C152.13 140.866 152.767 140.2 153.57 140.182C154.298 140.165 226.451 138.56 239.059 138.56C239.862 138.56 240.514 139.211 240.514 140.015C240.514 140.818 239.862 141.47 239.059 141.47C226.483 141.47 154.363 143.075 153.636 143.091C153.625 143.091 153.613 143.091 153.602 143.091Z" fill="#E0E0E0"/>
<path d="M153.603 153.877C152.808 153.877 152.159 153.239 152.148 152.442C152.137 151.638 152.779 150.978 153.583 150.967C154.353 150.956 230.655 149.886 239.059 149.886C239.862 149.886 240.514 150.537 240.514 151.341C240.514 152.145 239.862 152.796 239.059 152.796C230.674 152.796 154.393 153.866 153.623 153.877C153.616 153.877 153.609 153.877 153.603 153.877Z" fill="#E0E0E0"/>
<path d="M153.603 164.662C152.803 164.662 152.153 164.018 152.148 163.217C152.143 162.414 152.789 161.758 153.593 161.752C154.406 161.747 234.857 161.212 239.059 161.212C239.862 161.212 240.514 161.863 240.514 162.667C240.514 163.471 239.862 164.122 239.059 164.122C234.867 164.122 154.425 164.657 153.613 164.662C153.61 164.662 153.606 164.662 153.603 164.662Z" fill="#E0E0E0"/>
<path d="M239.059 175.448H153.603C152.799 175.448 152.148 174.797 152.148 173.993C152.148 173.189 152.799 172.538 153.603 172.538H239.059C239.862 172.538 240.514 173.189 240.514 173.993C240.514 174.797 239.862 175.448 239.059 175.448Z" fill="#E0E0E0"/>
<path d="M137.398 56.8055C138.104 56.8055 138.724 56.2905 138.835 55.5705C138.956 54.7761 138.412 54.0335 137.617 53.9118C137.229 53.8519 98.22 47.9498 51.9411 47.9498C51.1373 47.9498 50.4861 48.6011 50.4861 49.4048C50.4861 50.2086 51.1373 50.8598 51.9411 50.8598C97.9872 50.8598 136.79 56.7287 137.176 56.7881C137.251 56.7997 137.325 56.8055 137.398 56.8055Z" fill="#F0F0F0"/>
<path d="M137.398 67.5907C138.121 67.5907 138.748 67.0523 138.841 66.3167C138.941 65.5194 138.376 64.7919 137.578 64.6918C137.148 64.6376 94.0028 59.2762 51.9411 59.2762C51.1373 59.2762 50.4861 59.9275 50.4861 60.7312C50.4861 61.535 51.1373 62.1862 51.9411 62.1862C93.8154 62.1862 136.786 67.5249 137.216 67.5791C137.277 67.5872 137.339 67.5907 137.398 67.5907Z" fill="#F0F0F0"/>
<path d="M137.398 78.3763C138.135 78.3763 138.767 77.8193 138.844 77.0703C138.927 76.2712 138.345 75.5565 137.546 75.4739C137.073 75.425 89.7897 70.6019 51.9411 70.6019C51.1373 70.6019 50.4861 71.2532 50.4861 72.0569C50.4861 72.8607 51.1373 73.5119 51.9411 73.5119C89.6419 73.5119 136.776 78.3198 137.248 78.3681C137.298 78.374 137.349 78.3763 137.398 78.3763Z" fill="#F0F0F0"/>
<path d="M137.398 89.1618C138.147 89.1618 138.783 88.588 138.846 87.8285C138.914 87.0276 138.319 86.324 137.518 86.2571C137.003 86.214 85.5784 81.9282 51.9411 81.9282C51.1373 81.9282 50.4861 82.5794 50.4861 83.3832C50.4861 84.1869 51.1373 84.8382 51.9411 84.8382C85.4556 84.8382 136.761 89.1135 137.275 89.1566C137.316 89.1601 137.358 89.1618 137.398 89.1618Z" fill="#F0F0F0"/>
<path d="M137.399 99.9481C138.157 99.9481 138.796 99.3597 138.849 98.5914C138.904 97.79 138.298 97.0957 137.496 97.0416C136.938 97.0037 81.3705 93.2551 51.9417 93.2551C51.138 93.2551 50.4867 93.9063 50.4867 94.7101C50.4867 95.5138 51.138 96.1651 51.9417 96.1651C81.2722 96.1651 136.742 99.9067 137.299 99.9446C137.332 99.9469 137.365 99.9481 137.399 99.9481Z" fill="#F0F0F0"/>
<path d="M137.398 110.734C138.166 110.734 138.808 110.133 138.85 109.357C138.893 108.555 138.278 107.869 137.475 107.826C136.875 107.793 77.1632 104.581 51.9411 104.581C51.1373 104.581 50.4861 105.233 50.4861 106.036C50.4861 106.84 51.1373 107.491 51.9411 107.491C77.0846 107.491 136.719 110.699 137.318 110.731C137.345 110.733 137.372 110.734 137.398 110.734Z" fill="#F0F0F0"/>
<path d="M137.398 121.519C138.173 121.519 138.817 120.908 138.851 120.125C138.884 119.322 138.261 118.644 137.458 118.61C136.815 118.584 72.9571 115.907 51.9411 115.907C51.1373 115.907 50.4861 116.558 50.4861 117.362C50.4861 118.166 51.1373 118.817 51.9411 118.817C72.8966 118.817 136.694 121.491 137.336 121.518C137.357 121.519 137.378 121.519 137.398 121.519Z" fill="#F0F0F0"/>
<path d="M137.398 132.305C138.18 132.305 138.827 131.683 138.851 130.896C138.877 130.093 138.246 129.421 137.443 129.396C136.758 129.374 68.7533 127.233 51.9417 127.233C51.138 127.233 50.4867 127.884 50.4867 128.688C50.4867 129.492 51.138 130.143 51.9417 130.143C68.7074 130.143 136.667 132.283 137.351 132.304C137.366 132.305 137.382 132.305 137.398 132.305Z" fill="#F0F0F0"/>
<path d="M137.397 143.091C138.186 143.091 138.834 142.461 138.852 141.669C138.87 140.866 138.232 140.199 137.429 140.182C136.702 140.165 64.549 138.56 51.9411 138.56C51.1373 138.56 50.4861 139.211 50.4861 140.015C50.4861 140.818 51.1373 141.47 51.9411 141.47C64.5164 141.47 136.637 143.075 137.364 143.091C137.375 143.091 137.387 143.091 137.397 143.091Z" fill="#F0F0F0"/>
<path d="M137.397 153.877C138.192 153.877 138.841 153.239 138.852 152.442C138.863 151.638 138.221 150.978 137.417 150.967C136.647 150.956 60.3452 149.886 51.9411 149.886C51.1373 149.886 50.4861 150.537 50.4861 151.341C50.4861 152.145 51.1373 152.796 51.9411 152.796C60.3254 152.796 136.607 153.866 137.376 153.877C137.383 153.877 137.39 153.877 137.397 153.877Z" fill="#F0F0F0"/>
<path d="M137.397 164.662C138.196 164.662 138.846 164.018 138.852 163.217C138.857 162.414 138.21 161.758 137.407 161.752C136.594 161.747 56.1431 161.212 51.9411 161.212C51.1373 161.212 50.4861 161.863 50.4861 162.667C50.4861 163.471 51.1373 164.122 51.9411 164.122C56.1332 164.122 136.575 164.657 137.387 164.662C137.39 164.662 137.394 164.662 137.397 164.662Z" fill="#F0F0F0"/>
<path d="M51.9411 175.448H137.397C138.2 175.448 138.852 174.797 138.852 173.993C138.852 173.189 138.2 172.538 137.397 172.538H51.9411C51.1373 172.538 50.4861 173.189 50.4861 173.993C50.4861 174.797 51.1373 175.448 51.9411 175.448Z" fill="#F0F0F0"/>
<path d="M154.873 92.8901L150.089 88.2341L145.305 92.8901V39.8414L154.873 38.0954V92.8901Z" fill="#E0E0E0"/>
<path d="M133.083 20.5116V193.058C133.083 194.478 131.945 195.581 130.525 195.581H50.2226C49.5812 195.581 49.0243 195.341 48.6169 194.934C48.1914 194.52 47.9336 193.933 47.9336 193.268V20.3021C47.9336 19.1754 48.7664 18.1871 49.8932 18.1871H72.6994C73.3408 18.1871 73.928 18.6068 74.1678 19.2115L75.1147 21.5365C75.3545 22.136 75.9359 22.555 76.5825 22.555H104.488C105.135 22.555 105.717 22.1535 105.957 21.5546L106.904 19.2179C107.143 18.6126 107.725 18.1871 108.371 18.1871H130.848C132.088 18.1866 133.083 19.265 133.083 20.5116Z" fill="#016DDD"/>
<path opacity="0.6" d="M58.5217 25.1365H59.7084V23.5547H58.5217V25.1365Z" fill="white"/>
<path opacity="0.6" d="M56.5875 25.1367H57.7742V23.0269H56.5875V25.1367Z" fill="white"/>
<path opacity="0.6" d="M54.6538 25.1368H55.8405V22.4998H54.6538V25.1368Z" fill="white"/>
<path opacity="0.6" d="M52.7202 25.1364H53.9069V21.9714H52.7202V25.1364Z" fill="white"/>
<path opacity="0.6" d="M122.211 22.9775H121.508V24.5594H122.211V22.9775Z" fill="white"/>
<path opacity="0.6" d="M122.696 25.1367H128.299V22.4002H122.696V25.1367Z" fill="white"/>
<g opacity="0.1">
<path d="M86.2415 22.552L61.7282 114.371V114.376L61.4553 115.408V115.413L61.0129 117.067V117.072L60.7347 118.104L47.9348 166.049V108.022L71.9185 18.1847H72.6989C73.3432 18.1847 73.9269 18.6049 74.1673 19.2108L75.1113 21.5359C75.3517 22.1365 75.9354 22.5509 76.5797 22.5509H86.2415V22.552Z" fill="white"/>
<path d="M133.084 69.4443V127.471L117.796 184.739L117.424 186.131L114.903 195.579H99.4121L101.934 186.136L102.338 184.619L104.363 177.032L104.767 175.514L105.58 172.48L105.984 170.963L106.792 167.927L107.196 166.41L119.941 118.677V118.672L120.531 116.467V116.462L133.084 69.4443Z" fill="white"/>
<path d="M94.6363 22.552L70.2761 113.798L70.1288 114.344L68.7972 119.344L68.65 119.89L48.6175 194.935C48.1921 194.52 47.9354 193.931 47.9354 193.265V184.439L65.1673 119.889L65.3145 119.343L66.6461 114.343L66.7934 113.797L91.1536 22.5515L94.6363 22.552Z" fill="white"/>
</g>
<path opacity="0.3" d="M133.083 29.4336H47.9336V187.94H133.083V29.4336Z" fill="white"/>
<path opacity="0.6" d="M128.396 44.7233H52.72V92.6656H128.396V44.7233Z" fill="black"/>
<path opacity="0.5" d="M128.396 91.1163H52.72V92.6656H128.396V91.1163Z" fill="black"/>
<path opacity="0.6" d="M78.9385 91.1163H52.72V92.6656H78.9385V91.1163Z" fill="white"/>
<path d="M80.9534 91.9416C80.9534 92.956 80.1311 93.779 79.1161 93.779C78.1016 93.779 77.2787 92.9566 77.2787 91.9416C77.2787 90.9272 78.1011 90.1042 79.1161 90.1042C80.1311 90.1042 80.9534 90.9266 80.9534 91.9416Z" fill="white"/>
<path opacity="0.6" d="M91.4748 104.053H54.1302C53.3514 104.053 52.72 103.422 52.72 102.643V102.56C52.72 101.781 53.3514 101.149 54.1302 101.149H91.4748C92.2535 101.149 92.885 101.781 92.885 102.56V102.643C92.885 103.422 92.2535 104.053 91.4748 104.053Z" fill="white"/>
<path opacity="0.6" d="M99.8637 99.5576H54.1302C53.3514 99.5576 52.72 98.9262 52.72 98.1475V98.0642C52.72 97.2855 53.3514 96.6541 54.1302 96.6541H99.8637C100.642 96.6541 101.274 97.2855 101.274 98.0642V98.1475C101.274 98.9262 100.643 99.5576 99.8637 99.5576Z" fill="white"/>
<path opacity="0.4" d="M120.948 96.6534L123.966 99.6705L126.983 96.6534H120.948Z" fill="white"/>
<path opacity="0.4" d="M128.396 112.037H52.72V144.927H128.396V112.037Z" fill="white"/>
<path opacity="0.5" d="M103.409 117.763H97.4007C96.6959 117.763 96.125 117.192 96.125 116.487V116.411C96.125 115.706 96.6959 115.135 97.4007 115.135H103.409C104.114 115.135 104.685 115.707 104.685 116.411V116.487C104.685 117.192 104.114 117.763 103.409 117.763Z" fill="white"/>
<path opacity="0.5" d="M120.188 121.99H97.4012C96.6964 121.99 96.1255 121.418 96.1255 120.714V120.638C96.1255 119.934 96.6964 119.363 97.4012 119.363H120.188C120.892 119.363 121.463 119.934 121.463 120.638V120.714C121.463 121.418 120.892 121.99 120.188 121.99Z" fill="white"/>
<path opacity="0.3" d="M90.6856 115.135H56.2928V141.829H90.6856V115.135Z" fill="black"/>
<path opacity="0.4" d="M128.396 149.189H52.72V182.079H128.396V149.189Z" fill="white"/>
<path opacity="0.5" d="M103.409 154.914H97.4007C96.6959 154.914 96.125 154.343 96.125 153.639V153.563C96.125 152.858 96.6959 152.287 97.4007 152.287H103.409C104.114 152.287 104.685 152.859 104.685 153.563V153.639C104.685 154.344 104.114 154.914 103.409 154.914Z" fill="white"/>
<path opacity="0.5" d="M120.188 159.142H97.4012C96.6964 159.142 96.1255 158.57 96.1255 157.866V157.79C96.1255 157.085 96.6964 156.514 97.4012 156.514H120.188C120.892 156.514 121.463 157.086 121.463 157.79V157.866C121.463 158.57 120.892 159.142 120.188 159.142Z" fill="white"/>
<path opacity="0.3" d="M90.6856 152.287H56.2928V178.981H90.6856V152.287Z" fill="black"/>
<path opacity="0.6" d="M82.885 60.2755V75.5152L98.1241 67.8956L82.885 60.2755Z" fill="white"/>
<path d="M127.721 41.3448L125.029 39.0244L122.337 41.3448V34.9614H127.721V41.3448Z" fill="#016DDD"/>
<path d="M118.009 34.9614H113.956C113.401 34.9614 112.951 35.4113 112.951 35.9665V38.738C112.951 39.2933 113.401 39.7431 113.956 39.7431H115.333V41.3454L116.377 39.7431H118.008C118.563 39.7431 119.013 39.2933 119.013 38.738V35.9665C119.014 35.4113 118.564 34.9614 118.009 34.9614Z" fill="#016DDD"/>
<path d="M109.885 35.7245C109.137 34.4947 107.692 34.9574 106.941 35.9055C106.202 34.9492 104.762 34.4697 104.001 35.6913C102.717 37.7504 105.328 39.6797 106.563 40.4363C106.702 40.5231 106.818 40.5946 106.915 40.6511C107.012 40.5958 107.128 40.526 107.269 40.4404C108.512 39.6978 111.145 37.7981 109.885 35.7245Z" fill="#016DDD"/>
<path d="M79.8348 42.361H54.1302C53.3514 42.361 52.72 41.7295 52.72 40.9508V40.8676C52.72 40.0889 53.3514 39.4574 54.1302 39.4574H79.8348C80.6135 39.4574 81.245 40.0889 81.245 40.8676V40.9508C81.245 41.7295 80.6135 42.361 79.8348 42.361Z" fill="#016DDD"/>
<path d="M88.2237 37.8658H54.1302C53.3514 37.8658 52.72 37.2343 52.72 36.4556V36.3723C52.72 35.5936 53.3514 34.9622 54.1302 34.9622H88.2237C89.0024 34.9622 89.6339 35.5936 89.6339 36.3723V36.4556C89.6345 37.2343 89.003 37.8658 88.2237 37.8658Z" fill="#016DDD"/>
<path d="M148.418 112.613L150.561 167.267C150.766 172.491 154.978 176.666 160.203 176.825L274.51 180.312C279.901 180.476 284.442 176.316 284.75 170.931L288.227 110.071C288.559 104.271 283.873 99.421 278.065 99.5527L158.137 102.273C152.578 102.399 148.2 107.056 148.418 112.613Z" fill="#C1DFFF"/>
<path d="M183.114 124.698L179.396 127.678C178.364 128.506 178.91 130.275 180.197 130.269L241.311 129.908L224.766 120.029H196.193C191.482 120.029 186.896 121.666 183.114 124.698Z" fill="url(#paint0_linear_1898_40707)"/>
<path d="M274.14 151.281C274.086 150.78 274.032 150.278 273.977 149.782C273.411 144.682 270.809 140.104 266.848 137.255L266.541 137.035C261.77 133.603 256.289 131.493 250.583 130.889L241.311 129.908L180.197 130.269C178.911 130.275 178.364 128.506 179.396 127.678L183.114 124.698C186.896 121.666 191.482 120.029 196.193 120.029H224.766L224.552 119.932C222.835 119.16 220.993 118.762 219.133 118.762H192.226C190.591 118.762 188.965 119.026 187.403 119.546L167.165 127.626C166.165 127.959 165.272 128.589 164.589 129.444L160.408 134.679C159.538 135.769 159.06 137.159 159.06 138.597V147.128C159.06 149.386 166.461 157.101 166.461 157.101C167.267 157.543 168.158 157.774 169.063 157.774H259.979L269.635 157.096C272.4 156.901 274.456 154.251 274.14 151.281Z" fill="#EE6C2D"/>
<path d="M273.819 155.146H273.53C272.967 155.146 272.511 154.654 272.511 154.046V148.523C272.511 147.916 272.967 147.424 273.53 147.424C274.07 147.424 274.517 147.879 274.547 148.461L274.836 153.985C274.869 154.615 274.404 155.146 273.819 155.146Z" fill="url(#paint1_linear_1898_40707)"/>
<path d="M270.234 146.363H273.267C272.138 142.67 269.898 139.449 266.848 137.255L266.541 137.035C266.225 136.807 265.905 136.587 265.583 136.371C266.202 138.702 266.966 141.898 267.469 144.043C267.789 145.409 268.927 146.363 270.234 146.363Z" fill="url(#paint2_linear_1898_40707)"/>
<path d="M167.165 133.943V127.626C166.165 127.959 165.272 128.589 164.589 129.444L160.408 134.679C159.682 135.589 159.233 136.709 159.103 137.891L164.81 136.917C166.166 136.686 167.165 135.424 167.165 133.943Z" fill="url(#paint3_linear_1898_40707)"/>
<path d="M231.269 129.63L229.12 127.378C228.225 126.439 227.098 125.799 225.874 125.532L221.624 124.608C220.458 124.354 219.342 125.236 219.214 126.512L219.184 126.812C219.054 128.112 220.006 129.242 221.217 129.227L226.693 129.16C227.456 129.151 228.15 129.638 228.452 130.395L228.552 130.648C228.686 130.984 228.993 131.202 229.332 131.202H230.678C231.439 131.202 231.815 130.203 231.269 129.63Z" fill="url(#paint4_linear_1898_40707)"/>
<path d="M209.253 133.711H218.624C219.355 133.711 219.87 134.495 219.617 135.234C219.188 136.486 218.167 138.082 215.74 138.268C213.556 138.436 210.805 137.102 208.729 135.835C207.789 135.261 208.172 133.711 209.253 133.711Z" fill="url(#paint5_linear_1898_40707)"/>
<path d="M181.661 167.894C188.493 167.894 194.032 162.355 194.032 155.523C194.032 148.691 188.493 143.152 181.661 143.152C174.829 143.152 169.29 148.691 169.29 155.523C169.29 162.355 174.829 167.894 181.661 167.894Z" fill="url(#paint6_linear_1898_40707)"/>
<path d="M181.661 165.569C187.209 165.569 191.707 161.071 191.707 155.523C191.707 149.974 187.209 145.477 181.661 145.477C176.113 145.477 171.615 149.974 171.615 155.523C171.615 161.071 176.113 165.569 181.661 165.569Z" fill="url(#paint7_linear_1898_40707)"/>
<path d="M254.623 167.894C261.455 167.894 266.993 162.355 266.993 155.523C266.993 148.691 261.455 143.152 254.623 143.152C247.79 143.152 242.252 148.691 242.252 155.523C242.252 162.355 247.79 167.894 254.623 167.894Z" fill="url(#paint8_linear_1898_40707)"/>
<path d="M254.622 165.569C260.171 165.569 264.669 161.071 264.669 155.523C264.669 149.974 260.171 145.477 254.622 145.477C249.074 145.477 244.576 149.974 244.576 155.523C244.576 161.071 249.074 165.569 254.622 165.569Z" fill="url(#paint9_linear_1898_40707)"/>
<path d="M262.818 159.233C262.786 159.233 262.753 159.227 262.721 159.214C262.595 159.16 262.536 159.015 262.59 158.888C263.04 157.822 263.269 156.69 263.269 155.523C263.269 150.755 259.39 146.876 254.622 146.876C253.143 146.876 251.684 147.256 250.402 147.975C250.283 148.042 250.131 147.999 250.064 147.88C249.997 147.76 250.039 147.608 250.159 147.542C251.515 146.781 253.059 146.38 254.622 146.38C259.664 146.38 263.766 150.481 263.766 155.523C263.766 156.757 263.524 157.954 263.047 159.082C263.007 159.177 262.915 159.233 262.818 159.233Z" fill="url(#paint10_linear_1898_40707)"/>
<path d="M190.099 159.233C190.067 159.233 190.034 159.227 190.003 159.214C189.876 159.16 189.817 159.015 189.871 158.888C190.322 157.823 190.55 156.69 190.55 155.523C190.55 150.755 186.671 146.876 181.904 146.876C180.425 146.876 178.965 147.256 177.683 147.975C177.564 148.042 177.412 147.999 177.345 147.88C177.278 147.76 177.321 147.608 177.44 147.542C178.796 146.781 180.34 146.38 181.904 146.38C186.945 146.38 191.047 150.481 191.047 155.523C191.047 156.757 190.805 157.955 190.328 159.082C190.288 159.177 190.196 159.233 190.099 159.233Z" fill="url(#paint11_linear_1898_40707)"/>
<path d="M196.63 151.785C196.513 151.785 196.408 151.702 196.386 151.583C195.293 145.836 192.019 142.178 186.656 140.711C182.632 139.609 178.875 140.222 178.838 140.228C178.703 140.25 178.574 140.16 178.551 140.024C178.529 139.889 178.62 139.761 178.755 139.738C178.912 139.712 182.643 139.101 186.772 140.227C190.602 141.272 195.463 144.073 196.874 151.49C196.899 151.624 196.811 151.754 196.676 151.78C196.661 151.783 196.645 151.785 196.63 151.785Z" fill="url(#paint12_linear_1898_40707)"/>
<path d="M239.513 153.669C239.379 153.669 239.269 153.563 239.265 153.429C239.121 148.847 240.351 145.258 242.918 142.758C247.154 138.635 253.649 138.964 253.715 138.967C253.852 138.975 253.956 139.093 253.948 139.229C253.94 139.366 253.823 139.471 253.686 139.463C253.623 139.459 247.338 139.146 243.262 143.117C240.8 145.515 239.623 148.979 239.761 153.413C239.765 153.55 239.658 153.665 239.521 153.669C239.518 153.669 239.515 153.669 239.513 153.669Z" fill="url(#paint13_linear_1898_40707)"/>
<path d="M180.587 128.969C180.5 128.969 180.416 128.924 180.371 128.844C180.303 128.724 180.344 128.573 180.464 128.505L188.75 123.79C191.118 122.443 193.81 121.705 196.534 121.656L206.039 121.485C206.177 121.488 206.289 121.592 206.292 121.729C206.294 121.866 206.185 121.979 206.048 121.982L196.543 122.153C193.902 122.2 191.292 122.916 188.995 124.222L180.709 128.937C180.671 128.959 180.628 128.969 180.587 128.969Z" fill="#C1DFFF"/>
<defs>
<linearGradient id="paint0_linear_1898_40707" x1="178.856" y1="125.149" x2="241.311" y2="125.149" gradientUnits="userSpaceOnUse">
<stop stop-color="#09005D"/>
<stop offset="1" stop-color="#1A0F91"/>
</linearGradient>
<linearGradient id="paint1_linear_1898_40707" x1="291.224" y1="132.102" x2="267.329" y2="158.22" gradientUnits="userSpaceOnUse">
<stop stop-color="#E1473D"/>
<stop offset="1" stop-color="#E9605A"/>
</linearGradient>
<linearGradient id="paint2_linear_1898_40707" x1="273.549" y1="135.429" x2="269.579" y2="141.145" gradientUnits="userSpaceOnUse">
<stop stop-color="#E1473D"/>
<stop offset="1" stop-color="#E9605A"/>
</linearGradient>
<linearGradient id="paint3_linear_1898_40707" x1="160.726" y1="129.12" x2="166.97" y2="138.554" gradientUnits="userSpaceOnUse">
<stop stop-color="#E1473D"/>
<stop offset="1" stop-color="#E9605A"/>
</linearGradient>
<linearGradient id="paint4_linear_1898_40707" x1="232.059" y1="134.107" x2="220.903" y2="125.104" gradientUnits="userSpaceOnUse">
<stop stop-color="#E1473D"/>
<stop offset="1" stop-color="#E9605A"/>
</linearGradient>
<linearGradient id="paint5_linear_1898_40707" x1="208.335" y1="140.726" x2="214.207" y2="134.855" gradientUnits="userSpaceOnUse">
<stop stop-color="#E1473D"/>
<stop offset="1" stop-color="#E9605A"/>
</linearGradient>
<linearGradient id="paint6_linear_1898_40707" x1="206.481" y1="133.273" x2="164.739" y2="170.692" gradientUnits="userSpaceOnUse">
<stop stop-color="#09005D"/>
<stop offset="1" stop-color="#1A0F91"/>
</linearGradient>
<linearGradient id="paint7_linear_1898_40707" x1="191.561" y1="139.302" x2="164.141" y2="184.229" gradientUnits="userSpaceOnUse">
<stop stop-color="#E1473D"/>
<stop offset="1" stop-color="#E9605A"/>
</linearGradient>
<linearGradient id="paint8_linear_1898_40707" x1="246.623" y1="134.631" x2="261.566" y2="173.656" gradientUnits="userSpaceOnUse">
<stop stop-color="#09005D"/>
<stop offset="1" stop-color="#1A0F91"/>
</linearGradient>
<linearGradient id="paint9_linear_1898_40707" x1="265.373" y1="137.164" x2="237.953" y2="183.99" gradientUnits="userSpaceOnUse">
<stop stop-color="#E1473D"/>
<stop offset="1" stop-color="#E9605A"/>
</linearGradient>
<linearGradient id="paint10_linear_1898_40707" x1="260.224" y1="119.383" x2="258.619" y2="135.067" gradientUnits="userSpaceOnUse">
<stop stop-color="#FE7062"/>
<stop offset="1" stop-color="#FF928E"/>
</linearGradient>
<linearGradient id="paint11_linear_1898_40707" x1="188.26" y1="112.017" x2="186.654" y2="127.701" gradientUnits="userSpaceOnUse">
<stop stop-color="#FE7062"/>
<stop offset="1" stop-color="#FF928E"/>
</linearGradient>
<linearGradient id="paint12_linear_1898_40707" x1="190.441" y1="112.251" x2="189.576" y2="122.872" gradientUnits="userSpaceOnUse">
<stop stop-color="#FF928E"/>
<stop offset="1" stop-color="#FEB3B1"/>
</linearGradient>
<linearGradient id="paint13_linear_1898_40707" x1="248.924" y1="117.011" x2="248.06" y2="127.632" gradientUnits="userSpaceOnUse">
<stop stop-color="#FF928E"/>
<stop offset="1" stop-color="#FEB3B1"/>
</linearGradient>
</defs>
</svg>
