<svg width="418" height="230" viewBox="0 0 418 230" fill="none" xmlns="http://www.w3.org/2000/svg">
<path d="M368.736 198.695C360.171 203.445 352.068 206.508 345.665 208.928C270.405 237.375 181.353 229.083 162.427 227.057C134.478 224.067 80.4556 218.287 41.3981 194.091C-17.6928 157.484 -8.49145 99.8103 37.3434 61.7393C45.7273 54.7755 90.0136 16.1246 180.025 9.92621C234.499 6.17504 297.999 13.7408 343.983 34.0361C440.508 76.6378 433.637 162.701 368.736 198.695Z" fill="url(#paint0_linear_1898_41133)"/>
<g opacity="0.3">
<path d="M243.116 35.7408C242.79 35.4873 242.701 35.0232 242.925 34.6651C243.412 33.8816 243.941 33.108 244.496 32.3652C244.767 32.0038 245.279 31.9298 245.64 32.2C245.644 32.2033 245.648 32.2066 245.653 32.2098C246.003 32.4824 246.072 32.9865 245.805 33.3435C245.277 34.0491 244.775 34.7842 244.312 35.5283C244.073 35.9113 243.569 36.0287 243.186 35.7901C243.162 35.7749 243.138 35.7583 243.116 35.7408ZM247.527 30.1565C247.502 30.1369 247.477 30.1156 247.454 30.0926C247.133 29.7757 247.129 29.2583 247.446 28.9372C248.097 28.2779 248.783 27.6397 249.484 27.0407C249.827 26.7476 250.341 26.7878 250.636 27.1311C250.929 27.4742 250.888 27.9899 250.545 28.2827C249.879 28.8521 249.228 29.4583 248.609 30.0852C248.315 30.3829 247.849 30.4073 247.527 30.1565ZM253.058 25.6824C252.986 25.6266 252.922 25.5576 252.871 25.4766C252.628 25.0962 252.74 24.5911 253.121 24.3487C253.9 23.8516 254.711 23.3823 255.532 22.9538C255.932 22.7451 256.425 22.9003 256.634 23.2995C256.843 23.6993 256.688 24.1929 256.288 24.4018C255.509 24.8087 254.739 25.2542 253.999 25.7262C253.699 25.9171 253.323 25.8885 253.058 25.6824ZM259.452 22.5567C259.333 22.4644 259.239 22.3383 259.184 22.1862C259.033 21.7612 259.255 21.2941 259.68 21.1428C260.552 20.8327 261.448 20.5564 262.342 20.3218C262.778 20.2079 263.225 20.4687 263.34 20.9048C263.454 21.3411 263.193 21.7876 262.757 21.9021C261.907 22.1248 261.056 22.3871 260.228 22.6822C259.955 22.7791 259.665 22.7224 259.452 22.5567ZM266.382 20.9354C266.216 20.806 266.099 20.6126 266.073 20.3869C266.019 19.9388 266.339 19.5326 266.787 19.4795C267.704 19.3708 268.638 19.2997 269.564 19.2687C270.015 19.2531 270.393 19.6063 270.408 20.0574C270.423 20.5082 270.07 20.886 269.619 20.9013C268.739 20.9307 267.851 20.9983 266.98 21.1016C266.758 21.1281 266.546 21.0628 266.382 20.9354ZM273.498 20.8875C273.282 20.7199 273.156 20.4482 273.186 20.1569C273.234 19.7081 273.636 19.3828 274.084 19.4299C275.004 19.5267 275.931 19.6641 276.839 19.8387C277.282 19.924 277.572 20.3521 277.487 20.7952C277.402 21.2381 276.974 21.5282 276.531 21.4431C275.667 21.2773 274.787 21.1467 273.913 21.0547C273.756 21.0381 273.614 20.978 273.498 20.8875ZM298.317 37.7323C298.228 37.6628 298.152 37.5737 298.096 37.4672C297.688 36.69 297.241 35.9201 296.767 35.1792C296.524 34.7992 296.635 34.294 297.015 34.051C297.395 33.8077 297.9 33.9186 298.143 34.2986C298.642 35.0789 299.113 35.8897 299.543 36.708C299.753 37.1076 299.598 37.6013 299.199 37.8108C298.906 37.9646 298.562 37.9229 298.317 37.7323ZM280.443 22.4168C280.175 22.2087 280.056 21.8465 280.172 21.508C280.317 21.0809 280.782 20.8531 281.209 20.9989C282.084 21.2976 282.956 21.6382 283.803 22.011C284.214 22.1948 284.403 22.6749 284.221 23.0879C284.039 23.5007 283.557 23.6879 283.144 23.5061C282.34 23.1518 281.512 22.8285 280.681 22.5447C280.592 22.5146 280.512 22.471 280.443 22.4168ZM294.322 31.8437C294.28 31.8106 294.24 31.773 294.203 31.7304C293.631 31.0638 293.023 30.4131 292.396 29.7961C292.074 29.4796 292.07 28.9624 292.386 28.6409C292.703 28.3194 293.221 28.3131 293.542 28.6312C294.202 29.2805 294.841 29.9651 295.443 30.6664C295.737 31.0089 295.697 31.5248 295.355 31.8184C295.055 32.0756 294.622 32.0772 294.322 31.8437ZM286.872 25.4591C286.547 25.206 286.458 24.7428 286.68 24.3848C286.918 24.0012 287.421 23.8831 287.805 24.1206C288.59 24.6073 289.365 25.1343 290.107 25.6876C290.112 25.6909 290.116 25.6945 290.121 25.6979C290.471 25.9701 290.54 26.4732 290.274 26.8304C290.005 27.1923 289.493 27.2671 289.131 26.9975C288.426 26.4722 287.69 25.9717 286.944 25.5093C286.919 25.4936 286.895 25.4768 286.872 25.4591Z" fill="#BDD0FB"/>
<path d="M300.511 43.0321C300.384 42.9333 300.285 42.7962 300.234 42.6309C300.108 42.2287 299.973 41.8226 299.83 41.4233C299.679 40.9985 299.9 40.531 300.325 40.3796C300.75 40.2278 301.218 40.4493 301.369 40.8747C301.519 41.2945 301.662 41.7216 301.793 42.1448C301.928 42.5754 301.687 43.0336 301.257 43.1676C300.991 43.2504 300.715 43.1907 300.511 43.0321Z" fill="#BDD0FB"/>
</g>
<g opacity="0.3">
<path d="M298.045 67.8138C297.734 67.5718 297.636 67.133 297.832 66.7764C298.034 66.4074 298.233 66.0278 298.421 65.6484C298.622 65.2443 299.112 65.0795 299.516 65.2802C299.922 65.4818 300.085 65.9713 299.885 66.3752C299.686 66.7746 299.477 67.1744 299.264 67.563C299.047 67.9584 298.55 68.1028 298.154 67.8857C298.115 67.8644 298.079 67.8402 298.045 67.8138Z" fill="#BDD0FB"/>
<path d="M250.639 77.6486C250.342 77.4179 250.048 77.1811 249.757 76.9386C249.411 76.6497 249.364 76.1347 249.653 75.7881C249.942 75.4415 250.46 75.3949 250.804 75.6835C251.475 76.2432 252.168 76.7744 252.871 77.268C253.24 77.5281 253.329 78.0366 253.07 78.4058C252.811 78.7753 252.301 78.8644 251.932 78.6051C251.497 78.2997 251.062 77.9779 250.639 77.6486ZM246.641 73.9574C246.605 73.9294 246.571 73.8978 246.539 73.863C245.924 73.1902 245.331 72.4838 244.776 71.7636C244.501 71.4063 244.567 70.8933 244.925 70.6181C245.282 70.3428 245.797 70.4089 246.07 70.7668C246.597 71.4509 247.161 72.1217 247.745 72.7612C248.049 73.0942 248.026 73.6109 247.693 73.9151C247.395 74.1875 246.949 74.1973 246.641 73.9574ZM255.613 80.825C255.309 80.5885 255.206 80.1622 255.389 79.8072C255.595 79.4059 256.088 79.2481 256.489 79.4544C257.256 79.8493 258.051 80.2165 258.852 80.5457C259.269 80.7181 259.468 81.1949 259.296 81.612C259.124 82.0293 258.647 82.2283 258.23 82.0565C257.387 81.7096 256.55 81.3228 255.742 80.9071C255.696 80.8834 255.653 80.8557 255.613 80.825ZM242.514 68.2975C242.433 68.2338 242.362 68.1533 242.307 68.0578C241.856 67.2671 241.432 66.4475 241.049 65.622C240.86 65.2128 241.037 64.7272 241.447 64.5375C241.856 64.3475 242.341 64.525 242.531 64.9347C242.895 65.7185 243.297 66.4968 243.726 67.2478C243.95 67.6394 243.813 68.1385 243.421 68.3621C243.126 68.5311 242.768 68.4947 242.514 68.2975ZM262.153 83.3173C261.904 83.1233 261.779 82.793 261.864 82.4676C261.977 82.0308 262.422 81.7683 262.859 81.8813C263.694 82.0976 264.55 82.2809 265.404 82.4266C265.848 82.5024 266.148 82.9245 266.071 83.3694C265.995 83.8139 265.574 84.1128 265.129 84.0368C264.23 83.8836 263.329 83.6906 262.45 83.463C262.338 83.4342 262.238 83.3837 262.153 83.3173ZM269.081 84.3143C268.882 84.1592 268.757 83.9141 268.766 83.6424C268.781 83.1915 269.158 82.838 269.609 82.8528C270.474 82.8811 271.35 82.8734 272.213 82.8299C272.663 82.8065 273.047 83.1531 273.07 83.6043C273.093 84.0549 272.746 84.4384 272.295 84.4615C271.387 84.5073 270.466 84.5155 269.556 84.4855C269.377 84.4797 269.213 84.4166 269.081 84.3143ZM276.063 83.7772C275.911 83.6592 275.8 83.4878 275.762 83.2841C275.678 82.841 275.97 82.4137 276.413 82.33C277.264 82.1693 278.117 81.9712 278.949 81.7407C279.384 81.6203 279.834 81.8747 279.955 82.31C280.075 82.7448 279.82 83.1947 279.385 83.3152C278.509 83.5575 277.611 83.7664 276.716 83.9354C276.476 83.9805 276.241 83.9161 276.063 83.7772ZM282.76 81.7304C282.655 81.6486 282.568 81.5402 282.512 81.4093C282.333 80.9951 282.524 80.5145 282.939 80.336C283.733 79.9934 284.522 79.613 285.284 79.2054C285.681 78.9925 286.177 79.1426 286.389 79.5397C286.603 79.9375 286.453 80.4325 286.055 80.6455C285.253 81.075 284.422 81.4757 283.585 81.8362C283.302 81.9584 282.987 81.9074 282.76 81.7304ZM288.847 78.262C288.788 78.216 288.734 78.161 288.688 78.0975C288.422 77.7328 288.503 77.2217 288.867 76.9565C289.565 76.4483 290.251 75.9038 290.905 75.3373C291.246 75.0419 291.763 75.0803 292.057 75.4202C292.352 75.7612 292.315 76.2772 291.974 76.5725C291.286 77.1687 290.564 77.7421 289.829 78.2769C289.528 78.4964 289.127 78.4798 288.847 78.262ZM294.019 73.5442C294.006 73.5339 293.993 73.523 293.98 73.5119C293.642 73.2137 293.609 72.6976 293.907 72.3592C294.328 71.8812 294.739 71.3849 295.13 70.8832C295.271 70.7016 295.41 70.5185 295.546 70.335C295.816 69.973 296.328 69.8976 296.689 70.167C297.061 70.4325 297.127 70.9478 296.858 71.3097C296.714 71.5031 296.568 71.6951 296.419 71.8862C296.009 72.4139 295.576 72.9363 295.133 73.4389C294.846 73.7647 294.358 73.8073 294.019 73.5442Z" fill="#BDD0FB"/>
<path d="M239.73 61.8489C239.602 61.7492 239.502 61.6105 239.451 61.4437C239.322 61.0208 239.199 60.5873 239.086 60.155C238.971 59.7184 239.233 59.2721 239.669 59.158C240.106 59.044 240.552 59.3047 240.666 59.7415C240.774 60.1522 240.89 60.564 241.013 60.9656C241.145 61.3967 240.903 61.8536 240.471 61.9856C240.207 62.0665 239.933 62.0067 239.73 61.8489Z" fill="#BDD0FB"/>
</g>
<path d="M246.418 55.0477C246.421 55.2105 246.528 55.353 246.683 55.4025L251.11 56.8145C251.654 58.9152 252.537 60.9444 253.758 62.8141L251.822 67.0349C251.754 67.183 251.788 67.3578 251.906 67.4703L255.937 71.3187C256.055 71.4311 256.231 71.4564 256.376 71.3817L260.502 69.2513C262.427 70.3842 264.495 71.1716 266.619 71.6171L268.235 75.9736C268.292 76.1262 268.439 76.2262 268.602 76.2224L274.174 76.0926C274.337 76.0889 274.479 75.9821 274.529 75.827L275.941 71.4001C278.042 70.8562 280.071 69.9733 281.94 68.7521L286.161 70.6882C286.309 70.7561 286.484 70.7226 286.597 70.6048L290.445 66.5729C290.558 66.4551 290.583 66.2788 290.508 66.1341L288.378 62.0079C289.51 60.0834 290.298 58.0155 290.743 55.8917L295.1 54.2751C295.252 54.2184 295.353 54.0711 295.349 53.9083L295.219 48.3362C295.215 48.1733 295.109 48.0309 294.953 47.9813L290.526 46.5693C289.983 44.4686 289.1 42.4395 287.879 40.5697L289.815 36.3488C289.883 36.2008 289.849 36.0259 289.731 35.9134L285.699 32.0651C285.582 31.9526 285.405 31.9273 285.261 32.002L281.134 34.1324C279.21 32.9995 277.142 32.2121 275.018 31.7666L273.401 27.4103C273.345 27.2575 273.197 27.1576 273.035 27.1614L267.463 27.2911C267.3 27.2949 267.157 27.4016 267.108 27.5568L265.696 31.9836C263.595 32.5275 261.566 33.4104 259.696 34.6316L255.475 32.6955C255.327 32.6276 255.152 32.6611 255.04 32.779L251.192 36.8108C251.079 36.9287 251.054 37.1047 251.128 37.2495L253.259 41.3757C252.126 43.3002 251.339 45.3681 250.893 47.492L246.537 49.1086C246.384 49.1653 246.284 49.3125 246.288 49.4754L246.418 55.0477Z" fill="#BDD0FB"/>
<path d="M267.375 56.1119C265.22 54.435 264.558 51.3796 265.942 48.9334C267.463 46.2444 270.888 45.2947 273.577 46.8156C274.88 47.5523 275.817 48.7525 276.217 50.1943C276.617 51.6363 276.432 53.1479 275.695 54.4503C274.173 57.1393 270.748 58.089 268.06 56.5681C267.817 56.4308 267.589 56.2781 267.375 56.1119ZM273.464 48.3065C273.297 48.1769 273.12 48.0588 272.933 47.953C270.872 46.7867 268.246 47.5153 267.08 49.5766C265.913 51.6382 266.641 54.2647 268.703 55.4306C270.765 56.5969 273.391 55.8683 274.557 53.807C275.122 52.8081 275.264 51.6494 274.958 50.5437C274.708 49.6451 274.186 48.8689 273.464 48.3065Z" fill="url(#paint1_linear_1898_41133)"/>
<path d="M262.497 62.569C262.127 62.281 261.769 61.9727 261.425 61.6444C261.316 61.5412 261.21 61.4361 261.105 61.3294C260.588 60.8029 260.113 60.236 259.689 59.6377C259.683 59.6295 259.677 59.6214 259.671 59.6133C259.655 59.5901 259.639 59.5669 259.623 59.5434C259.591 59.4982 259.56 59.4525 259.529 59.4069C259.447 59.2868 259.456 59.1319 259.541 59.023C259.561 58.9966 259.586 58.9729 259.616 58.953C259.765 58.8517 259.968 58.891 260.069 59.0399C260.591 59.8082 261.199 60.5254 261.876 61.1715C265.239 64.3826 269.878 65.4494 274.09 64.4134C276.432 63.8374 278.643 62.6104 280.429 60.7395C280.742 60.4116 281.036 60.0701 281.311 59.7169C283.159 57.3403 284.126 54.4246 284.055 51.374C283.973 47.8698 282.532 44.6071 279.997 42.1872C274.76 37.1897 266.44 37.3853 261.444 42.6191C261.136 42.9418 260.845 43.2789 260.573 43.6289C259.394 45.1449 258.56 46.9022 258.137 48.7774C258.126 48.8258 258.105 48.8692 258.076 48.9059C258.001 49.0026 257.874 49.0529 257.746 49.024C257.57 48.9836 257.459 48.8097 257.499 48.6332C257.944 46.6645 258.82 44.8195 260.057 43.2279C260.343 42.8606 260.648 42.5068 260.971 42.168C266.216 36.6729 274.955 36.4714 280.448 41.7143C283.11 44.255 284.623 47.6801 284.708 51.3588C284.783 54.5614 283.768 57.6223 281.827 60.1174C281.539 60.4881 281.23 60.8466 280.902 61.1908C278.361 63.8528 274.936 65.3658 271.257 65.4515C268.054 65.5261 264.992 64.5103 262.497 62.569Z" fill="url(#paint2_linear_1898_41133)"/>
<g opacity="0.3">
<path d="M207.896 35.6147C207.724 35.4807 207.653 35.2449 207.737 35.0315C207.894 34.6331 208.065 34.2339 208.246 33.8453C208.364 33.5927 208.663 33.4833 208.916 33.6007C209.17 33.7174 209.278 34.0185 209.161 34.271C208.989 34.6413 208.825 35.0217 208.675 35.4019C208.573 35.6609 208.28 35.788 208.021 35.6862C207.975 35.6679 207.933 35.6436 207.896 35.6147Z" fill="#BDD0FB"/>
<path d="M209.645 32.1503C209.444 31.9932 209.389 31.7058 209.528 31.4847C209.919 30.8596 210.348 30.2476 210.8 29.6658C210.895 29.5433 210.992 29.4215 211.091 29.3002C211.267 29.0839 211.59 29.0685 211.801 29.2265C212.017 29.4021 212.05 29.7199 211.875 29.9362C211.78 30.052 211.688 30.1684 211.597 30.2854C211.165 30.8404 210.757 31.4241 210.383 32.02C210.235 32.2564 209.924 32.3277 209.688 32.1801C209.673 32.1705 209.659 32.1607 209.645 32.1503ZM212.949 28.0846C212.93 28.0699 212.912 28.0538 212.895 28.0362C212.702 27.8354 212.707 27.516 212.908 27.3226C213.552 26.7021 214.24 26.1163 214.953 25.5816C215.176 25.4142 215.492 25.4608 215.659 25.6823C215.826 25.9055 215.781 26.2212 215.558 26.3887C214.878 26.899 214.222 27.4578 213.608 28.0494C213.425 28.2255 213.144 28.2362 212.949 28.0846ZM217.139 24.9414C217.089 24.9021 217.045 24.8525 217.011 24.7937C216.873 24.5518 216.957 24.2435 217.199 24.1052C217.974 23.6625 218.786 23.2632 219.611 22.9194C219.868 22.8119 220.163 22.9331 220.27 23.191C220.378 23.448 220.256 23.7436 219.999 23.8507C219.212 24.1787 218.439 24.559 217.7 24.9815C217.517 25.0858 217.296 25.0632 217.139 24.9414ZM221.975 22.9246C221.892 22.8605 221.829 22.7703 221.799 22.6623C221.724 22.3939 221.881 22.1153 222.15 22.0408C223.011 21.801 223.895 21.6127 224.777 21.4811C225.053 21.4403 225.309 21.631 225.35 21.9058C225.391 22.1814 225.201 22.4381 224.926 22.4793C224.085 22.6045 223.242 22.7842 222.42 23.0128C222.26 23.0574 222.097 23.0195 221.975 22.9246ZM227.156 22.1501C227.041 22.0605 226.965 21.9218 226.961 21.7644C226.954 21.4861 227.174 21.2546 227.453 21.2472C228.345 21.2245 229.248 21.2564 230.136 21.3425C230.413 21.3689 230.616 21.6159 230.589 21.8933C230.562 22.1707 230.316 22.3739 230.038 22.3468C229.192 22.2648 228.33 22.2341 227.479 22.2561C227.357 22.2592 227.245 22.2191 227.156 22.1501ZM232.367 22.6563C232.218 22.5403 232.141 22.3445 232.185 22.1477C232.245 21.8759 232.515 21.7049 232.787 21.7654C233.659 21.9602 234.526 22.2115 235.365 22.5122C235.628 22.6074 235.764 22.8954 235.67 23.1575C235.576 23.4197 235.287 23.5562 235.025 23.4623C234.225 23.1755 233.398 22.936 232.567 22.7504C232.492 22.7336 232.424 22.7006 232.367 22.6563ZM237.296 24.4209C237.109 24.2757 237.045 24.0142 237.155 23.7956C237.281 23.547 237.585 23.4472 237.833 23.5728C238.628 23.9743 239.407 24.4309 240.151 24.93C240.38 25.0895 240.444 25.3994 240.288 25.6304C240.133 25.8617 239.82 25.9232 239.588 25.768C238.879 25.2915 238.136 24.856 237.378 24.4732C237.348 24.4583 237.321 24.4406 237.296 24.4209ZM243.517 29.1801C243.494 29.1623 243.472 29.1421 243.452 29.1194C242.959 28.5733 242.428 28.0444 241.873 27.5477C241.789 27.4719 241.706 27.3986 241.623 27.3264C241.412 27.1439 241.389 26.8255 241.571 26.6148C241.753 26.4033 242.079 26.3753 242.283 26.5629C242.372 26.6403 242.46 26.7179 242.548 26.7973C243.128 27.3165 243.685 27.8708 244.201 28.4437C244.388 28.6508 244.372 28.9695 244.165 29.1561C243.98 29.3225 243.707 29.3277 243.517 29.1801Z" fill="#BDD0FB"/>
</g>
<g opacity="0.3">
<path d="M214.867 60.4096C214.649 60.2405 214.608 59.9272 214.774 59.7068C214.942 59.4848 215.259 59.4408 215.481 59.6092C216.15 60.1157 216.855 60.5857 217.577 61.006C217.815 61.1475 217.9 61.4549 217.76 61.696C217.62 61.937 217.311 62.0182 217.07 61.8783C216.313 61.4371 215.573 60.9447 214.872 60.4138C214.87 60.4125 214.868 60.411 214.867 60.4096ZM212.906 58.7304C212.892 58.7192 212.878 58.7074 212.865 58.6945C212.233 58.0843 211.632 57.4295 211.078 56.7483C210.903 56.5319 210.935 56.2145 211.152 56.0387C211.368 55.8624 211.686 55.8971 211.862 56.1115C212.39 56.7617 212.964 57.3864 213.566 57.9689C213.767 58.1623 213.772 58.4818 213.579 58.6821C213.397 58.8696 213.107 58.8866 212.906 58.7304ZM219.32 62.9999C219.143 62.8626 219.074 62.6187 219.166 62.4033C219.275 62.1475 219.571 62.0285 219.828 62.138C220.6 62.4677 221.398 62.7534 222.201 62.9866C222.468 63.0658 222.622 63.3445 222.544 63.612C222.466 63.8794 222.186 64.0335 221.919 63.9557C221.077 63.7111 220.24 63.4115 219.431 63.0657C219.39 63.0481 219.353 63.026 219.32 62.9999ZM209.658 54.7286C209.613 54.6933 209.572 54.6498 209.54 54.5984C209.073 53.8537 208.648 53.0727 208.276 52.277C208.158 52.0245 208.267 51.7243 208.519 51.606C208.771 51.4885 209.071 51.5974 209.19 51.8494C209.544 52.608 209.95 53.3524 210.395 54.0626C210.543 54.2986 210.471 54.6101 210.235 54.758C210.051 54.8735 209.82 54.8551 209.658 54.7286ZM224.266 64.4368C224.125 64.3271 224.047 64.1458 224.078 63.9574C224.122 63.682 224.382 63.4955 224.657 63.5402C225.483 63.6749 226.326 63.7602 227.163 63.7935C227.442 63.8045 227.658 64.0395 227.647 64.318C227.636 64.5964 227.401 64.8132 227.123 64.802C226.245 64.7666 225.361 64.6774 224.494 64.5364C224.408 64.5223 224.33 64.4869 224.266 64.4368ZM229.413 64.6451C229.305 64.5611 229.232 64.434 229.22 64.2874C229.197 64.0096 229.404 63.7661 229.682 63.7438C230.519 63.6761 231.358 63.5572 232.178 63.3905C232.451 63.3348 232.717 63.5115 232.773 63.7842C232.828 64.0573 232.652 64.3234 232.379 64.3789C231.52 64.5539 230.64 64.6788 229.763 64.7496C229.633 64.7602 229.509 64.7198 229.413 64.6451ZM234.462 63.6143C234.386 63.5553 234.326 63.4743 234.294 63.3761C234.206 63.1118 234.348 62.8259 234.613 62.7376C235.409 62.4723 236.195 62.1554 236.95 61.7958C237.202 61.6766 237.503 61.7832 237.622 62.0348C237.742 62.2865 237.635 62.5874 237.384 62.7072C236.592 63.0838 235.767 63.4164 234.932 63.6951C234.766 63.7505 234.591 63.7144 234.462 63.6143Z" fill="#BDD0FB"/>
<path d="M207.465 50.0384C207.388 49.9786 207.328 49.8961 207.296 49.7965C207.162 49.386 207.04 48.9695 206.932 48.5589C206.862 48.2894 207.023 48.0135 207.293 47.943C207.562 47.8734 207.838 48.0341 207.909 48.3036C208.011 48.6953 208.128 49.0925 208.255 49.4844C208.341 49.7494 208.196 50.0342 207.931 50.1203C207.766 50.1738 207.593 50.1377 207.465 50.0384Z" fill="#BDD0FB"/>
</g>
<path d="M211.798 45.1517C211.801 45.2606 211.872 45.3561 211.976 45.3892L214.938 46.3341C215.302 47.7397 215.893 49.0976 216.71 50.3487L215.415 53.1731C215.369 53.2721 215.392 53.3891 215.47 53.4644L218.168 56.0395C218.247 56.1147 218.365 56.1317 218.462 56.0817L221.223 54.6562C222.511 55.4142 223.894 55.9411 225.316 56.2393L226.397 59.1544C226.435 59.2566 226.534 59.3234 226.643 59.3209L230.372 59.2341C230.481 59.2316 230.576 59.1602 230.609 59.0564L231.554 56.0941C232.96 55.7302 234.317 55.1394 235.569 54.3222L238.393 55.6178C238.492 55.6632 238.609 55.6408 238.684 55.562L241.259 52.864C241.335 52.7851 241.352 52.6672 241.301 52.5704L239.876 49.8093C240.634 48.5216 241.161 47.1377 241.459 45.7167L244.374 44.6349C244.476 44.597 244.543 44.4983 244.541 44.3894L244.454 40.6607C244.451 40.5518 244.38 40.4565 244.276 40.4233L241.314 39.4784C240.95 38.0727 240.359 36.7148 239.542 35.4638L240.837 32.6393C240.883 32.5402 240.86 32.4233 240.782 32.348L238.084 29.7729C238.005 29.6977 237.887 29.6807 237.79 29.7307L235.029 31.1563C233.741 30.3983 232.357 29.8713 230.936 29.5732L229.855 26.6582C229.817 26.5559 229.718 26.4891 229.609 26.4916L225.881 26.5784C225.772 26.581 225.676 26.6524 225.643 26.7562L224.698 29.7185C223.292 30.0824 221.935 30.6732 220.684 31.4904L217.859 30.1949C217.76 30.1495 217.643 30.1719 217.568 30.2508L214.993 32.9487C214.917 33.0276 214.901 33.1454 214.95 33.2423L216.376 36.0034C215.618 37.2911 215.091 38.6749 214.793 40.096L211.878 41.1778C211.776 41.2158 211.709 41.3143 211.711 41.4233L211.798 45.1517Z" fill="#BDD0FB"/>
<path d="M225.776 45.9138C225.134 45.4141 224.67 44.7245 224.449 43.926C224.176 42.9438 224.303 41.9142 224.805 41.0269C225.841 39.1959 228.173 38.5487 230.005 39.5844C231.837 40.6251 232.484 42.954 231.448 44.7853C230.946 45.6727 230.128 46.3114 229.146 46.5837C228.164 46.8563 227.134 46.73 226.247 46.2276C226.081 46.1337 225.924 46.0287 225.776 45.9138ZM229.851 40.6913C229.744 40.6079 229.63 40.5316 229.508 40.4626C228.161 39.7008 226.445 40.1768 225.683 41.5241C225.314 42.1765 225.22 42.9341 225.421 43.6563C225.622 44.3791 226.092 44.9795 226.744 45.3496C227.397 45.7187 228.154 45.8118 228.876 45.6115C229.599 45.411 230.2 44.9411 230.57 44.2882C231.263 43.063 230.931 41.5317 229.851 40.6913Z" fill="url(#paint3_linear_1898_41133)"/>
<path d="M222.375 50.4039C222.123 50.2079 221.879 49.9975 221.643 49.7728C221.175 49.3261 220.751 48.8315 220.384 48.301C220.368 48.2771 220.352 48.2531 220.335 48.2292C220.209 48.0438 220.223 47.8045 220.354 47.6363C220.386 47.5954 220.424 47.5589 220.469 47.5284C220.7 47.3718 221.013 47.4331 221.17 47.6626C221.508 48.161 221.902 48.6252 222.339 49.0424L222.339 49.0426C222.363 49.0656 222.388 49.0883 222.412 49.1108C223.456 50.0889 224.705 50.7697 226.055 51.1202C226.787 51.3104 227.55 51.4031 228.326 51.3921C228.332 51.392 228.338 51.3919 228.345 51.3919C228.364 51.3914 228.383 51.3913 228.403 51.3906C230.671 51.3376 232.783 50.4046 234.35 48.7632C234.553 48.551 234.743 48.33 234.921 48.1013C236.118 46.5628 236.743 44.6751 236.698 42.7C236.645 40.4315 235.711 38.3196 234.07 36.7531C232.429 35.1881 230.275 34.3528 228.007 34.4052C225.739 34.4581 223.626 35.3911 222.06 37.0325C221.86 37.2412 221.672 37.4596 221.496 37.6859C220.733 38.6677 220.193 39.805 219.919 41.0189C219.902 41.0937 219.87 41.1608 219.825 41.2174C219.709 41.3668 219.513 41.4444 219.316 41.3998C219.044 41.3378 218.873 41.0687 218.935 40.7963C219.241 39.4381 219.846 38.1652 220.699 37.0671C220.896 36.8136 221.107 36.5695 221.33 36.3359C223.083 34.4993 225.446 33.4555 227.984 33.3964C230.522 33.3375 232.931 34.268 234.767 36.0229C236.603 37.7756 237.647 40.1384 237.706 42.6767C237.758 44.8862 237.058 46.9979 235.719 48.7193C235.52 48.9748 235.307 49.2222 235.08 49.4598C231.686 53.0151 226.174 53.3593 222.375 50.4039Z" fill="url(#paint4_linear_1898_41133)"/>
<path d="M379.234 1.60893C379.632 0.486089 378.094 -0.458092 377.013 0.237957C366.033 7.30577 339.121 29.1263 340.459 72.572C342.137 127.081 327.037 145.245 309.606 155.422C309.606 155.422 332.359 152.235 348.469 133.89C388.022 88.8495 372.169 21.5734 379.234 1.60893Z" fill="#BDD0FB"/>
<path d="M369.72 17.5319C367.803 23.3689 366.02 29.2394 364.49 35.1648C362.924 41.0812 361.568 47.0418 360.429 53.0365C359.317 59.0351 358.335 65.0545 357.652 71.1093C356.938 77.1603 356.525 83.2393 356.135 89.3448C355.706 95.4437 355.314 101.591 354.192 107.702C353.08 113.801 351.105 119.86 347.899 125.391C347.098 126.77 346.264 128.14 345.344 129.451C344.452 130.779 343.491 132.07 342.503 133.346C340.511 135.888 338.317 138.316 335.92 140.585C331.111 145.112 325.486 148.98 319.414 152.109C318.775 152.438 317.932 152.247 317.531 151.683C317.138 151.128 317.317 150.419 317.929 150.082L317.933 150.08C319.384 149.282 320.822 148.47 322.211 147.604C322.914 147.181 323.593 146.732 324.281 146.293C324.949 145.832 325.639 145.395 326.289 144.916C328.927 143.041 331.405 141.003 333.69 138.812C338.281 134.454 342.122 129.458 345.196 124.179C346.698 121.523 347.968 118.769 348.987 115.933C350.002 113.096 350.765 110.18 351.336 107.219C352.477 101.293 352.923 95.2133 353.403 89.1188C353.892 83.0238 354.432 76.903 355.262 70.8192C355.668 67.7765 356.137 64.7421 356.669 61.7184C356.925 60.2049 357.214 58.697 357.501 57.1888C357.804 55.6834 358.117 54.1799 358.444 52.6794C359.766 46.6793 361.299 40.7231 363.049 34.8231C364.832 28.9313 366.796 23.0876 369.02 17.3265C369.083 17.1618 369.291 17.0773 369.483 17.1377C369.669 17.1966 369.773 17.3712 369.72 17.5319Z" fill="white"/>
<path d="M329.363 152.101C330.366 154.051 333.034 154.342 334.457 152.673C342.305 143.465 362.14 115.425 354.559 74.3528C348.157 39.669 347.982 20.2537 348.513 11.4343C348.625 9.56938 346.291 8.64503 345.093 10.0788C331.877 25.8969 293.006 81.4543 329.363 152.101Z" fill="#91B3FA"/>
<path d="M332.309 151.74C332.358 151.764 332.41 151.783 332.464 151.798C332.921 151.922 333.391 151.653 333.515 151.196C333.655 150.679 347.484 98.9166 340.762 50.2891C340.697 49.8211 340.265 49.4939 339.796 49.5583C339.328 49.6231 339.001 50.0552 339.065 50.5237C345.739 98.7973 332.002 150.234 331.863 150.748C331.753 151.15 331.949 151.562 332.309 151.74Z" fill="white"/>
<path d="M123.013 198.484C123.013 200.852 124.952 202.789 127.322 202.789H360.347C362.717 202.789 364.656 200.852 364.656 198.484L366.595 64.5709C366.595 62.2031 363.806 57.5806 358.693 57.928L130.956 52.0353C127.982 51.9583 125.106 53.1029 123.001 55.2019C120.895 57.3009 119.743 60.1707 119.813 63.1418L123.013 198.484Z" fill="url(#paint5_linear_1898_41133)"/>
<path d="M127.267 194.353C127.267 196.596 129.102 198.43 131.344 198.43H354.728C356.97 198.43 358.804 196.596 358.804 194.353L360.634 72.7861C360.419 65.4705 354.005 62.8412 350.117 62.9964L131.851 57.1407C129.762 57.0846 127.742 57.8896 126.262 59.3655C124.783 60.8414 123.969 62.8612 124.021 64.9505L127.267 194.353Z" fill="#91B3FA"/>
<path d="M356.391 136.555C356.388 136.555 356.385 136.555 356.382 136.555C356.077 136.551 355.833 136.299 355.838 135.994L355.983 126.136C355.987 125.831 356.237 125.609 356.543 125.591C356.848 125.596 357.092 125.847 357.087 126.152L356.943 136.011C356.938 136.313 356.692 136.555 356.391 136.555Z" fill="#91B3FA"/>
<path d="M356.745 112.396C356.743 112.396 356.74 112.396 356.737 112.396C356.432 112.391 356.188 112.14 356.193 111.835L356.747 74.0752C356.737 71.8187 356.051 70.0171 354.71 68.7316C352.21 66.3362 348.243 66.4602 348.074 66.4651L278.314 64.5946C278.009 64.5868 277.769 64.3326 277.777 64.0277C277.785 63.7278 278.03 63.49 278.329 63.49C278.334 63.49 278.338 63.49 278.344 63.4906L348.065 65.3611C348.498 65.3408 352.687 65.264 355.474 67.9336C357.04 69.4347 357.84 71.5027 357.852 74.0806L357.297 111.851C357.293 112.154 357.046 112.396 356.745 112.396Z" fill="#91B3FA"/>
<path d="M104.37 213.905H378.575C378.719 213.905 378.836 213.788 378.836 213.644V202.4C378.836 202.257 378.719 202.139 378.575 202.139H104.37C104.227 202.139 104.109 202.257 104.109 202.4V213.644C104.109 213.788 104.227 213.905 104.37 213.905Z" fill="url(#paint6_linear_1898_41133)"/>
<path d="M326.117 183.619H152.906C147.108 183.619 142.408 178.919 142.408 173.121V88.9958C142.408 83.1312 147.212 78.404 153.076 78.499L326.287 81.3058C332.018 81.3987 336.615 86.0709 336.615 91.8026V173.121C336.615 178.919 331.915 183.619 326.117 183.619Z" fill="#7D97F4"/>
<path opacity="0.58" d="M327.466 184.467H160.451C158.748 184.467 157.367 183.164 157.367 181.558C157.367 179.951 158.748 178.649 160.306 178.649H327.321C329.169 178.649 330.55 179.951 330.55 181.558C330.55 183.164 329.169 184.467 327.466 184.467Z" fill="white"/>
<path d="M229.196 184.467H160.276C158.67 184.467 157.367 183.164 157.367 181.558C157.367 179.951 158.67 178.649 160.276 178.649H229.196C230.803 178.649 232.105 179.951 232.105 181.558C232.105 183.164 230.803 184.467 229.196 184.467Z" fill="url(#paint7_linear_1898_41133)"/>
<path d="M229.37 186.816C232.542 186.816 235.113 184.245 235.113 181.073C235.113 177.901 232.542 175.329 229.37 175.329C226.198 175.329 223.627 177.901 223.627 181.073C223.627 184.245 226.198 186.816 229.37 186.816Z" fill="url(#paint8_linear_1898_41133)"/>
<path d="M68.4306 42.3754L62.7999 46.8896C61.2365 48.1427 62.0643 50.8226 64.0123 50.8129L156.571 50.2671L131.513 35.3042H88.2397C81.104 35.3044 74.1581 37.7836 68.4306 42.3754Z" fill="url(#paint9_linear_1898_41133)"/>
<path d="M206.291 82.6368C206.211 81.878 206.127 81.1181 206.044 80.3654C205.188 72.6418 201.246 65.709 195.247 61.394L194.783 61.0602C187.557 55.8633 179.256 52.6664 170.614 51.7524L156.571 50.2671L64.0127 50.8129C62.0647 50.8226 61.2367 48.1427 62.8003 46.8895L68.4309 42.3754C74.1582 37.7835 81.1043 35.3041 88.2401 35.3041H131.514L131.189 35.1581C128.589 33.9879 125.8 33.3855 122.982 33.3855H82.2305C79.7545 33.3855 77.2925 33.7859 74.9264 34.5726L44.2758 46.81C42.7609 47.3141 41.4088 48.2686 40.3741 49.564L34.0427 57.4926C32.7248 59.1428 32 61.2487 32 63.427V76.3471C32 79.7667 43.2089 91.4503 43.2089 91.4503C44.4297 92.121 45.7805 92.4708 47.1504 92.4708H184.844L199.468 91.443C203.656 91.148 206.771 87.1347 206.291 82.6368Z" fill="#EE6C2D"/>
<path d="M205.805 88.4897H205.367C204.515 88.4897 203.824 87.7443 203.824 86.8248V78.4593C203.824 77.5398 204.515 76.7947 205.367 76.7947C206.186 76.7947 206.862 77.4839 206.908 78.3656L207.346 86.7311C207.396 87.6858 206.691 88.4897 205.805 88.4897Z" fill="url(#paint10_linear_1898_41133)"/>
<path d="M200.375 75.1889H204.97C203.26 69.5953 199.867 64.717 195.247 61.394L194.783 61.0601C194.304 60.716 193.82 60.3816 193.332 60.0548C194.27 63.5848 195.426 68.4256 196.188 71.6742C196.673 73.7433 198.397 75.1889 200.375 75.1889Z" fill="url(#paint11_linear_1898_41133)"/>
<path d="M44.276 56.3772V46.8105C42.7611 47.3146 41.409 48.2691 40.3743 49.5645L34.0429 57.4931C32.9427 58.8706 32.263 60.5675 32.066 62.3572L40.7091 60.8819C42.7632 60.5315 44.276 58.6209 44.276 56.3772Z" fill="url(#paint12_linear_1898_41133)"/>
<path d="M141.362 49.8462L138.108 46.4348C136.752 45.0133 135.045 44.0429 133.192 43.6396L126.755 42.2393C124.989 41.8549 123.298 43.1909 123.105 45.1236L123.06 45.5775C122.863 47.5461 124.304 49.2583 126.139 49.2359L134.431 49.1343C135.588 49.1201 136.639 49.8576 137.095 51.0039L137.248 51.3874C137.451 51.8961 137.915 52.2259 138.428 52.2259H140.467C141.621 52.2259 142.19 50.7133 141.362 49.8462Z" fill="url(#paint13_linear_1898_41133)"/>
<path d="M108.019 56.0262H122.212C123.319 56.0262 124.099 57.2132 123.715 58.3334C123.066 60.2286 121.519 62.6459 117.843 62.9284C114.537 63.1824 110.369 61.1625 107.226 59.2437C105.801 58.3736 106.382 56.0262 108.019 56.0262Z" fill="url(#paint14_linear_1898_41133)"/>
<path d="M66.23 107.796C76.5774 107.796 84.9657 99.4081 84.9657 89.0607C84.9657 78.7132 76.5774 70.325 66.23 70.325C55.8825 70.325 47.4943 78.7132 47.4943 89.0607C47.4943 99.4081 55.8825 107.796 66.23 107.796Z" fill="url(#paint15_linear_1898_41133)"/>
<path d="M66.2302 104.276C74.6335 104.276 81.4457 97.4642 81.4457 89.0609C81.4457 80.6576 74.6335 73.8455 66.2302 73.8455C57.827 73.8455 51.0148 80.6576 51.0148 89.0609C51.0148 97.4642 57.827 104.276 66.2302 104.276Z" fill="url(#paint16_linear_1898_41133)"/>
<path d="M176.732 107.796C187.079 107.796 195.467 99.4081 195.467 89.0607C195.467 78.7132 187.079 70.325 176.732 70.325C166.384 70.325 157.996 78.7132 157.996 89.0607C157.996 99.4081 166.384 107.796 176.732 107.796Z" fill="url(#paint17_linear_1898_41133)"/>
<path d="M176.732 104.276C185.135 104.276 191.947 97.4642 191.947 89.0609C191.947 80.6576 185.135 73.8455 176.732 73.8455C168.328 73.8455 161.516 80.6576 161.516 89.0609C161.516 97.4642 168.328 104.276 176.732 104.276Z" fill="url(#paint18_linear_1898_41133)"/>
<path d="M189.144 94.6809C189.095 94.6809 189.046 94.6714 188.998 94.6512C188.806 94.5704 188.717 94.3497 188.798 94.1583C189.481 92.544 189.827 90.829 189.827 89.0611C189.827 81.8401 183.952 75.9658 176.732 75.9658C174.492 75.9658 172.281 76.5409 170.339 77.6293C170.159 77.7314 169.929 77.6667 169.827 77.4853C169.726 77.3038 169.79 77.0747 169.971 76.9734C172.025 75.8221 174.363 75.2135 176.732 75.2135C184.367 75.2135 190.579 81.4254 190.579 89.0611C190.579 90.9304 190.213 92.7437 189.491 94.4514C189.43 94.5951 189.291 94.6809 189.144 94.6809Z" fill="url(#paint19_linear_1898_41133)"/>
<path d="M79.0104 94.6809C78.9616 94.6809 78.912 94.6714 78.864 94.6512C78.6726 94.5704 78.5832 94.3497 78.6642 94.1583C79.3469 92.5444 79.6931 90.8294 79.6931 89.0611C79.6931 81.8401 73.8188 75.9658 66.5979 75.9658C64.3579 75.9658 62.1475 76.5409 60.2055 77.6293C60.0252 77.7314 59.7953 77.6667 59.6936 77.4853C59.592 77.3038 59.6567 77.0747 59.8379 76.9734C61.8918 75.8221 64.2294 75.2135 66.5981 75.2135C74.2336 75.2135 80.4456 81.4254 80.4456 89.0611C80.4456 90.9304 80.0793 92.7441 79.3572 94.4514C79.2964 94.5951 79.1568 94.6809 79.0104 94.6809Z" fill="url(#paint20_linear_1898_41133)"/>
<path d="M88.9005 83.3993C88.7235 83.3993 88.5657 83.2737 88.5313 83.0934C86.8761 74.3904 81.9183 68.8505 73.7961 66.6279C67.7009 64.9595 62.0108 65.8874 61.9543 65.897C61.7497 65.9293 61.5555 65.7934 61.5209 65.5884C61.4863 65.3837 61.6244 65.1898 61.8292 65.155C62.0669 65.1153 67.7181 64.1904 73.9708 65.8959C79.7713 67.4771 87.1343 71.7199 89.2706 82.9529C89.3093 83.1568 89.1754 83.3537 88.9715 83.3926C88.9474 83.3971 88.9238 83.3993 88.9005 83.3993Z" fill="url(#paint21_linear_1898_41133)"/>
<path d="M153.848 86.2535C153.646 86.2535 153.479 86.0927 153.472 85.8892C153.255 78.9508 155.117 73.5137 159.005 69.7283C165.421 63.484 175.258 63.9817 175.357 63.9869C175.565 63.9991 175.723 64.1767 175.711 64.384C175.699 64.5914 175.521 64.7502 175.314 64.7377C175.218 64.7319 165.699 64.2583 159.526 70.2716C155.798 73.9032 154.014 79.1498 154.224 85.8658C154.231 86.0734 154.068 86.247 153.86 86.2533C153.856 86.2535 153.852 86.2535 153.848 86.2535Z" fill="url(#paint22_linear_1898_41133)"/>
<path d="M64.6036 48.8448C64.4729 48.8448 64.3455 48.7765 64.2763 48.6547C64.1736 48.4742 64.2367 48.2446 64.4172 48.1419L76.9665 41.0017C80.5538 38.9607 84.6305 37.8427 88.7562 37.7687L103.151 37.5104C103.36 37.5147 103.531 37.672 103.534 37.8798C103.538 38.0874 103.373 38.2589 103.165 38.2627L88.7696 38.5211C84.7693 38.5928 80.8164 39.6767 77.3384 41.6555L64.789 48.7959C64.7306 48.8291 64.6667 48.8448 64.6036 48.8448Z" fill="#7D97F4"/>
<path d="M240.142 161.28C222.01 161.28 207.258 146.529 207.258 128.397C207.258 110.266 222.01 95.5142 240.142 95.5142C258.274 95.5142 273.025 110.265 273.025 128.397C273.025 146.529 258.274 161.28 240.142 161.28ZM240.142 101.025C225.048 101.025 212.769 113.304 212.769 128.397C212.769 143.491 225.048 155.77 240.142 155.77C255.235 155.77 267.514 143.491 267.514 128.397C267.514 113.304 255.235 101.025 240.142 101.025Z" fill="#BDD0FB"/>
<path fill-rule="evenodd" clip-rule="evenodd" d="M229.841 141.061V117.42C229.841 114.894 232.59 113.329 234.763 114.618L254.683 126.438C256.811 127.701 256.811 130.781 254.683 132.043L234.763 143.864C232.59 145.153 229.841 143.587 229.841 141.061Z" fill="white"/>
<defs>
<linearGradient id="paint0_linear_1898_41133" x1="471.312" y1="294.897" x2="326.759" y2="-45.888" gradientUnits="userSpaceOnUse">
<stop stop-color="#DAE3FE"/>
<stop offset="1" stop-color="#E9EFFD"/>
</linearGradient>
<linearGradient id="paint1_linear_1898_41133" x1="265.217" y1="51.6918" x2="276.423" y2="51.6918" gradientUnits="userSpaceOnUse">
<stop stop-color="#DAE3FE"/>
<stop offset="1" stop-color="#E9EFFD"/>
</linearGradient>
<linearGradient id="paint2_linear_1898_41133" x1="257.491" y1="51.6829" x2="284.712" y2="51.6829" gradientUnits="userSpaceOnUse">
<stop stop-color="#DAE3FE"/>
<stop offset="1" stop-color="#E9EFFD"/>
</linearGradient>
<linearGradient id="paint3_linear_1898_41133" x1="224.308" y1="42.9075" x2="231.942" y2="42.9075" gradientUnits="userSpaceOnUse">
<stop stop-color="#DAE3FE"/>
<stop offset="1" stop-color="#E9EFFD"/>
</linearGradient>
<linearGradient id="paint4_linear_1898_41133" x1="218.922" y1="42.8955" x2="237.709" y2="42.8955" gradientUnits="userSpaceOnUse">
<stop stop-color="#DAE3FE"/>
<stop offset="1" stop-color="#E9EFFD"/>
</linearGradient>
<linearGradient id="paint5_linear_1898_41133" x1="265.119" y1="192.494" x2="210.084" y2="27.3876" gradientUnits="userSpaceOnUse">
<stop stop-color="#09005D"/>
<stop offset="1" stop-color="#1A0F91"/>
</linearGradient>
<linearGradient id="paint6_linear_1898_41133" x1="240.777" y1="212.039" x2="245.554" y2="184.441" gradientUnits="userSpaceOnUse">
<stop stop-color="#09005D"/>
<stop offset="1" stop-color="#1A0F91"/>
</linearGradient>
<linearGradient id="paint7_linear_1898_41133" x1="157.367" y1="181.558" x2="232.105" y2="181.558" gradientUnits="userSpaceOnUse">
<stop stop-color="#FF928E"/>
<stop offset="1" stop-color="#FE7062"/>
</linearGradient>
<linearGradient id="paint8_linear_1898_41133" x1="238.963" y1="169.485" x2="216.456" y2="196.672" gradientUnits="userSpaceOnUse">
<stop stop-color="#E1473D"/>
<stop offset="1" stop-color="#E9605A"/>
</linearGradient>
<linearGradient id="paint9_linear_1898_41133" x1="61.9819" y1="43.0587" x2="156.571" y2="43.0587" gradientUnits="userSpaceOnUse">
<stop stop-color="#09005D"/>
<stop offset="1" stop-color="#1A0F91"/>
</linearGradient>
<linearGradient id="paint10_linear_1898_41133" x1="232.166" y1="53.5896" x2="195.976" y2="93.1462" gradientUnits="userSpaceOnUse">
<stop stop-color="#E1473D"/>
<stop offset="1" stop-color="#E9605A"/>
</linearGradient>
<linearGradient id="paint11_linear_1898_41133" x1="205.396" y1="58.628" x2="199.384" y2="67.2856" gradientUnits="userSpaceOnUse">
<stop stop-color="#E1473D"/>
<stop offset="1" stop-color="#E9605A"/>
</linearGradient>
<linearGradient id="paint12_linear_1898_41133" x1="34.5242" y1="49.0733" x2="43.9799" y2="63.3619" gradientUnits="userSpaceOnUse">
<stop stop-color="#E1473D"/>
<stop offset="1" stop-color="#E9605A"/>
</linearGradient>
<linearGradient id="paint13_linear_1898_41133" x1="142.558" y1="56.6267" x2="125.662" y2="42.9916" gradientUnits="userSpaceOnUse">
<stop stop-color="#E1473D"/>
<stop offset="1" stop-color="#E9605A"/>
</linearGradient>
<linearGradient id="paint14_linear_1898_41133" x1="106.629" y1="66.6511" x2="115.521" y2="57.7586" gradientUnits="userSpaceOnUse">
<stop stop-color="#E1473D"/>
<stop offset="1" stop-color="#E9605A"/>
</linearGradient>
<linearGradient id="paint15_linear_1898_41133" x1="103.821" y1="55.3622" x2="40.6018" y2="112.035" gradientUnits="userSpaceOnUse">
<stop stop-color="#09005D"/>
<stop offset="1" stop-color="#1A0F91"/>
</linearGradient>
<linearGradient id="paint16_linear_1898_41133" x1="81.2245" y1="64.4934" x2="39.6956" y2="132.537" gradientUnits="userSpaceOnUse">
<stop stop-color="#E1473D"/>
<stop offset="1" stop-color="#E9605A"/>
</linearGradient>
<linearGradient id="paint17_linear_1898_41133" x1="164.616" y1="57.419" x2="187.247" y2="116.523" gradientUnits="userSpaceOnUse">
<stop stop-color="#09005D"/>
<stop offset="1" stop-color="#1A0F91"/>
</linearGradient>
<linearGradient id="paint18_linear_1898_41133" x1="193.014" y1="61.2556" x2="151.485" y2="132.174" gradientUnits="userSpaceOnUse">
<stop stop-color="#E1473D"/>
<stop offset="1" stop-color="#E9605A"/>
</linearGradient>
<linearGradient id="paint19_linear_1898_41133" x1="185.216" y1="34.3271" x2="182.784" y2="58.0811" gradientUnits="userSpaceOnUse">
<stop stop-color="#FE7062"/>
<stop offset="1" stop-color="#FF928E"/>
</linearGradient>
<linearGradient id="paint20_linear_1898_41133" x1="76.2242" y1="23.1705" x2="73.7927" y2="46.9244" gradientUnits="userSpaceOnUse">
<stop stop-color="#FE7062"/>
<stop offset="1" stop-color="#FF928E"/>
</linearGradient>
<linearGradient id="paint21_linear_1898_41133" x1="79.5272" y1="23.525" x2="78.2179" y2="39.6104" gradientUnits="userSpaceOnUse">
<stop stop-color="#FF928E"/>
<stop offset="1" stop-color="#FEB3B1"/>
</linearGradient>
<linearGradient id="paint22_linear_1898_41133" x1="168.102" y1="30.7341" x2="166.792" y2="46.8195" gradientUnits="userSpaceOnUse">
<stop stop-color="#FF928E"/>
<stop offset="1" stop-color="#FEB3B1"/>
</linearGradient>
</defs>
</svg>
