<svg width="423" height="231" viewBox="0 0 423 231" fill="none" xmlns="http://www.w3.org/2000/svg">
<path d="M45.1746 11.2549V133.291C45.1746 139.365 50.1003 144.291 56.1817 144.291H250.73C256.818 144.291 261.744 139.365 261.744 133.291V11.2549C261.744 5.18137 256.818 0.247803 250.73 0.247803H56.1817C50.1003 0.247803 45.1746 5.18137 45.1746 11.2549Z" fill="#C2DDFA"/>
<path opacity="0.5" d="M102.855 17.1003V144.29H56.1891C50.1002 144.29 45.1746 139.364 45.1746 133.291V17.1003H102.855Z" fill="#016DDD"/>
<g opacity="0.5">
<path d="M52.8853 95.3972H87.3282C87.7479 95.3972 88.0883 95.0568 88.0883 94.6371C88.0883 94.2173 87.7479 93.877 87.3282 93.877H52.8853C52.4656 93.877 52.1252 94.2173 52.1252 94.6371C52.1252 95.0568 52.4656 95.3972 52.8853 95.3972Z" fill="#2E3442"/>
<path d="M94.2492 96.292C95.1632 96.292 95.9041 95.5511 95.9041 94.6371C95.9041 93.7231 95.1632 92.9822 94.2492 92.9822C93.3352 92.9822 92.5943 93.7231 92.5943 94.6371C92.5943 95.5511 93.3352 96.292 94.2492 96.292Z" fill="#2E3442"/>
<path d="M52.8853 104.519H87.3282C87.7479 104.519 88.0883 104.179 88.0883 103.759C88.0883 103.339 87.7479 102.999 87.3282 102.999H52.8853C52.4656 102.999 52.1252 103.339 52.1252 103.759C52.1252 104.179 52.4656 104.519 52.8853 104.519Z" fill="#2E3442"/>
<path d="M94.2492 105.414C95.1632 105.414 95.9041 104.673 95.9041 103.759C95.9041 102.845 95.1632 102.104 94.2492 102.104C93.3352 102.104 92.5943 102.845 92.5943 103.759C92.5943 104.673 93.3352 105.414 94.2492 105.414Z" fill="#2E3442"/>
<path d="M52.8853 113.64H87.3282C87.7479 113.64 88.0883 113.3 88.0883 112.88C88.0883 112.461 87.7479 112.12 87.3282 112.12H52.8853C52.4656 112.12 52.1252 112.461 52.1252 112.88C52.1252 113.3 52.4656 113.64 52.8853 113.64Z" fill="#2E3442"/>
<path d="M94.2492 114.536C95.1632 114.536 95.9041 113.795 95.9041 112.881C95.9041 111.967 95.1632 111.226 94.2492 111.226C93.3352 111.226 92.5943 111.967 92.5943 112.881C92.5943 113.795 93.3352 114.536 94.2492 114.536Z" fill="#2E3442"/>
<path d="M52.8853 122.763H87.3282C87.7479 122.763 88.0883 122.422 88.0883 122.002C88.0883 121.583 87.7479 121.242 87.3282 121.242H52.8853C52.4656 121.242 52.1252 121.583 52.1252 122.002C52.1252 122.422 52.4656 122.763 52.8853 122.763Z" fill="#2E3442"/>
<path d="M94.2492 123.657C95.1632 123.657 95.9041 122.916 95.9041 122.002C95.9041 121.088 95.1632 120.347 94.2492 120.347C93.3352 120.347 92.5943 121.088 92.5943 122.002C92.5943 122.916 93.3352 123.657 94.2492 123.657Z" fill="#2E3442"/>
<path d="M52.8853 131.885H87.3282C87.7479 131.885 88.0883 131.544 88.0883 131.125C88.0883 130.705 87.7479 130.364 87.3282 130.364H52.8853C52.4656 130.364 52.1252 130.705 52.1252 131.125C52.1252 131.544 52.4656 131.885 52.8853 131.885Z" fill="#2E3442"/>
<path d="M94.2492 132.779C95.1632 132.779 95.9041 132.038 95.9041 131.124C95.9041 130.21 95.1632 129.469 94.2492 129.469C93.3352 129.469 92.5943 130.21 92.5943 131.124C92.5943 132.038 93.3352 132.779 94.2492 132.779Z" fill="#2E3442"/>
<path d="M55.0183 34.0293V50.2432C55.0183 55.7772 59.4957 60.2546 65.0298 60.2546H82.9999C88.5339 60.2546 93.0113 55.7772 93.0113 50.2432V34.0293C93.0113 28.4952 88.5339 24.0178 82.9999 24.0178H65.0298C59.4957 24.0178 55.0183 28.4952 55.0183 34.0293ZM79.6704 34.7438C79.6704 37.868 77.1391 40.3993 74.0148 40.3993C70.8906 40.3993 68.3593 37.868 68.3593 34.7438C68.3593 31.6195 70.8906 29.0882 74.0148 29.0882C77.1391 29.0882 79.6704 31.6195 79.6704 34.7438ZM60.8032 54.6601C61.1682 47.6896 66.9377 42.1248 74.0148 42.1248C81.0919 42.1248 86.8615 47.6891 87.2264 54.6601H60.8032Z" fill="#2E3442"/>
<path d="M95.2992 70.4306H52.7301C51.8906 70.4306 51.2098 69.7499 51.2098 68.9104C51.2098 68.0709 51.8906 67.3901 52.7301 67.3901H95.2992C96.1387 67.3901 96.8195 68.0709 96.8195 68.9104C96.8195 69.7499 96.1387 70.4306 95.2992 70.4306Z" fill="#2E3442"/>
<path d="M87.7585 78.187H60.2707C59.4312 78.187 58.7505 77.5062 58.7505 76.6667C58.7505 75.8272 59.4312 75.1465 60.2707 75.1465H87.7585C88.598 75.1465 89.2787 75.8272 89.2787 76.6667C89.2787 77.5062 88.598 78.187 87.7585 78.187Z" fill="#2E3442"/>
</g>
<g opacity="0.5">
<path d="M166.422 116.588H187.614C187.986 116.588 188.287 116.287 188.287 115.915V114.819C188.287 114.447 187.986 114.146 187.614 114.146H166.422C166.05 114.146 165.749 114.447 165.749 114.819V115.915C165.749 116.287 166.051 116.588 166.422 116.588Z" fill="#016DDD"/>
<path d="M187.585 118.926H166.452C166.064 118.926 165.749 119.249 165.749 119.648C165.749 120.046 166.064 120.369 166.452 120.369H187.585C187.973 120.369 188.287 120.046 188.287 119.648C188.287 119.249 187.973 118.926 187.585 118.926Z" fill="#016DDD"/>
<path d="M187.585 122.793H166.452C166.064 122.793 165.749 123.115 165.749 123.514C165.749 123.912 166.064 124.235 166.452 124.235H187.585C187.973 124.235 188.287 123.912 188.287 123.514C188.287 123.115 187.973 122.793 187.585 122.793Z" fill="#016DDD"/>
<path d="M176.423 126.659H166.452C166.064 126.659 165.749 126.982 165.749 127.38C165.749 127.779 166.064 128.101 166.452 128.101H176.423C176.811 128.101 177.126 127.779 177.126 127.38C177.125 126.982 176.811 126.659 176.423 126.659Z" fill="#016DDD"/>
</g>
<path d="M157.623 114.146H132.065C129.923 114.146 128.185 115.883 128.185 118.026V132.424C128.185 134.568 129.923 136.305 132.066 136.305H157.624C159.766 136.305 161.502 134.569 161.502 132.427V118.026C161.503 115.883 159.765 114.146 157.623 114.146Z" fill="white"/>
<path d="M139.845 119.998V129.474L149.844 124.736L139.845 119.998Z" fill="#C2DDFA"/>
<g opacity="0.5">
<path d="M232.224 116.588H253.416C253.788 116.588 254.089 116.287 254.089 115.915V114.819C254.089 114.447 253.788 114.146 253.416 114.146H232.224C231.852 114.146 231.551 114.447 231.551 114.819V115.915C231.551 116.287 231.852 116.588 232.224 116.588Z" fill="#016DDD"/>
<path d="M253.387 118.926H232.254C231.865 118.926 231.551 119.249 231.551 119.648C231.551 120.046 231.865 120.369 232.254 120.369H253.387C253.775 120.369 254.089 120.046 254.089 119.648C254.089 119.249 253.775 118.926 253.387 118.926Z" fill="#016DDD"/>
<path d="M253.387 122.793H232.254C231.865 122.793 231.551 123.115 231.551 123.514C231.551 123.912 231.865 124.235 232.254 124.235H253.387C253.775 124.235 254.089 123.912 254.089 123.514C254.089 123.115 253.775 122.793 253.387 122.793Z" fill="#016DDD"/>
<path d="M242.225 126.659H232.254C231.865 126.659 231.551 126.982 231.551 127.38C231.551 127.779 231.865 128.101 232.254 128.101H242.225C242.613 128.101 242.927 127.779 242.927 127.38C242.927 126.982 242.613 126.659 242.225 126.659Z" fill="#016DDD"/>
</g>
<path d="M223.425 114.146H197.867C195.725 114.146 193.988 115.883 193.988 118.026V132.424C193.988 134.568 195.725 136.305 197.869 136.305H223.426C225.568 136.305 227.305 134.569 227.305 132.427V118.026C227.304 115.883 225.567 114.146 223.425 114.146Z" fill="white"/>
<path d="M205.647 119.998V129.474L215.645 124.736L205.647 119.998Z" fill="#C2DDFA"/>
<path d="M254.482 32.0497V103.218C254.482 106.761 251.608 109.631 248.061 109.631H134.606C131.056 109.631 128.185 106.761 128.185 103.218V32.0497C128.185 28.5066 131.056 25.6323 134.606 25.6323H248.061C251.608 25.6323 254.482 28.5066 254.482 32.0497Z" fill="white"/>
<path d="M254.483 32.052V35.9855H128.186V32.052C128.186 28.5084 131.058 25.6328 134.606 25.6328H248.064C251.611 25.6324 254.483 28.5084 254.483 32.052Z" fill="#016DDD"/>
<path d="M136.618 30.809C136.618 31.7165 135.883 32.452 134.975 32.452C134.068 32.452 133.332 31.7165 133.332 30.809C133.332 29.9015 134.068 29.1659 134.975 29.1659C135.883 29.1659 136.618 29.9015 136.618 30.809Z" fill="white"/>
<path d="M142.903 30.809C142.903 31.7165 142.168 32.452 141.26 32.452C140.353 32.452 139.617 31.7165 139.617 30.809C139.617 29.9015 140.353 29.1659 141.26 29.1659C142.168 29.1659 142.903 29.9015 142.903 30.809Z" fill="white"/>
<path d="M149.188 30.809C149.188 31.7165 148.453 32.452 147.545 32.452C146.638 32.452 145.902 31.7165 145.902 30.809C145.902 29.9015 146.638 29.1659 147.545 29.1659C148.453 29.1659 149.188 29.9015 149.188 30.809Z" fill="white"/>
<path d="M213.698 109.632L214 105.419H237.745L238.221 109.632H213.698Z" fill="#434244"/>
<path d="M238.614 100.577L239.877 109.632H212.753L213.877 94.6654V94.6619L214.488 86.5348L212.596 76.469C212.596 76.4619 212.592 76.458 212.592 76.458L219.672 72.0924C219.981 71.9872 220.294 71.885 220.603 71.7832C220.756 71.7323 220.909 71.6815 221.061 71.6306C221.214 71.5797 221.371 71.5288 221.52 71.4814C221.756 71.4051 221.985 71.3323 222.211 71.2595C222.436 71.1867 222.662 71.1174 222.88 71.0485C223.317 70.9104 223.735 70.7832 224.124 70.6665C225.415 70.6665 229.286 70.6266 229.286 70.6266C229.945 70.7941 230.628 70.9941 231.313 71.2086C235.729 72.6091 240.371 74.8356 240.371 74.8356L236.537 85.6545L237.213 90.5113L238.614 100.577Z" fill="#314B87"/>
<path opacity="0.5" d="M231.314 71.2095L226.206 80.8819L223.436 77.1405L220.042 80.4047L219.673 72.092C221.24 71.5648 222.837 71.0472 224.124 70.6674C225.416 70.6674 229.287 70.6274 229.287 70.6274C229.945 70.7946 230.627 70.9919 231.314 71.2095Z" fill="white"/>
<path d="M193.972 81.7762C190.805 78.5278 188.404 75.9044 188.404 75.9044L185.472 80.1349C185.472 80.1349 187.531 82.5797 190.294 85.8417C191.549 84.5118 192.791 83.1714 193.972 81.7762Z" fill="#FFC0C4"/>
<path d="M187.491 81.1894C187.491 81.1894 184.735 82.6197 183.376 82.3942C182.123 82.1021 181.259 81.242 181.259 81.242L182.856 74.3123C182.856 74.3123 184.534 73.564 184.627 73.6833C184.72 73.8026 187.912 77.8848 187.912 77.8848L187.491 81.1894Z" fill="#FFC0C4"/>
<path opacity="0.7" d="M186.718 81.5552C185.8 81.9623 184.279 82.5439 183.376 82.3939C182.123 82.1018 181.259 81.2416 181.259 81.2416L182.856 74.3119C182.856 74.3119 184.534 73.5636 184.627 73.6829C184.72 73.8022 187.362 78.6209 187.362 78.6209C187.362 78.6209 187.712 80.1047 186.718 81.5552Z" fill="#FFC0C4"/>
<path d="M187.354 82.8394L186.051 83.5061L171.497 54.271L172.149 53.9376L187.354 82.8394Z" fill="#434244"/>
<path d="M185.04 75.7197C185.031 76.1307 184.567 76.3062 184.365 76.3829L184.361 76.3834C184.319 76.3983 184.288 76.4114 184.278 76.4202C184.279 76.4649 184.429 76.5163 184.589 76.6408C184.782 76.7816 184.995 77.0194 184.997 77.451C184.98 77.6067 184.902 77.7321 184.799 77.8247C184.601 78.0124 184.324 78.0839 184.324 78.0839L184.331 78.0861C184.403 78.133 185.098 78.5646 184.924 78.9901C184.735 79.4405 183.989 79.7068 183.985 79.7226C183.988 79.737 184.243 79.8147 184.403 79.9835C184.512 80.091 184.58 80.2428 184.502 80.4349C184.368 80.7713 183.812 81.0375 183.476 81.1753C183.409 81.202 183.347 81.2279 183.266 81.2533C183.231 81.2669 183.21 81.2744 183.21 81.2744L183.206 81.2713C182.267 81.5384 180.881 81.6608 180.199 81.1713C179.933 80.9726 179.847 80.3178 179.985 79.9213C179.12 79.4304 179.093 78.1435 179.573 77.8312C178.742 76.8391 179.064 76.1978 179.591 75.8961C179.292 74.8807 179.84 74.1061 180.24 73.9718C180.707 73.8705 181.436 73.9534 182.555 74.2205L182.559 74.2197C182.559 74.2197 182.575 74.228 182.6 74.2385C182.748 74.2977 183.299 74.4048 183.439 74.4771C184.447 74.7451 185.048 75.3645 185.04 75.7197Z" fill="#FFC0C4"/>
<path d="M188.404 75.9045C188.404 75.9045 187.068 73.1241 184.964 71.8661C183.934 71.6477 180.701 75.0145 180.701 75.0145C181.192 76.38 183.059 76.3124 184.223 75.0729C184.223 75.0729 183.671 78.241 187.362 78.6209L188.404 75.9045Z" fill="#FFC0C4"/>
<path opacity="0.7" d="M180.702 75.015C180.844 75.3256 181.072 75.5966 181.362 75.7532C181.652 75.9107 181.988 75.9541 182.312 75.9045C182.637 75.858 182.948 75.7322 183.245 75.583C183.544 75.4339 183.825 75.2484 184.1 75.0541L184.329 74.8922L184.309 75.1769C184.287 75.4778 184.313 75.8006 184.366 76.1063C184.425 76.4129 184.514 76.7151 184.656 76.9923C184.792 77.2717 184.975 77.5305 185.207 77.745C185.436 77.9634 185.707 78.1389 186 78.284C185.685 78.202 185.378 78.0608 185.111 77.8595C184.846 77.6546 184.617 77.3976 184.448 77.1042C184.279 76.8103 184.166 76.487 184.102 76.1572C184.035 75.8252 184.014 75.494 184.045 75.1479L184.254 75.2707C183.969 75.4699 183.667 75.6484 183.349 75.798C183.032 75.9475 182.689 76.0546 182.333 76.0866C181.98 76.1164 181.6 76.0567 181.305 75.8484C181.009 75.6475 180.798 75.3444 180.702 75.015Z" fill="#FFC0C4"/>
<path opacity="0.7" d="M184.404 79.9836L180.997 79.7498L183.985 79.7227C183.987 79.7371 184.243 79.8148 184.404 79.9836Z" fill="#FFC0C4"/>
<path opacity="0.7" d="M184.799 77.8212L184.799 77.8247C184.601 78.0124 184.324 78.0839 184.324 78.0839L180.783 77.937L184.799 77.8212Z" fill="#FFC0C4"/>
<path opacity="0.7" d="M184.589 76.6408L184.6 76.7022L184.07 76.6549L180.92 76.2491L184.361 76.3838C184.319 76.3987 184.288 76.4119 184.278 76.4206C184.279 76.4649 184.43 76.5167 184.589 76.6408Z" fill="#FFC0C4"/>
<path d="M212.592 76.4594L204.313 90.1697L191.391 76.9739C191.391 76.9739 187.52 79.5941 186.268 84.6597C186.268 84.6597 200.654 103.1 204.536 103.474C209.315 103.914 217.245 89.0385 217.245 89.0385C217.245 89.0385 212.63 76.4664 212.592 76.4594Z" fill="#314B87"/>
<path d="M229.288 70.6274C229.065 71.5568 223.437 77.1391 223.437 77.1391L221.479 71.7099L221.528 71.4476L222.098 68.4202C222.372 67.4851 223.011 66.6706 223.797 65.9798C225.913 64.1152 229.047 62.5928 229.047 62.5928L229.288 70.6274Z" fill="#FFC0C4"/>
<path opacity="0.7" d="M227.642 66.5361C227.642 66.5361 225.383 70.2477 221.528 71.4482L222.098 68.4208C222.372 67.4857 223.011 66.6712 223.797 65.9803L227.642 66.5361Z" fill="#FFC0C4"/>
<path d="M229.053 64.8351C227.763 66.8417 223.696 70.42 220.842 70.241C219.567 70.2305 217.022 68.2449 215.781 66.2509C215.492 65.7434 215.356 64.9061 215.317 63.9227C215.306 63.6473 215.304 63.3591 215.307 63.0644C215.342 60.2204 215.986 56.6807 216.164 56.0978C216.639 54.5363 219.227 53.5279 221.96 53.4578C227.394 53.3156 228.252 55.9802 228.254 55.9829C228.464 56.5698 228.756 56.7369 229.195 58.3527C229.906 60.9651 229.847 63.5964 229.053 64.8351Z" fill="#FFC0C4"/>
<path opacity="0.7" d="M223.583 63.6075C223.583 63.6075 224.304 64.0895 225.013 63.9211C225.721 63.7526 226.149 62.9969 226.149 62.9969C226.149 62.9969 225.427 62.5149 224.718 62.6833C224.01 62.8522 223.583 63.6075 223.583 63.6075Z" fill="#FFC0C4"/>
<path opacity="0.7" d="M216.718 63.7206C216.718 63.7206 216.173 64.1276 215.613 64.0254C215.506 64.0066 215.407 63.9697 215.317 63.9224C215.306 63.6469 215.304 63.3587 215.306 63.064C215.457 63.0284 215.625 63.0127 215.792 63.0447C216.355 63.1473 216.718 63.7206 216.718 63.7206Z" fill="#FFC0C4"/>
<path d="M228.216 64.3474L228.262 60.0854C228.262 60.0854 225.888 59.3296 225.898 56.4475C225.898 56.4475 218.181 60.206 213.349 57.1773C211.642 56.1071 211.453 54.7378 211.453 54.7378C212.631 53.6693 214.551 53.7447 215.306 53.8254C215.306 53.8254 217.608 49.7173 222.316 49.4257C227.023 49.134 227.464 52.1069 227.464 52.1069C227.464 52.1069 228.766 51.8152 229.691 52.4819C230.615 53.1486 230.574 58.7173 230.574 58.7173C230.574 58.7173 229.254 59.7748 229.087 60.8784L229.141 63.7535L228.216 64.3474Z" fill="#2E3442"/>
<path d="M229.087 60.8788C229.087 60.8788 229.717 58.6028 231.136 58.5664C232.556 58.5296 232.661 65.9295 229.147 63.2013L229.087 60.8788Z" fill="#FFC0C4"/>
<g opacity="0.7">
<path d="M229.502 62.06C229.543 62.0592 229.578 62.0293 229.585 61.9881C229.586 61.9824 229.684 61.4267 230.013 61.2723C230.166 61.2003 230.353 61.2275 230.569 61.3525C230.61 61.3762 230.663 61.3622 230.686 61.321C230.71 61.2797 230.696 61.2271 230.655 61.2034C230.388 61.0486 230.147 61.0192 229.94 61.1166C229.889 61.1403 229.844 61.1701 229.802 61.2047C229.996 60.7981 230.285 60.5209 230.567 60.5258C230.742 60.5288 230.896 60.6218 231.023 60.8025C231.124 60.9455 231.169 61.0911 231.17 61.0924C231.184 61.1381 231.232 61.1635 231.277 61.1495C231.323 61.1354 231.348 61.0876 231.334 61.0424C231.326 61.0148 231.121 60.363 230.57 60.3534C230.037 60.3433 229.507 61.0819 229.414 61.9644C229.409 62.0105 229.442 62.0526 229.488 62.0587C229.493 62.06 229.498 62.0605 229.502 62.06Z" fill="#FFC0C4"/>
</g>
<path d="M245.73 109.632H236.508L237.49 105.419L238.614 100.577L239.375 97.3178L237.214 90.5113L235.93 86.466C235.93 86.466 236.828 77.9822 240.371 74.8356C240.371 74.8356 248.895 91.6864 249.735 96.4011C250.204 98.0411 247.771 104.604 245.73 109.632Z" fill="#314B87"/>
<path d="M254.482 100.329V103.218C254.482 106.761 251.608 109.631 248.061 109.631H134.606C131.056 109.631 128.185 106.761 128.185 103.218V100.329H254.482Z" fill="#016DDD"/>
<path d="M135.126 102.512H133.862V106.892H135.126V102.512Z" fill="white"/>
<path d="M137.628 102.512H136.363V106.892H137.628V102.512Z" fill="white"/>
<path opacity="0.5" d="M248.09 104.331H141.26V105.072H248.09V104.331Z" fill="#2E3442"/>
<path d="M166.543 105.429H141.26C140.858 105.429 140.533 105.103 140.533 104.701C140.533 104.3 140.858 103.974 141.26 103.974H166.543C166.945 103.974 167.271 104.3 167.271 104.701C167.271 105.103 166.945 105.429 166.543 105.429Z" fill="white"/>
<path d="M174.034 105.429H148.751C148.349 105.429 148.023 105.103 148.023 104.701C148.023 104.3 148.349 103.974 148.751 103.974H174.034C174.436 103.974 174.762 104.3 174.762 104.701C174.762 105.103 174.436 105.429 174.034 105.429Z" fill="white"/>
<path d="M175.741 104.702C175.741 105.403 175.172 105.971 174.471 105.971C173.77 105.971 173.201 105.403 173.201 104.702C173.201 104 173.77 103.432 174.471 103.432C175.172 103.432 175.741 104 175.741 104.702Z" fill="white"/>
<path d="M45.1723 11.2585V18.0036H261.74V11.2585C261.74 5.18191 256.815 0.250977 250.733 0.250977H56.1794C50.0971 0.250977 45.1723 5.18191 45.1723 11.2585Z" fill="#016DDD"/>
<path d="M247.281 9.12718C247.281 10.683 248.542 11.9444 250.098 11.9444C251.654 11.9444 252.916 10.6834 252.916 9.12718C252.916 7.5714 251.654 6.30994 250.098 6.30994C248.543 6.30994 247.281 7.5714 247.281 9.12718Z" fill="white"/>
<path d="M236.504 9.12718C236.504 10.683 237.766 11.9444 239.322 11.9444C240.877 11.9444 242.139 10.6834 242.139 9.12718C242.139 7.5714 240.877 6.30994 239.322 6.30994C237.766 6.30994 236.504 7.5714 236.504 9.12718Z" fill="white"/>
<path d="M225.727 9.12718C225.727 10.683 226.988 11.9444 228.545 11.9444C230.1 11.9444 231.362 10.6834 231.362 9.12718C231.362 7.5714 230.101 6.30994 228.545 6.30994C226.989 6.30994 225.727 7.5714 225.727 9.12718Z" fill="white"/>
<path d="M348.4 189.577L336.663 122.57C320.93 108.03 296.687 108.052 296.687 108.052H286.093H286.082H275.488C275.488 108.052 251.245 108.03 235.512 122.57L223.775 189.577L217.503 225.373H286.082H286.093H354.673L348.4 189.577Z" fill="#0C9674"/>
<path opacity="0.7" d="M354.673 225.373H321.206L335.938 206.46L348.4 189.578L354.673 225.373Z" fill="#2E3442"/>
<path d="M325.502 148.947C329.13 133.454 336.663 122.572 336.663 122.572C336.663 122.572 388.737 174.705 394.585 203.006C399.556 229.414 311.551 221.866 311.551 221.866C311.551 221.866 303.283 215.007 305.545 203.444L346.534 189.781C346.534 189.781 330.766 166.713 325.502 148.947Z" fill="#0C9674"/>
<path opacity="0.7" d="M346.534 189.781L370.216 195.64L345.565 182.189L322.706 142.202L318.465 200.1L346.534 189.781Z" fill="#2E3442"/>
<path opacity="0.7" d="M217.503 225.373H250.969L236.237 206.46L223.775 189.578L217.503 225.373Z" fill="#2E3442"/>
<path d="M246.673 148.947C243.045 133.454 235.513 122.572 235.513 122.572C235.513 122.572 183.439 174.705 177.59 203.006C172.62 229.414 260.624 221.866 260.624 221.866C260.624 221.866 268.892 215.007 266.63 203.444L225.641 189.781C225.641 189.781 241.409 166.713 246.673 148.947Z" fill="#0C9674"/>
<path opacity="0.7" d="M225.641 189.781L201.959 195.64L226.611 182.189L249.469 142.202L253.71 200.1L225.641 189.781Z" fill="#2E3442"/>
<path d="M303.919 108.921L286.338 111.307L268.757 108.921C268.757 108.921 272.148 127.945 286.321 127.976V127.977C286.326 127.977 286.332 127.976 286.338 127.976C286.343 127.976 286.349 127.977 286.355 127.977V127.976C300.527 127.945 303.919 108.921 303.919 108.921Z" fill="#FFC0C4"/>
<path opacity="0.7" d="M303.919 108.921L286.338 111.307L268.757 108.921C268.757 108.921 272.148 127.945 286.321 127.976V127.977C286.326 127.977 286.332 127.976 286.338 127.976C286.343 127.976 286.349 127.977 286.355 127.977V127.976C300.527 127.945 303.919 108.921 303.919 108.921Z" fill="#FFC0C4"/>
<path d="M305.785 67.2417C304.02 61.8827 295.379 57.9391 285.994 57.9391C276.61 57.9391 267.968 61.8827 266.203 67.2417C264.438 72.6008 258.364 97.5103 262.963 104.335C267.561 111.16 277.483 115.934 285.994 115.934C294.55 115.934 305.244 111.006 309.843 104.181C314.443 97.3559 307.551 72.6008 305.785 67.2417Z" fill="#FFC0C4"/>
<path d="M261.767 88.4916C261.767 88.4916 259.484 80.6754 254.776 80.6754C250.067 80.6754 250.353 106.283 261.767 96.5314V88.4916Z" fill="#FFC0C4"/>
<path opacity="0.7" d="M260.492 92.6149C260.358 92.6149 260.238 92.5158 260.212 92.3741C260.209 92.3552 259.836 90.4416 258.731 89.9363C258.218 89.7016 257.601 89.8117 256.897 90.2631C256.762 90.349 256.586 90.3052 256.504 90.1652C256.421 90.0253 256.464 89.8415 256.598 89.7556C257.472 89.1954 258.267 89.0726 258.962 89.3911C259.13 89.4683 259.285 89.5683 259.426 89.6841C258.75 88.2954 257.768 87.3616 256.831 87.4033C256.25 87.4296 255.75 87.7656 255.343 88.402C255.021 88.9055 254.883 89.4134 254.882 89.4187C254.839 89.577 254.682 89.6696 254.531 89.6257C254.379 89.5819 254.29 89.4183 254.332 89.2599C254.357 89.1634 254.979 86.8914 256.806 86.8085C258.572 86.726 260.391 89.2327 260.776 92.2781C260.796 92.4377 260.691 92.5851 260.539 92.611C260.523 92.6136 260.507 92.6149 260.492 92.6149Z" fill="#FFC0C4"/>
<path d="M310.908 88.4917C310.908 88.4917 313.191 80.6755 317.899 80.6755C322.608 80.6755 322.322 106.283 310.908 96.5316V88.4917Z" fill="#FFC0C4"/>
<path opacity="0.7" d="M312.183 92.6153C312.318 92.6153 312.437 92.5161 312.463 92.3745C312.467 92.3556 312.839 90.4419 313.944 89.9366C314.457 89.702 315.075 89.8121 315.779 90.2634C315.913 90.3494 316.089 90.3055 316.171 90.1656C316.254 90.0257 316.212 89.8419 316.077 89.7559C315.204 89.1958 314.408 89.073 313.713 89.3914C313.545 89.4686 313.39 89.5686 313.25 89.6844C313.925 88.2958 314.907 87.362 315.844 87.4036C316.425 87.4299 316.925 87.7659 317.332 88.4024C317.654 88.9059 317.792 89.4138 317.793 89.4191C317.835 89.5774 317.993 89.67 318.145 89.6261C318.296 89.5822 318.385 89.4186 318.343 89.2603C318.318 89.1638 317.696 86.8918 315.869 86.8089C314.104 86.7264 312.284 89.2331 311.9 92.2784C311.879 92.4381 311.985 92.5855 312.136 92.6113C312.153 92.614 312.168 92.6153 312.183 92.6153Z" fill="#FFC0C4"/>
<path d="M299.039 69.3239C299.039 69.3239 293.978 80.5823 274.016 78.4568C274.016 78.4568 281.5 74.6825 283.922 72.3569C283.922 72.3569 274.62 76.6076 265.802 77.0102C265.802 77.0102 266.816 81.7605 263.935 84.5917L262.389 100.163L261.26 86.8063C261.26 86.8063 259.859 83.8772 258.115 82.1267C258.115 82.1267 256.24 68.0708 257.206 65.1386C258.172 62.2065 269.778 51.3252 277.6 48.3926C285.422 45.4605 297.676 53.0516 297.676 53.0516C297.676 53.0516 303.747 50.5274 305.685 51.4375C307.623 52.3477 312.717 60.3796 313.344 63.3118C313.971 66.2439 313.868 82.8443 313.868 82.8443C313.868 82.8443 311.972 85.3431 310.949 88.0489L310.57 99.0512L307.275 80.4801C307.276 80.4801 299.62 77.7164 299.039 69.3239Z" fill="#2E3442"/>
<path d="M347.256 152.711L338.821 215.293L338.356 218.741C338.102 220.631 336.387 222.048 334.351 222.048H238.36C236.325 222.048 234.605 220.631 234.351 218.741L225.456 152.711C225.149 150.453 227.031 148.453 229.461 148.453H343.247C345.677 148.453 347.558 150.453 347.256 152.711Z" fill="#EE6C2D"/>
<path d="M335.252 222.048H237.457V225.378H335.252V222.048Z" fill="#EE6C2D"/>
<path opacity="0.7" d="M335.252 222.048H237.457V225.378H335.252V222.048Z" fill="#2E3442"/>
<path opacity="0.3" d="M299.531 184.255H273.179C271.709 184.255 270.518 185.447 270.518 186.916C270.518 188.385 271.709 189.577 273.179 189.577H299.531C301 189.577 302.192 188.385 302.192 186.916C302.191 185.446 301 184.255 299.531 184.255Z" fill="white"/>
<path opacity="0.4" d="M338.821 215.293L338.356 218.741C338.102 220.631 336.387 222.048 334.351 222.048H238.36C236.325 222.048 234.605 220.631 234.351 218.741L225.456 152.711C225.149 150.453 227.031 148.453 229.461 148.453H244.413C244.413 148.453 275.749 208.214 338.821 215.293Z" fill="#2E3442"/>
<path d="M422.781 225.378H107.857V230.479H422.781V225.378Z" fill="#B25A1F"/>
<path d="M67.8809 53.7762V113.038C67.8809 115.272 66.0703 117.083 63.8342 117.083H4.04668C1.81061 117.083 0 115.272 0 113.038V53.7762C0 51.5423 1.81061 49.7295 4.04668 49.7295H63.8342C66.0707 49.7295 67.8809 51.5423 67.8809 53.7762Z" fill="#C2DDFA"/>
<path d="M67.8809 53.7762V57.3737H0V53.7762C0 51.5423 1.81061 49.7295 4.04668 49.7295H63.8342C66.0707 49.7295 67.8809 51.5423 67.8809 53.7762Z" fill="#016DDD"/>
<path d="M6.00774 53.5516C6.00774 54.3148 5.38929 54.9332 4.62609 54.9332C3.8629 54.9332 3.24445 54.3148 3.24445 53.5516C3.24445 52.7884 3.8629 52.1699 4.62609 52.1699C5.38885 52.1699 6.00774 52.7888 6.00774 53.5516Z" fill="white"/>
<path d="M11.2926 53.5516C11.2926 54.3148 10.6741 54.9332 9.91094 54.9332C9.14775 54.9332 8.5293 54.3148 8.5293 53.5516C8.5293 52.7884 9.14775 52.1699 9.91094 52.1699C10.6741 52.1699 11.2926 52.7888 11.2926 53.5516Z" fill="white"/>
<path d="M16.5774 53.5516C16.5774 54.3148 15.959 54.9332 15.1958 54.9332C14.4326 54.9332 13.8141 54.3148 13.8141 53.5516C13.8141 52.7884 14.4326 52.1699 15.1958 52.1699C15.959 52.1699 16.5774 52.7888 16.5774 53.5516Z" fill="white"/>
<path d="M391.082 213.925C391.299 213.976 391.437 214.181 391.392 214.383L390.027 220.427C389.981 220.629 389.676 221.16 389.459 221.108C389.242 221.057 389.196 220.443 389.241 220.241L390.606 214.197C390.652 213.996 390.865 213.873 391.082 213.925Z" fill="white"/>
<path d="M399.418 171.648L401.715 172.191C401.715 172.191 402.639 167.862 403.376 164.812C403.827 162.949 403.915 161.753 402.966 161.531C402.063 161.32 401.543 162.364 401.098 164.186C400.348 167.256 399.418 171.648 399.418 171.648Z" fill="#FEC442"/>
<path d="M389.115 215.372C389.115 215.372 388.131 219.111 389.818 219.509C391.506 219.908 392.225 216.108 392.225 216.108L397.728 191.743L394.617 191.008L389.115 215.372Z" fill="#314B87"/>
<path d="M396.963 195.752L395.131 195.318L393.716 194.986L393.586 194.954C393.376 194.904 393.274 194.569 393.357 194.205L399.171 168.468L399.816 165.609C399.826 165.568 399.834 165.531 399.846 165.493C399.85 165.467 399.858 165.438 399.868 165.411C399.869 165.4 399.873 165.39 399.878 165.378C399.889 165.34 399.899 165.298 399.913 165.261C399.939 165.183 399.968 165.109 399.996 165.041C400.033 164.95 400.074 164.864 400.114 164.786C400.204 164.616 400.306 164.465 400.414 164.334C400.43 164.315 400.445 164.298 400.46 164.281C400.508 164.228 400.556 164.182 400.608 164.136C400.641 164.106 400.673 164.082 400.708 164.055C400.724 164.044 400.743 164.032 400.758 164.02C400.777 164.007 400.792 163.996 400.81 163.986C400.828 163.976 400.846 163.966 400.863 163.958C400.879 163.947 400.897 163.937 400.915 163.933C400.933 163.923 400.95 163.915 400.969 163.911C401 163.894 401.032 163.886 401.063 163.878C401.101 163.867 401.14 163.859 401.179 163.854C401.262 163.843 401.345 163.849 401.425 163.868L402.505 164.132L403.256 164.319C403.895 164.468 404.202 165.473 403.951 166.584L403.794 167.279L403.546 168.368L400.529 181.72L397.489 195.181C397.407 195.547 397.173 195.803 396.963 195.752Z" fill="#314B87"/>
<path d="M393.388 196.441L396.503 197.178L396.832 195.721L393.717 194.985L393.388 196.441Z" fill="white"/>
<path d="M399.527 180.573C399.502 180.684 399.37 180.746 399.227 180.712L398.252 180.448C398.22 180.439 398.185 180.428 398.16 180.409C398.072 180.359 398.023 180.27 398.039 180.189L400.955 166.854C400.968 166.796 402.463 167.136 402.452 167.189L399.527 180.573Z" fill="white"/>
<path d="M399.756 225.127H371.736C371.736 224.577 372.333 223.061 373.389 222.289C373.589 222.138 373.809 222.014 374.044 221.933C376.549 221.059 380.855 221.917 385.745 221.917C390.583 221.917 394.847 221.049 397.364 221.901C397.625 221.993 397.871 222.128 398.093 222.295C399.155 223.082 399.756 224.577 399.756 225.127Z" fill="#016DDD"/>
<path d="M370.257 164.914C369.839 164.388 369.271 164.121 368.742 164.261L368.017 164.455C367.211 164.671 366.806 165.776 367.113 166.922L371.893 184.743L374.352 184.082L375.542 183.764C375.548 183.763 375.551 183.755 375.549 183.747L370.768 165.929C370.658 165.534 370.479 165.189 370.257 164.914Z" fill="#DA3E52"/>
<path d="M370.257 164.914C369.839 164.388 369.271 164.121 368.742 164.261L368.017 164.455C367.211 164.671 366.806 165.776 367.113 166.922L371.893 184.743L374.352 184.082L375.542 183.764C375.548 183.763 375.551 183.755 375.549 183.747L370.768 165.929C370.658 165.534 370.479 165.189 370.257 164.914Z" fill="#EE6C2D"/>
<path d="M371.339 168.056L371.881 170.077L372.545 172.555L374.308 179.139L374.309 179.14L375.068 181.97L375.084 182.03C375.083 182.031 375.082 182.032 375.082 182.032C375.083 182.033 375.082 182.035 375.08 182.035L373.889 182.355L373.862 182.362L372.648 182.688L372.641 182.689L371.429 183.014C371.428 183.013 371.426 183.014 371.425 183.012C371.425 183.012 371.424 183.013 371.424 183.011L371.408 182.955L370.652 180.13L369.392 175.427L368.22 171.058L367.679 169.037C367.679 169.036 367.68 169.036 367.68 169.036C367.681 169.033 367.682 169.033 367.682 169.032L368.895 168.707L368.9 168.705L370.115 168.379L370.124 168.377L371.333 168.053C371.336 168.054 371.337 168.054 371.339 168.056Z" fill="white"/>
<path d="M385.745 220.934L381.841 221.772L374.562 194.668L371.897 184.742L371.432 183.014L371.275 182.429L369.555 176.024L369.41 175.489L368.22 171.058L368.222 171.059L369.278 170.778L369.438 170.735L369.444 170.733L370.659 170.408L370.671 170.405L370.825 170.365L371.882 170.083L372.593 172.73L373.614 176.531L378.216 193.666L378.217 193.668L385.745 220.934Z" fill="#2E3442"/>
<path d="M387.319 218.505L387.85 218.959C387.85 218.959 387.427 220.065 387.191 220.092C386.955 220.119 386.759 218.879 386.759 218.879L387.319 218.505Z" fill="#2E3442"/>
<path d="M389.283 215.578L387.85 218.959C387.85 218.959 387.232 219.245 386.759 218.879L385.966 215.285C385.966 215.285 387.588 214.59 389.283 215.578Z" fill="#EE6C2D"/>
<path d="M390.727 168.557L390.979 164.827C390.979 164.827 388.223 165.941 387.525 167.504C386.827 169.066 386.536 181.927 386.536 181.927C386.536 181.927 387.689 181.801 388.044 180.723C388.399 179.645 387.707 178.958 387.707 178.958C387.707 178.958 388.183 173.142 388.431 171.294C388.678 169.445 390.727 168.557 390.727 168.557Z" fill="#314B87"/>
<path d="M392.2 159.723C394.252 158.546 395.915 160.038 395.915 160.038L395.091 163.773C393.67 164.48 392.512 163.52 392.512 163.52L392.2 159.723Z" fill="#314B87"/>
<path d="M390.739 163.032C394.681 161.521 396.706 163.646 396.835 163.789L396.84 163.799L389.287 215.576C386.806 216.62 385.963 215.287 385.963 215.287L390.739 163.032Z" fill="#EE6C2D"/>
<path d="M401.427 184.3L398.833 208.36L397.971 216.392L397.648 219.36L397.503 220.714L397.367 221.973H374.126L372.632 208.153L370.362 187.019C370.358 187.007 370.358 186.999 370.358 186.999L370.065 184.3C370.498 184.191 370.931 184.093 371.368 184.004C371.372 184.004 371.376 184.004 371.38 184C371.485 183.976 371.594 183.953 371.703 183.933C373.432 183.563 375.16 183.27 376.891 183.048C385.149 181.99 393.395 182.568 401.427 184.3Z" fill="#016DDD"/>
<path opacity="0.3" d="M397.647 219.36L397.503 220.714L397.367 221.973H374.126L372.632 208.153L370.361 187.019C370.502 187.88 375.202 215.491 397.647 219.36Z" fill="#2E3442"/>
<path d="M378.075 78.7215C378.036 78.7088 374.166 77.3863 373.021 71.0536C372.987 70.8641 372.795 70.7238 372.569 70.7238C372.344 70.7238 372.152 70.8641 372.118 71.0536C370.973 77.3863 367.102 78.7088 367.066 78.7206C366.886 78.7772 366.767 78.9224 366.767 79.0851C366.767 79.2478 366.886 79.3934 367.066 79.45C367.104 79.4623 370.965 80.7405 372.118 87.1171C372.152 87.3066 372.344 87.4465 372.569 87.4465C372.795 87.4465 372.986 87.3066 373.021 87.1171C374.166 80.7839 378.036 79.4619 378.073 79.45C378.251 79.3939 378.369 79.2491 378.371 79.0869C378.372 78.925 378.253 78.779 378.075 78.7215Z" fill="white"/>
<path d="M365.763 59.8085C365.74 59.801 363.498 59.0348 362.834 55.3657C362.814 55.2561 362.703 55.1749 362.572 55.1749C362.442 55.1749 362.331 55.2561 362.311 55.3657C361.648 59.0352 359.405 59.8015 359.384 59.8085C359.28 59.8409 359.21 59.9251 359.21 60.0199C359.21 60.1146 359.28 60.1988 359.384 60.2313C359.406 60.2383 361.643 60.9791 362.311 64.6741C362.331 64.7837 362.442 64.8649 362.572 64.8649C362.703 64.8649 362.814 64.7837 362.834 64.6741C363.497 61.0046 365.74 60.2383 365.761 60.2313C365.865 60.1988 365.933 60.1151 365.934 60.0212C365.935 59.926 365.866 59.8418 365.763 59.8085Z" fill="white"/>
<path d="M395.089 54.6616C395.034 54.6437 389.641 52.7804 388.046 43.855C387.998 43.5879 387.731 43.3905 387.417 43.3905C387.102 43.3905 386.835 43.5879 386.788 43.855C385.193 52.7804 379.799 54.6437 379.749 54.6608C379.498 54.7402 379.332 54.945 379.332 55.1744C379.332 55.4038 379.498 55.6091 379.749 55.6885C379.803 55.7056 385.182 57.507 386.788 66.4938C386.836 66.7609 387.103 66.9583 387.417 66.9583C387.731 66.9583 387.998 66.7609 388.046 66.4938C389.641 57.5684 395.034 55.7051 395.085 55.6885C395.334 55.6095 395.499 55.4056 395.501 55.177C395.502 54.9485 395.337 54.7428 395.089 54.6616Z" fill="white"/>
<path d="M87.9514 189.175C87.9036 189.159 83.16 187.539 81.7573 179.777C81.7152 179.545 81.4805 179.373 81.2038 179.373C80.9274 179.373 80.6928 179.545 80.6507 179.777C79.2475 187.538 74.5039 189.159 74.4591 189.174C74.239 189.243 74.0929 189.421 74.0929 189.621C74.0929 189.82 74.239 189.999 74.4591 190.068C74.5065 190.083 79.2379 191.649 80.6507 199.464C80.6928 199.697 80.9274 199.868 81.2038 199.868C81.4805 199.868 81.7152 199.697 81.7573 199.464C83.1604 191.702 87.9036 190.082 87.9484 190.068C88.1677 189.999 88.3124 189.822 88.3137 189.623C88.3146 189.424 88.1694 189.246 87.9514 189.175Z" fill="white"/>
<path d="M99.2717 171.933C99.244 171.924 96.4957 170.985 95.6825 166.488C95.6583 166.353 95.5219 166.253 95.3618 166.253C95.2017 166.253 95.0658 166.353 95.0412 166.488C94.228 170.985 91.4796 171.924 91.4537 171.933C91.3261 171.973 91.2415 172.076 91.2415 172.191C91.2415 172.307 91.3261 172.41 91.4537 172.45C91.4814 172.459 94.2227 173.366 95.0412 177.895C95.0653 178.029 95.2017 178.129 95.3618 178.129C95.5224 178.129 95.6583 178.029 95.6825 177.895C96.4957 173.397 99.244 172.459 99.2699 172.45C99.3971 172.41 99.4809 172.308 99.4818 172.192C99.4822 172.077 99.398 171.974 99.2717 171.933Z" fill="white"/>
<path d="M17.7852 79.2909L16.013 80.7116C15.521 81.106 15.7815 81.9495 16.3946 81.9464L45.5261 81.7747L37.6395 77.0653H24.0198C21.774 77.0654 19.5878 77.8457 17.7852 79.2909Z" fill="url(#paint0_linear_1898_40916)"/>
<path d="M61.1748 91.9627C61.1494 91.7238 61.1232 91.4846 61.097 91.2478C60.8275 88.8169 59.587 86.6349 57.6988 85.2768L57.5526 85.1717C55.2785 83.5361 52.6659 82.5299 49.9458 82.2422L45.5262 81.7748L16.3948 81.9465C15.7817 81.9496 15.5211 81.1062 16.0132 80.7117L17.7853 79.291C19.5879 77.8458 21.7741 77.0654 24.02 77.0654H37.6397L37.5375 77.0194C36.7191 76.6512 35.8413 76.4615 34.9546 76.4615H22.1286C21.3493 76.4615 20.5744 76.5876 19.8297 76.8352L10.1829 80.6867C9.70611 80.8454 9.28056 81.1458 8.9549 81.5535L6.96217 84.0489C6.54739 84.5683 6.31927 85.2311 6.31927 85.9166V89.983C6.31927 91.0593 9.8471 94.7366 9.8471 94.7366C10.2313 94.9477 10.6565 95.0577 11.0876 95.0577H54.4246L59.0273 94.7343C60.3455 94.6414 61.3257 93.3783 61.1748 91.9627Z" fill="#EE6C2D"/>
<path d="M61.0217 93.8048H60.884C60.6157 93.8048 60.3983 93.5703 60.3983 93.2809V90.6479C60.3983 90.3586 60.6158 90.124 60.884 90.124C61.1416 90.124 61.3544 90.341 61.3689 90.6185L61.5066 93.2514C61.5223 93.5518 61.3007 93.8048 61.0217 93.8048Z" fill="url(#paint1_linear_1898_40916)"/>
<path d="M59.3125 89.6184H60.7586C60.2204 87.8579 59.1527 86.3226 57.6987 85.2767L57.5525 85.1716C57.4018 85.0633 57.2494 84.9581 57.0958 84.8552C57.391 85.9662 57.755 87.4898 57.9946 88.5123C58.1473 89.1635 58.6899 89.6184 59.3125 89.6184Z" fill="url(#paint2_linear_1898_40916)"/>
<path d="M10.1828 83.698V80.687C9.70608 80.8457 9.28053 81.1461 8.95487 81.5538L6.96214 84.0492C6.61588 84.4827 6.40195 85.0168 6.33997 85.5801L9.06024 85.1157C9.70673 85.0055 10.1828 84.4042 10.1828 83.698Z" fill="url(#paint3_linear_1898_40916)"/>
<path d="M40.7393 81.6424L39.715 80.5687C39.2882 80.1213 38.7511 79.8159 38.1677 79.689L36.1419 79.2482C35.5859 79.1272 35.0538 79.5477 34.993 80.156L34.9787 80.2989C34.9167 80.9185 35.3703 81.4573 35.948 81.4503L38.5578 81.4183C38.9218 81.4138 39.2525 81.6459 39.3963 82.0067L39.4443 82.1274C39.5082 82.2875 39.6542 82.3913 39.8157 82.3913H40.4575C40.8205 82.3913 40.9996 81.9153 40.7393 81.6424Z" fill="url(#paint4_linear_1898_40916)"/>
<path d="M30.245 83.5874H34.712C35.0604 83.5874 35.306 83.961 35.1852 84.3135C34.9808 84.91 34.494 85.6709 33.337 85.7597C32.2964 85.8397 30.9847 85.204 29.9955 84.6C29.547 84.3262 29.7297 83.5874 30.245 83.5874Z" fill="url(#paint5_linear_1898_40916)"/>
<path d="M17.0926 99.8815C20.3493 99.8815 22.9894 97.2414 22.9894 93.9847C22.9894 90.728 20.3493 88.0879 17.0926 88.0879C13.8359 88.0879 11.1959 90.728 11.1959 93.9847C11.1959 97.2414 13.8359 99.8815 17.0926 99.8815Z" fill="url(#paint6_linear_1898_40916)"/>
<path d="M17.0925 98.7733C19.7373 98.7733 21.8814 96.6293 21.8814 93.9845C21.8814 91.3397 19.7373 89.1957 17.0925 89.1957C14.4477 89.1957 12.3037 91.3397 12.3037 93.9845C12.3037 96.6293 14.4477 98.7733 17.0925 98.7733Z" fill="url(#paint7_linear_1898_40916)"/>
<path d="M51.8713 99.8815C55.128 99.8815 57.7681 97.2414 57.7681 93.9847C57.7681 90.728 55.128 88.0879 51.8713 88.0879C48.6146 88.0879 45.9745 90.728 45.9745 93.9847C45.9745 97.2414 48.6146 99.8815 51.8713 99.8815Z" fill="url(#paint8_linear_1898_40916)"/>
<path d="M51.8713 98.7733C54.5161 98.7733 56.6601 96.6293 56.6601 93.9845C56.6601 91.3397 54.5161 89.1957 51.8713 89.1957C49.2265 89.1957 47.0825 91.3397 47.0825 93.9845C47.0825 96.6293 49.2265 98.7733 51.8713 98.7733Z" fill="url(#paint9_linear_1898_40916)"/>
<path d="M55.7779 95.7533C55.7625 95.7533 55.7469 95.7503 55.7318 95.7439C55.6716 95.7185 55.6435 95.649 55.6689 95.5888C55.8839 95.0807 55.9928 94.541 55.9928 93.9846C55.9928 91.7118 54.1439 89.863 51.8713 89.863C51.1663 89.863 50.4706 90.044 49.8593 90.3866C49.8025 90.4187 49.7302 90.3983 49.6982 90.3412C49.6662 90.2841 49.6866 90.212 49.7436 90.1801C50.39 89.8178 51.1258 89.6262 51.8713 89.6262C54.2745 89.6262 56.2296 91.5813 56.2296 93.9846C56.2296 94.5729 56.1143 95.1436 55.887 95.6811C55.8679 95.7263 55.8241 95.7533 55.7779 95.7533Z" fill="url(#paint10_linear_1898_40916)"/>
<path d="M21.1149 95.7533C21.0995 95.7533 21.0839 95.7503 21.0688 95.7439C21.0086 95.7185 20.9804 95.649 21.0059 95.5888C21.2208 95.0808 21.3298 94.5411 21.3298 93.9846C21.3298 91.7118 19.4809 89.863 17.2082 89.863C16.5032 89.863 15.8075 90.044 15.1963 90.3866C15.1396 90.4187 15.0672 90.3983 15.0352 90.3412C15.0032 90.2841 15.0236 90.212 15.0806 90.1801C15.7271 89.8178 16.4628 89.6262 17.2083 89.6262C19.6115 89.6262 21.5666 91.5813 21.5666 93.9846C21.5666 94.5729 21.4513 95.1437 21.224 95.6811C21.2049 95.7263 21.161 95.7533 21.1149 95.7533Z" fill="url(#paint11_linear_1898_40916)"/>
<path d="M24.2277 92.2027C24.172 92.2027 24.1224 92.1631 24.1115 92.1064C23.5906 89.3672 22.0302 87.6236 19.4739 86.9241C17.5555 86.399 15.7646 86.6911 15.7468 86.6941C15.6824 86.7042 15.6213 86.6614 15.6104 86.5969C15.5995 86.5325 15.643 86.4715 15.7074 86.4605C15.7823 86.4481 17.5609 86.157 19.5288 86.6937C21.3545 87.1914 23.6718 88.5267 24.3442 92.0622C24.3564 92.1263 24.3143 92.1883 24.2501 92.2005C24.2425 92.202 24.2351 92.2027 24.2277 92.2027Z" fill="url(#paint12_linear_1898_40916)"/>
<path d="M44.6691 93.1011C44.6054 93.1011 44.5528 93.0505 44.5508 92.9864C44.4825 90.8027 45.0684 89.0915 46.2923 87.9C48.3114 85.9347 51.4076 86.0914 51.4388 86.093C51.5041 86.0969 51.5538 86.1528 51.55 86.218C51.5463 86.2833 51.4903 86.3333 51.425 86.3293C51.3948 86.3275 48.399 86.1785 46.4561 88.0711C45.2827 89.214 44.7214 90.8653 44.7875 92.9791C44.7895 93.0444 44.7382 93.0991 44.6729 93.1011C44.6716 93.1011 44.6703 93.1011 44.6691 93.1011Z" fill="url(#paint13_linear_1898_40916)"/>
<path d="M16.5807 81.3271C16.5395 81.3271 16.4994 81.3056 16.4777 81.2673C16.4453 81.2105 16.4652 81.1382 16.522 81.1059L20.4717 78.8586C21.6007 78.2162 22.8838 77.8644 24.1823 77.8411L28.713 77.7598C28.7786 77.7611 28.8323 77.8106 28.8335 77.876C28.8346 77.9414 28.7826 77.9954 28.7172 77.9965L24.1866 78.0779C22.9275 78.1004 21.6834 78.4416 20.5887 79.0644L16.639 81.3117C16.6207 81.3221 16.6005 81.3271 16.5807 81.3271Z" fill="#7D97F4"/>
<defs>
<linearGradient id="paint0_linear_1898_40916" x1="15.7556" y1="79.5059" x2="45.5261" y2="79.5059" gradientUnits="userSpaceOnUse">
<stop stop-color="#09005D"/>
<stop offset="1" stop-color="#1A0F91"/>
</linearGradient>
<linearGradient id="paint1_linear_1898_40916" x1="69.3184" y1="82.8206" x2="57.9281" y2="95.2704" gradientUnits="userSpaceOnUse">
<stop stop-color="#E1473D"/>
<stop offset="1" stop-color="#E9605A"/>
</linearGradient>
<linearGradient id="paint2_linear_1898_40916" x1="60.8929" y1="84.4062" x2="59.0007" y2="87.131" gradientUnits="userSpaceOnUse">
<stop stop-color="#E1473D"/>
<stop offset="1" stop-color="#E9605A"/>
</linearGradient>
<linearGradient id="paint3_linear_1898_40916" x1="7.11364" y1="81.3992" x2="10.0897" y2="85.8963" gradientUnits="userSpaceOnUse">
<stop stop-color="#E1473D"/>
<stop offset="1" stop-color="#E9605A"/>
</linearGradient>
<linearGradient id="paint4_linear_1898_40916" x1="41.1156" y1="83.7764" x2="35.7979" y2="79.485" gradientUnits="userSpaceOnUse">
<stop stop-color="#E1473D"/>
<stop offset="1" stop-color="#E9605A"/>
</linearGradient>
<linearGradient id="paint5_linear_1898_40916" x1="29.8075" y1="86.9314" x2="32.6063" y2="84.1326" gradientUnits="userSpaceOnUse">
<stop stop-color="#E1473D"/>
<stop offset="1" stop-color="#E9605A"/>
</linearGradient>
<linearGradient id="paint6_linear_1898_40916" x1="28.9239" y1="83.3786" x2="9.02656" y2="101.216" gradientUnits="userSpaceOnUse">
<stop stop-color="#09005D"/>
<stop offset="1" stop-color="#1A0F91"/>
</linearGradient>
<linearGradient id="paint7_linear_1898_40916" x1="21.8118" y1="86.2523" x2="8.74118" y2="107.668" gradientUnits="userSpaceOnUse">
<stop stop-color="#E1473D"/>
<stop offset="1" stop-color="#E9605A"/>
</linearGradient>
<linearGradient id="paint8_linear_1898_40916" x1="48.058" y1="84.0259" x2="55.181" y2="102.628" gradientUnits="userSpaceOnUse">
<stop stop-color="#09005D"/>
<stop offset="1" stop-color="#1A0F91"/>
</linearGradient>
<linearGradient id="paint9_linear_1898_40916" x1="56.9959" y1="85.2332" x2="43.9253" y2="107.554" gradientUnits="userSpaceOnUse">
<stop stop-color="#E1473D"/>
<stop offset="1" stop-color="#E9605A"/>
</linearGradient>
<linearGradient id="paint10_linear_1898_40916" x1="54.5416" y1="76.7579" x2="53.7763" y2="84.2341" gradientUnits="userSpaceOnUse">
<stop stop-color="#FE7062"/>
<stop offset="1" stop-color="#FF928E"/>
</linearGradient>
<linearGradient id="paint11_linear_1898_40916" x1="20.238" y1="73.2465" x2="19.4727" y2="80.7227" gradientUnits="userSpaceOnUse">
<stop stop-color="#FE7062"/>
<stop offset="1" stop-color="#FF928E"/>
</linearGradient>
<linearGradient id="paint12_linear_1898_40916" x1="21.2776" y1="73.3581" x2="20.8656" y2="78.4208" gradientUnits="userSpaceOnUse">
<stop stop-color="#FF928E"/>
<stop offset="1" stop-color="#FEB3B1"/>
</linearGradient>
<linearGradient id="paint13_linear_1898_40916" x1="49.1551" y1="75.6272" x2="48.743" y2="80.6899" gradientUnits="userSpaceOnUse">
<stop stop-color="#FF928E"/>
<stop offset="1" stop-color="#FEB3B1"/>
</linearGradient>
</defs>
</svg>
